<svg xmlns="http://www.w3.org/2000/svg" xmlns:xlink="http://www.w3.org/1999/xlink" viewBox="0 0 1777.99 152.61"><defs><linearGradient id="linear-gradient" x1="76.05" y1="33.08" x2="81.24" y2="33.08" gradientUnits="userSpaceOnUse"><stop offset="0" stop-color="#61d0ff"/><stop offset="1" stop-color="#3d63ff"/></linearGradient><linearGradient id="linear-gradient-2" x1="17.03" y1="38.23" x2="32.72" y2="38.23" xlink:href="#linear-gradient"/><linearGradient id="linear-gradient-3" x1="13.84" y1="37.62" x2="17.03" y2="37.62" xlink:href="#linear-gradient"/><linearGradient id="linear-gradient-4" x1="1070.13" y1="27.05" x2="1304.1" y2="27.05" gradientUnits="userSpaceOnUse"><stop offset="0" stop-color="#fcd14f"/><stop offset="1" stop-color="#fabb04"/></linearGradient><linearGradient id="linear-gradient-5" x1="1633.76" y1="65.19" x2="1642.46" y2="65.19" gradientUnits="userSpaceOnUse"><stop offset="0" stop-color="#61d0ff"/><stop offset="1" stop-color="#fcd14f"/></linearGradient><linearGradient id="linear-gradient-6" x1="0" y1="76.3" x2="1777.99" y2="76.3" xlink:href="#linear-gradient-4"/></defs><g id="Layer_2" data-name="Layer 2"><g id="Objects"><path d="M77.67,33.43l3.57-.5-3-.2c-.8.17-1.53.35-2.18.54Z" style="fill:url(#linear-gradient)"/><path d="M32.7,38.15a82.83,82.83,0,0,0-13.28-.87L17,37.77l7.66,1.07C30.2,39.61,33,39,32.7,38.15Z" style="fill:url(#linear-gradient-2)"/><path d="M17,37.77l-3.19-.44c.73.21,1.45.39,2.13.58l.63,0Z" style="fill:url(#linear-gradient-3)"/><path d="M1074.12,26.33q112.32,2,225.22,2.85c2.52,0,4.63-.25,4.76-.65s-1.83-.69-4.16-.68c-75.19-.71-150-1.61-224.87-2.93-2.52,0-4.59.27-4.94.63C1070,26,1071.77,26.28,1074.12,26.33Z" style="fill:url(#linear-gradient-4)"/><path d="M1635.06,64.71c-1.78.3-1.72.7.13,1a24.21,24.21,0,0,0,6.19,0c1.49-.25,1.44-.73-.15-1A24.41,24.41,0,0,0,1635.06,64.71Z" style="fill:url(#linear-gradient-5)"/><path d="M1773.23,62.25c-131.6-1-262.15,1.72-389.67,6.55l-20.91.13a0,0,0,0,0,0,0c-2.19-1.59-6.8-3-13.06-4.13,45.15-.69,90.05-1.5,135.11-2.45q56.31.2,112.68.38c5.42,0,10-.64,10.08-1.58s-4.32-1.52-10-1.58c-9.22-.06-18.43-.08-27.65-.13,7.6-1.09,12.57-2.63,13.07-4.36s-3.3-3.19-9.71-4.36c40.66-1.58,80.95-3.34,120.27-5.67,2.3-.13,3.53-.5,2.71-.86a16.14,16.14,0,0,0-5.47-.43c-57.18,1-113.63,2.49-170.23,3.66-44.69-2-88.4-4.26-136.71-5.06-70.35-1.1-136.41,1.05-202.39,3.2-23.72-.54-47.37-1-70.83-1.21,3.3-.79,5.27-1.74,5.27-2.76,0-.26-.25-.51-.52-.77,20.66.14,41.43.24,62.54.34,195.74.92,379.54-6.12,566.77-12,12-.22,20.63-1.95,19.19-3.83s-12.46-3.24-24.39-3c-89.79,0-172.55,3.28-263.4,6.51-64.69,2.29-121.52,4-186.49,5.58-76.06,1.84-146.82,1.43-221.38,1.39-7.33-.3-14.67-.5-22.09-.39l-22.41.32C965.22,35.47,908,34.27,851,33c68.14-1.16,136.15-2.52,203.19-5.08,4.82-.1,8-.81,7.52-1.54-.86-.73-5.19-1.26-10-1.15-93.47,1.59-187.28,2.21-281,3-25.55-6.49-79.64-10.33-128-10.56-17.86-.11-34.4.61-51.08,1.67,7.79.28,15.38.53,23.16.8-23,.23-42.57,1.91-61.94,3.64-1.69-.08-3.38-.17-5.19-.22-45-3.59-97.53-2.88-146.13-4.44,1,.84,2.29,1.66,3.32,2.49-9-.64-14.23-2.14-24.08-2.59,2.77.6,5.34,1.21,8.11,1.82l-.59,0a306.15,306.15,0,0,0-36.39-2C322.1,15,285.62,12.72,247.38,11.67a123.49,123.49,0,0,0-21-1.82c-3.67-.31-8-.52-10.61-.95C192,4.85,162.92,2.08,130.88,0c6.17.77,12.61,1.53,18.78,2.3C140.41,1.67,131.28,1,121,1c1.08.48,2.47,1,3.56,1.45C92.67-1.07,49,.18,27,5.16S12.68,17,44.54,20.48l4.54.53c-16.25.77-30.42,2.41-38.43,5.27-4.28,1.58-.54,3.58.39,5.41-1.3,2.66,11.54,5,28.57,5.18,4.63.05,9.07-.06,13.11-.31,19.65,1,39.76,1.75,58.86,2.95,3.78.29,8.39,0,10.38-.59,1.7-.61.07-1.33-3.84-1.6C104.34,36.07,91,34.77,77.67,33.43l-3.27.45a11.81,11.81,0,0,1,1.65-.61l-3.67-.38,2.94-.34,2.91.18c1.7-.35,3.73-.64,6-.91,23.86.93,47.45,2,69.67,3.73,1.3.11-.88,1.3,1.51,1.74,1.19.22,2.42.41,3.71.61-4-.26-8.21-.48-12.74-.64l-28,2.76-.08,0-1.34.15-6.46.64a.24.24,0,0,1,0,.1l-1.64.19-7.67-.24a29,29,0,0,0-7.08.48c-1-.29-2.07-.59-3.42-.89-14.6-.58-14.6-.58-29.58-1.11,0,0,0,.3.52.73-.6,0-5.59.35-11.42.19-5.61,0-5.61,0-19.61-.45L37.37,41l-5.92-.83L33,41.51,30.26,40l-2.54,1.11L16,37.91l-8.55.66a26.17,26.17,0,0,0-2.62.67c-.13.4-.13.4-4.79,1.78A1.08,1.08,0,0,0,.36,42c1.43.45,1.43.45,1.8,1.7a38.29,38.29,0,0,0,4,.89c2.25.24,2.83.31,11.18,1.08-.73.21-1.41.43-2,.66C13.67,48.6,13.67,48.6,24.1,54a126.37,126.37,0,0,0,15.25,2.53c10.94.51,10.94.51,23.58,1,0,0,2.75.2,7.5.46,3.54.88,4.33,1.1,6.95,1.89h.06c-2.42.06-4.78.21-6.75.46-5.69.76-6.49,2.07-1.71,3-6.28,3.56-2.53,6.78,5.42,9.87-2.42,1.18-3.54,2.42-3.21,3.7-9.32,3-15.12,6.27-17.55,9.71l-1.12,3c2.7,2.54,10.51,4.91,22.11,6.73l3.51.73-3.33,2.47c14.86,6.6,44.26,11.88,62.42,18.18L150.88,121c9.93,2.68,25.67,4.64,44.11,5.59l19.49,1c4.11,0,8.18.08,12.31.1-20.74,3.08-32.14,7.61-28.34,12.4,6.53,7.87,52.73,13.47,103.15,12.4,134.6-.31,264.55-.84,402.12-4.12,101.84-2.39,194.22-5.62,294.08-5.61,95.5-3.41,187.49-7.82,280.66-13.1,78.29-4.4,138.19-13.24,207.43-20,2-.18,2.2-.62,1.13-.94a24.23,24.23,0,0,0-6.22-.14c-109.85,5.85-220.55,10.94-338.29,12.12-13.49.13-26.75.15-39.88.1-1.45-.12-3.05-.2-4.77-.23-11.94-.38-23.93-.72-35.9-1l12.5-.09c8.27,0,15.36-.94,16-2.29,0-.56-1.15-1.07-3.08-1.5,30.61-1.41,60.56-3.24,90.41-5.17,8.92-.15,17.11-.62,24.17-1.33,34.52,1,69.16,1.68,103.87,2.59l8.59.38c11.4.28,22.38-.53,27.84-2.08a7.91,7.91,0,0,0,3.34-1.46c79-2.76,159.3-4.82,233.92-10,3.79-.26,5.8-.83,5.18-1.45a26.85,26.85,0,0,0,4.93,0c8.89-1,18.86-1.69,29.36-2.25,2.3-.22,3.55-.58,2.48-.9a17.28,17.28,0,0,0-5.74-.39c-10.74.6-21.26,1.33-30.89,2.34a4,4,0,0,0-1.9.51,43.65,43.65,0,0,0-8.91-.39c-77.12,1.75-151.78,5.65-229.64,6.5,38.08-2.38,77.05-4,118-5.83,49.46-2.15,95-5.23,144.82-6.46,2.6,0,4.33-.38,4.06-.75s-2.47-.68-5-.58C1504.08,90.86,1414.55,99.85,1309,99.85c-4.15,0-8.3,0-12.39-.1,32.54-3.13,64.5-6.33,96.35-9.49,97.06-1.33,193.71-3.32,289.17-6.26,4.66,0,8.43-.64,8.32-1.37s-4.07-1.32-8.71-1.3q-81.27-1.6-163.28-2.88c3.81-.34,7.61-.67,11.45-1,3.79-.11,7.59-.25,11.39-.36q52.67-.16,105.46-.72c13.15.08,24-1.54,24.74-3.65.21-2-9.56-3.71-22.23-3.86l6.14-.38c2.07-.09,3.55-.49,3-.82a17.65,17.65,0,0,0-5.47-.51c-7.41.48-14.68,1-22,1.48-66.91-.77-133.9-.53-200.9-.13,72.09-2.41,145.16-4.07,218.74-4.73-1.49.26-1.66.69.17,1a26.14,26.14,0,0,0,6.19,0c1.75-.28,1.45-.73-.14-1l-.16,0q59.23-.48,118.84-.07c2.32,0,4.31-.3,4.27-.7S1775.81,62.24,1773.23,62.25ZM57.51,48.26a31.69,31.69,0,0,1,3.84.84Zm23.07,47-1-.31,11.52-7.54Zm64.48-32.6L139.65,61l5.48,1.68ZM297,45.6c-2.36.12-7,0-4.49,1-19.33-.56-39-.95-59.12-1.17-7.5-.08-14.9.05-22,.41a258,258,0,0,0-27.1-5.44c18,1.18,38.67,1.64,57.63,2.43,21,.89,41.73,1.72,62.34,2.46C301.9,45.44,299.49,45.51,297,45.6Zm48.18-17c-4.91-.31-9.82-.6-14.74-.92l2.71.61q-28.49-.76-56.76-1.67c-27.15-1.95-56.31-3.28-85.84-3.83,8.54-.8,16.65-1.71,24.2-2.69,37.62,2.13,73.74,4.92,113.13,5.73,2.6.2,5.17.41,7.74.64l11.15,2.18Z" style="fill:url(#linear-gradient-6)"/></g></g></svg>