<svg xmlns="http://www.w3.org/2000/svg" viewBox="0 0 121.36 16.02"><g id="Layer_2" data-name="Layer 2"><g id="OBJECTS"><path d="M121.36,8.74l-3.68-1c-6.45-1.69-13-1.51-19.52-.78-11.28,1.27-22.34,3.8-33.5,5.76s-22.53,3.82-34,3.15a59.13,59.13,0,0,1-16.2-2.94A27.91,27.91,0,0,1,2.23,5.19,8.7,8.7,0,0,1,.13,1.48C0,1-.22.3.5.05,1-.14,1.37.26,1.63.7,4.28,5.3,8.69,7.49,13.4,9.21A58,58,0,0,0,28.18,12C38.52,13,48.77,12,59,10.33c9.38-1.49,18.72-3.26,28.1-4.76a93.17,93.17,0,0,1,19.81-1.24A50,50,0,0,1,119.49,7,2.18,2.18,0,0,1,121.36,8.74Z" style="fill:#fcd14f"/></g></g></svg>