<?xml version="1.0" encoding="utf-8"?>
<!-- Generator: Adobe Illustrator 25.4.1, SVG Export Plug-In . SVG Version: 6.00 Build 0)  -->
<svg version="1.1" id="Layer_1" xmlns="http://www.w3.org/2000/svg" xmlns:xlink="http://www.w3.org/1999/xlink" x="0px" y="0px"
	 viewBox="0 0 62.7 21.9" style="enable-background:new 0 0 62.7 21.9;" xml:space="preserve">
<style type="text/css">
	.st0{fill:#FCD14F;}
</style>
<g id="OBJECTS">
	<polygon class="st0" points="10.2,4.8 6.1,2.4 1.9,4.8 1.9,9.6 6.1,12 10.2,9.6 	"/>
	<polygon class="st0" points="20.2,4.8 16,2.4 11.9,4.8 11.9,9.6 16,12 20.2,9.6 	"/>
	<polygon class="st0" points="30.2,4.8 26,2.4 21.9,4.8 21.9,9.6 26,12 30.2,9.6 	"/>
	<polygon class="st0" points="40.2,4.8 36,2.4 31.9,4.8 31.9,9.6 36,12 40.2,9.6 	"/>
	<polygon class="st0" points="50.1,4.8 46,2.4 41.9,4.8 41.9,9.6 46,12 50.1,9.6 	"/>
	<polygon class="st0" points="56,2.4 51.9,4.8 51.9,9.6 56,12 60.1,9.6 60.1,4.8 	"/>
	<polygon class="st0" points="6.9,13 6.9,17.7 11.1,20.1 15.2,17.7 15.2,13 11.1,10.6 	"/>
	<polygon class="st0" points="16.9,13 16.9,17.7 21,20.1 25.2,17.7 25.2,13 21,10.6 	"/>
	<polygon class="st0" points="26.9,13 26.9,17.7 31,20.1 35.2,17.7 35.2,13 31,10.6 	"/>
	<polygon class="st0" points="36.9,13 36.9,17.7 41,20.1 45.1,17.7 45.1,13 41,10.6 	"/>
	<polygon class="st0" points="46.9,13 46.9,17.7 51,20.1 55.1,17.7 55.1,13 51,10.6 	"/>
</g>
</svg>
