<svg xmlns="http://www.w3.org/2000/svg" xmlns:xlink="http://www.w3.org/1999/xlink" viewBox="0 0 114.59 29.08"><defs><linearGradient id="linear-gradient" y1="7.27" x2="114.59" y2="7.27" gradientUnits="userSpaceOnUse"><stop offset="0" stop-color="#fabb04"/><stop offset="0.04" stop-color="#f7bd16"/><stop offset="0.11" stop-color="#f3c031"/><stop offset="0.19" stop-color="#f0c247"/><stop offset="0.28" stop-color="#edc458"/><stop offset="0.39" stop-color="#ebc563"/><stop offset="0.55" stop-color="#eac66a"/><stop offset="1" stop-color="#eac66c"/></linearGradient><linearGradient id="linear-gradient-2" x1="0" y1="21.81" x2="114.59" y2="21.81" xlink:href="#linear-gradient"/></defs><g id="Layer_2" data-name="Layer 2"><g id="OBJECTS"><polygon points="79.82 14.54 57.3 5.72 34.77 14.54 12.24 5.72 1.94 9.75 0 4.79 12.24 0 34.77 8.82 57.3 0 79.82 8.82 102.35 0 114.59 4.79 112.65 9.75 102.35 5.72 79.82 14.54" style="fill:url(#linear-gradient)"/><polygon points="79.82 29.09 57.3 20.27 34.77 29.09 12.24 20.27 1.94 24.3 0 19.33 12.24 14.54 34.77 23.36 57.3 14.54 79.82 23.36 102.35 14.54 114.59 19.33 112.65 24.3 102.35 20.27 79.82 29.09" style="fill:url(#linear-gradient-2)"/></g></g></svg>