<svg id="SvgjsSvg1001" width="550" height="550" xmlns="http://www.w3.org/2000/svg" version="1.1" xmlns:xlink="http://www.w3.org/1999/xlink" xmlns:svgjs="http://svgjs.com/svgjs"><defs id="SvgjsDefs1002"></defs><g id="SvgjsG1008"><svg xmlns="http://www.w3.org/2000/svg" enable-background="new 0 0 600 600" viewBox="17.85 90.508 564.3 418.935" width="550" height="550"><path fill="#2f304c" d="m542.2 328.3 3 11-4.5 4s12.8 14.2 15.2 33.4c-2.9.8-5.8.7-8.5-.2-2.7-.9-5.1-2.7-6.9-5.1l-.6-.9-7.4-10.4c-.3-.4-.6-.8-1-1.1l-18.1-17.6 28.8-13.1z" class="color2f304c svgShape"></path><path fill="#ffffff" d="m540 370.5-6.6-9c-.9-1.3-2.5-2-4.1-1.8-17.2 2.5-44.8 29.6-59.4 28.5-14.9-1.1-23.3-16.7-27.5-28.5-2.7-7.4-3.7-13.4-3.7-13.4l20.2-10.1 2.2-1.1.7 1.5 9.3 18.1 2.3 4.4 1.7-.6 33.1-14.2c3.3-1.8 5.3-2.9 5.3-2.9s36.4 4.7 26.5 29.1z" class="colorfff svgShape"></path><path fill="#2f304c" d="M471.1 354.6c-1.1.4-2.3.8-3.5 1-2.6.5-5.3.5-8 .6-5.9.4-11.6 1.6-17.2 3.4-2.7-7.4-3.7-13.4-3.7-13.4l20.2-10.1c1 .1 1.9.2 2.9.4l9.3 18.1zM449.4 489.6l-11.4-.1-2.6-5.4s-17.2 8.4-36.3 5.4c0-3 .9-5.8 2.6-8.1 1.6-2.3 4-4.2 6.8-5.2l1-.4 12.7-4.5 22.6-12.9 4.6 31.2z" class="color2f304c svgShape"></path><path fill="#ffffff" d="M444.8 458.3s-14.6 33.7-35.3 17.4l12-4.4c.5-.2.9-.6 1-1.1 2.8-13.3-9.5-37.6-13.8-59.7-2.1-10.8-5.3-33.1-7.5-48.1-1-7.1-1.8-12.5-2-14.5-.1-.5-.1-.8-.1-.8l.6.2 30.2 8.1s.4 7.2 1.1 16.4c.8 12.1 2.1 27.6 3.1 34.8 1.8 13 10.7 51.7 10.7 51.7z" class="colorfff svgShape"></path><path fill="#2f304c" d="M430.9 371.8s0-.1 0 0c-9.5-4.4-19.5-7.5-29.8-9.3-1-7.1-1.8-12.5-2-14.5.2-.2.3-.4.5-.6l30.2 8.1c.1-.1.5 7.1 1.1 16.3z" class="color2f304c svgShape"></path><path fill="#eeecf0" d="M94.7 459.8h228v30.1h-228z" class="coloreeecf0 svgShape"></path><path fill="#ffffff" d="M195.6 322.6h24.2v29.7h-24.2z" class="colorfff svgShape"></path><path fill="#eeecf0" d="M228.5 354.9v17.9H188v-17.9c0-1.4 1.2-2.6 2.6-2.6h35.3c1.5 0 2.6 1.2 2.6 2.6z" class="coloreeecf0 svgShape"></path><path fill="#ffffff" d="M249.3 383.1v16.1h-82v-16.1c0-5.7 4.6-10.3 10.3-10.3H239c5.7.1 10.3 4.7 10.3 10.3z" class="colorfff svgShape"></path><path fill="#ffd857" d="M264 294.4c0 1.4.5 1.8.7 1.9.5.5 2.6 1.9 9.1 1.5 3.5-.2 6.4 2.5 6.6 5.9.2 3.5-2.5 6.4-5.9 6.6-.9.1-1.8.1-2.6.1-6.9 0-12.1-1.6-15.6-4.9-3-2.7-4.6-6.5-4.7-10.8-.2-8 4.7-15.4 12.5-18.9 9.3-4.1 39.7-19.1 39.6-36.8-.2-20.4-30.2-22.5-31.5-22.5-3.5-.2-6.1-3.2-5.9-6.6.2-3.5 3.2-6.1 6.6-5.9 14.9.8 43.1 9.2 43.3 35 .2 23.8-29.4 40.5-47 48.4-3.2 1.3-5.3 4.1-5.2 7zM164 294.7c-.1 4.3-1.7 8.1-4.7 10.8-3.6 3.3-8.7 4.9-15.6 4.9-.9 0-1.7 0-2.6-.1-3.5-.2-6.1-3.1-5.9-6.6.2-3.5 3.1-6.1 6.6-5.9 6.6.4 8.6-1.1 9.1-1.5.2-.2.6-.6.7-1.9.1-2.9-1.9-5.7-5-7.1-17.7-7.9-47.2-24.6-47-48.4.2-25.8 28.4-34.1 43.3-35 3.5-.2 6.4 2.5 6.6 5.9.2 3.5-2.4 6.4-5.9 6.6-1.3.1-31.3 2.1-31.5 22.5-.2 17.7 30.2 32.6 39.6 36.8 7.6 3.6 12.5 11 12.3 19z" class="colorffd857 svgShape"></path><path fill="#ffffff" d="M229 324.2c-12.9 7-28.6 7-41.5 0-31-16.9-46.8-59.4-43.9-129.5H273c2.8 70.1-13 112.6-44 129.5z" class="colorfff svgShape"></path><path fill="#f992c7" d="m210.7 225 6.4 12.9c.4.8 1.1 1.3 2 1.5l14.3 2.1c2.2.3 3.1 3 1.5 4.6l-10.3 10.1c-.6.6-.9 1.5-.8 2.4l2.4 14.2c.4 2.2-1.9 3.8-3.9 2.8l-12.8-6.7c-.8-.4-1.7-.4-2.5 0l-12.8 6.7c-2 1-4.3-.6-3.9-2.8l2.4-14.2c.1-.9-.1-1.8-.8-2.4L181.7 246c-1.6-1.5-.7-4.2 1.5-4.6l14.3-2.1c.9-.1 1.6-.7 2-1.5l6.4-12.9c1-1.9 3.8-1.9 4.8.1z" class="colorf992c7 svgShape"></path><path fill="#cfcbd3" d="M154.3 459.8h108.8v30.1H154.3z" class="colorcfcbd3 svgShape"></path><path fill="#fa5972" d="M157.1 429.7h103.2v30.1H157.1z" class="colorfa5972 svgShape"></path><path fill="#fa5972" d="M157.1 399.6h103.2v30.1H157.1z" class="colorfa5972 svgShape"></path><path fill="#ffffff" d="M115 429.7h187.3v30.1H115z" class="colorfff svgShape"></path><path fill="#eeecf0" d="M139.2 399.6h139.1v30.1H139.2z" class="coloreeecf0 svgShape"></path><path fill="#cfcbd3" d="M170.6 429.7h76.1v30.1h-76.1z" class="colorcfcbd3 svgShape"></path><path fill="#cfcbd3" d="M181.7 399.6h53.9v30.1h-53.9z" class="colorcfcbd3 svgShape"></path><path fill="#eaf0f4" d="M324.3 363.6c-.3 1.2-1.3 2.1-2.4 2.4-2.3.6-4.3-1.2-4.3-3.4 0-1.9 1.5-3.5 3.5-3.5 2.1 0 3.9 2.1 3.2 4.5z" class="coloreaf0f4 svgShape"></path><path fill="#797885" d="M96.9 357.3h-.1c-.1-.1-.2-.2-.2-.4l.8-5c0-.1 0-.2-.1-.2l-4.1-3c-.1-.1-.2-.3-.1-.4.1-.1.2-.2.4-.2l5 .8c.1 0 .2 0 .2-.1l3-4.1c.1-.1.3-.2.4-.1.1.1.2.2.2.4l-.8 5s0 .1.1.2l4.1 3c.1.1.2.3.1.4-.1.2-.2.2-.4.2l-5-.8c-.1 0-.2 0-.2.1l-3 4.1c-.1 0-.2.1-.3.1zm-2.2-8.4 2.9 2.1c.3.2.4.6.3.9l-.6 3.6 2.1-2.9c.2-.3.5-.4.9-.4l3.6.6-2.9-2.1c-.3-.2-.4-.6-.4-.9l.6-3.6-2.1 2.9c-.2.3-.5.4-.9.4l-3.5-.6zM393.8 145.6c-.1 0-.3 0-.4-.1-.2-.2-.2-.5 0-.7l4.2-4.2c.2-.2.5-.2.7 0s.2.5 0 .7l-4.2 4.2c-.1 0-.2.1-.3.1z" class="color797885 svgShape"></path><path fill="#797885" d="M398 145.6c-.1 0-.3 0-.4-.1l-4.2-4.2c-.2-.2-.2-.5 0-.7s.5-.2.7 0l4.2 4.2c.2.2.2.5 0 .7-.1 0-.2.1-.3.1zM62.1 116.8c-.1 0-.3 0-.4-.1-.2-.2-.2-.5 0-.7l6.3-6.3c.2-.2.5-.2.7 0s.2.5 0 .7l-6.3 6.3c-.1.1-.2.1-.3.1z" class="color797885 svgShape"></path><path fill="#797885" d="M68.4 116.8c-.1 0-.3 0-.4-.1l-6.3-6.3c-.2-.2-.2-.5 0-.7s.5-.2.7 0l6.3 6.3c.2.2.2.5 0 .7-.1.1-.2.1-.3.1z" class="color797885 svgShape"></path><path fill="#f992c7" d="M521.5 148.9c-1.9 12.6-13.6 21.4-26.3 19.5l-11.8 6.5 5-8.6c-8.8-4.3-14.2-14-12.7-24.2 1.9-12.6 13.6-21.4 26.3-19.5 12.6 1.9 21.4 13.6 19.5 26.3z" class="colorf992c7 svgShape"></path><path fill="#2b2a44" d="M483.4 175.4c-.1 0-.3-.1-.4-.2-.2-.2-.2-.4-.1-.6l4.7-8.1c-9-4.7-14-14.4-12.5-24.5.9-6.2 4.2-11.8 9.3-15.5 5.1-3.8 11.3-5.3 17.5-4.4 12.9 1.9 21.8 13.9 19.9 26.8-1.9 12.8-13.8 21.8-26.7 20l-11.6 6.4c.1.1 0 .1-.1.1zm15.2-52.5c-4.8 0-9.5 1.5-13.4 4.5-4.9 3.6-8 8.9-8.9 14.9-1.5 9.8 3.5 19.3 12.4 23.7l.3.3c.1.1 0 .3 0 .4l-4.1 7 10.2-5.6c.1-.1.2-.1.3-.1 12.3 1.8 23.9-6.7 25.7-19.1 1.8-12.3-6.7-23.9-19.1-25.7-1.2-.3-2.3-.3-3.4-.3zm22.9 26z" class="color2b2a44 svgShape"></path><path fill="#2b2a44" d="M513.2 145.6c-.1 1.6-1.4 2.8-3 2.8s-2.8-1.3-2.8-2.9c0-1.6 1.4-2.8 3-2.8s2.9 1.3 2.8 2.9zM489.7 145.6c-.1 1.6-1.4 2.8-3 2.8s-2.8-1.3-2.8-2.9c0-1.6 1.4-2.8 3-2.8s2.9 1.3 2.8 2.9zM501.5 145.6c-.1 1.6-1.4 2.8-3 2.8s-2.8-1.3-2.8-2.9c0-1.6 1.4-2.8 3-2.8s2.8 1.3 2.8 2.9z" class="color2b2a44 svgShape"></path><path fill="#ffffff" d="M277.5 189.3v8.9c0 1.2-1 2.2-2.2 2.2H141.5c-1.2 0-2.2-1-2.2-2.2v-8.9c0-1.2 1-2.2 2.2-2.2h133.8c1.3 0 2.2 1 2.2 2.2z" class="colorfff svgShape"></path><path fill="#2f304c" d="M224.5 317c.1.2.3.3.4.3.1 0 .2 0 .2-.1 6.4-3.5 12.1-8.3 17-14.2.2-.2.1-.5-.1-.7-.2-.2-.5-.1-.7.1-4.8 5.8-10.4 10.5-16.7 13.9-.1.1-.2.4-.1.7zM250.6 289c.1 0 .1.1.2.1.2 0 .4-.1.4-.3 10.1-20.1 14.8-48.9 14-85.6 0-.3-.2-.5-.5-.5s-.5.2-.5.5c.8 36.5-3.9 65.2-13.9 85.2-.1.2 0 .5.3.6zM209.3 269.2l12.8 6.7c2.3 1.2 5-.8 4.6-3.3l-2.4-14.2c-.1-.7.1-1.4.6-1.9l10.3-10.1c.9-.9 1.2-2.1.8-3.3-.4-1.2-1.4-2-2.6-2.2l-14.3-2.1c-.7-.1-1.3-.5-1.6-1.2l-6.4-12.9a3.077 3.077 0 0 0-5.6 0l-6.4 12.9c-.3.6-.9 1.1-1.6 1.2l-14.3 2.1c-1.2.2-2.2 1-2.6 2.2-.4 1.1-.1 2.4.8 3.3l10.3 10.1c.5.5.8 1.2.6 1.9l-2.4 14.2c-.2 1.2.3 2.4 1.3 3.1 1 .7 2.2.8 3.3.2l12.8-6.7c.6-.3 1.3-.3 2 0zm-2.5-.9L194 275c-.8.4-1.6.3-2.3-.2-.7-.5-1-1.3-.9-2.1l2.4-14.2c.2-1-.2-2.1-.9-2.8L182 245.6c-.6-.6-.8-1.4-.6-2.2.3-.8.9-1.4 1.8-1.5l14.3-2.1c1-.1 1.9-.8 2.4-1.7l6.4-12.9c.4-.8 1.1-1.2 1.9-1.2.8 0 1.6.5 1.9 1.2l6.4 12.9c.5.9 1.4 1.6 2.4 1.7l14.3 2.1c.8.1 1.5.7 1.8 1.5.3.8.1 1.6-.6 2.2l-10.3 10.1c-.8.7-1.1 1.8-.9 2.8l2.4 14.2c.3 1.8-1.6 3.1-3.2 2.3l-12.8-6.7c-.8-.4-1.9-.4-2.8 0zM123.2 156.6c.2.2.5.2.7 0 .2-.2.2-.5 0-.7l-1.4-1.4c-.2-.2-.5-.2-.7 0-.2.2-.2.5 0 .7l1.4 1.4zM131.8 165.2c.2.2.5.2.7 0 .2-.2.2-.5 0-.7l-2.8-2.9c-.2-.2-.5-.2-.7 0s-.2.5 0 .7l2.8 2.9zM145.2 178.8c.2.2.5.2.7 0 .2-.2.2-.5 0-.7l-2.8-2.9c-.2-.2-.5-.2-.7 0-.2.2-.2.5 0 .7l2.8 2.9zM136.7 170.2c.2.2.5.2.7 0 .2-.2.2-.5 0-.7l-2.8-2.9c-.2-.2-.5-.2-.7 0-.2.2-.2.5 0 .7l2.8 2.9zM148.8 182.4c.2.2.5.2.7 0 .2-.2.2-.5 0-.7l-1.4-1.4c-.2-.2-.5-.2-.7 0-.2.2-.2.5 0 .7l1.4 1.4zM162.8 130.3c.1.3.4.4.7.3.3-.1.4-.4.3-.7l-.7-1.9c-.1-.3-.4-.4-.7-.3-.3.1-.4.4-.3.7l.7 1.9zM167.9 143.1c.1.3.4.4.7.3.3-.1.4-.4.3-.6l-1.6-4c-.1-.3-.4-.4-.6-.3-.3.1-.4.4-.3.6l1.5 4zM165 135.9c.1.3.4.4.6.3.3-.1.4-.4.3-.6l-.6-1.6c-.1-.3-.4-.4-.7-.3-.3.1-.4.4-.3.6l.7 1.6zM172.1 153.4c.1.3.4.4.6.3.3-.1.4-.4.3-.6l-.6-1.6c-.1-.3-.4-.4-.7-.3-.3.1-.4.4-.3.6l.7 1.6zM175 160.6c.1.2.3.4.7.3.3-.1.4-.4.3-.6l-1.6-4c-.1-.3-.4-.4-.7-.3-.3.1-.4.4-.3.7l1.6 3.9zM168.6 144.6l1.3 3.2c.1.3.4.4.6.3.3-.1.4-.4.3-.6l-1.3-3.2c-.1-.3-.4-.4-.6-.3-.3.1-.5.4-.3.6zM175.6 162.2l.7 1.9c.1.3.4.4.7.3.3-.1.4-.4.3-.7l-.7-1.9c-.1-.3-.4-.4-.7-.3-.3.1-.4.4-.3.7zM208.3 121.9c.3 0 .5-.2.5-.5v-2c0-.3-.2-.5-.5-.5s-.5.2-.5.5v2c0 .3.2.5.5.5zM208.3 129.6c.3 0 .5-.2.5-.5v-3.8c0-.3-.2-.5-.5-.5s-.5.2-.5.5v3.8c0 .2.2.5.5.5zM208.3 137.2c.3 0 .5-.2.5-.5v-3.8c0-.3-.2-.5-.5-.5s-.5.2-.5.5v3.8c0 .3.2.5.5.5zM208.3 152.4c.3 0 .5-.2.5-.5v-3.8c0-.3-.2-.5-.5-.5s-.5.2-.5.5v3.8c0 .3.2.5.5.5zM208.3 144.8c.3 0 .5-.2.5-.5v-3.8c0-.3-.2-.5-.5-.5s-.5.2-.5.5v3.8c0 .3.2.5.5.5zM208.3 155.2c-.3 0-.5.2-.5.5v2c0 .3.2.5.5.5s.5-.2.5-.5v-2c0-.2-.3-.5-.5-.5zM253.1 130.6c.3.1.5 0 .7-.3l.7-1.9c.1-.3 0-.5-.3-.7-.3-.1-.5 0-.7.3l-.7 1.9c-.1.3.1.6.3.7zM250.9 136.2c.2.1.5 0 .7-.3l.6-1.6c.1-.3 0-.5-.3-.6-.3-.1-.5 0-.7.3l-.6 1.6c-.1.2 0 .5.3.6zM248 143.3c.2.1.5 0 .7-.3l1.6-4c.1-.3 0-.5-.3-.6-.3-.1-.5 0-.6.3l-1.6 4c-.2.2-.1.5.2.6zM246.1 148.1c.2.1.5 0 .6-.3l1.3-3.2c.1-.3 0-.5-.3-.6-.3-.1-.6 0-.6.3l-1.3 3.2c-.1.2 0 .5.3.6zM243.8 153.7c.3.1.6 0 .6-.3l.7-1.6c.1-.3 0-.5-.3-.6-.3-.1-.6 0-.7.3l-.6 1.6c-.1.2.1.5.3.6zM240.9 160.8c.3.1.6-.1.7-.3l1.6-4c.1-.3 0-.5-.3-.7-.3-.1-.5 0-.7.3l-1.6 4c-.1.3.1.6.3.7zM239.5 164.3c.3.1.5 0 .7-.3l.7-1.9c.1-.3 0-.5-.3-.7-.3-.1-.5 0-.7.3l-.7 1.9c-.1.3.1.6.3.7zM293.3 156.6l1.4-1.4c.2-.2.2-.5 0-.7-.2-.2-.5-.2-.7 0l-1.4 1.4c-.2.2-.2.5 0 .7.2.2.5.2.7 0zM284.8 165.2l2.8-2.9c.2-.2.2-.5 0-.7s-.5-.2-.7 0l-2.8 2.9c-.2.2-.2.5 0 .7.2.2.5.2.7 0zM279.8 170.2l2.8-2.9c.2-.2.2-.5 0-.7-.2-.2-.5-.2-.7 0l-2.8 2.9c-.2.2-.2.5 0 .7.2.2.5.3.7 0zM271.3 178.8l2.8-2.9c.2-.2.2-.5 0-.7-.2-.2-.5-.2-.7 0l-2.8 2.9c-.2.2-.2.5 0 .7.2.2.5.3.7 0zM267.8 182.4l1.4-1.4c.2-.2.2-.5 0-.7s-.5-.2-.7 0l-1.4 1.4c-.2.2-.2.5 0 .7.1.2.5.2.7 0zM56.9 191.9c.1 0 3 1.2 7.4 1.2 7.6 0 19.5-3.3 29-21l.9 4.1c.1.2.3.4.5.4h.1c.3-.1.4-.3.4-.6l-1.2-5.4c0-.2-.1-.3-.3-.4-.2-.1-.3-.1-.5 0l-5.6 2.2c-.3.1-.4.4-.3.7.1.3.4.4.7.3l4.4-1.7c-14.7 27.1-34.3 19.7-35.2 19.3-.3-.1-.5 0-.7.3 0 .2.2.5.4.6z" class="color2f304c svgShape"></path><path fill="#ffffff" d="M509 215.5c3.2 4.5 11.4 4.1 19.3-3.9 6.1-6-4.1-11.8-4.1-11.8s8.2-6.2 6.3-8.2c-2.9-3.1-11.6 5-14.5 7.6 1.7-3.5-.3-4.7-2.1-4.5-2 .2-2.3 4.6-4.2 8.5-1.9 3.9-3.9 7.8-.7 12.3z" class="colorfff svgShape"></path><path fill="#2f304c" d="m521.3 216.6-12.4-11.7 9.2 13.1z" class="color2f304c svgShape"></path><path fill="#ffffff" d="M516 199.3c-.4 1.2-1.2 3.3-2.2 4.2M352 205.1c-3.7 4-11.7 2.4-18.5-6.5-5.2-6.8 5.5-11 5.5-11s-7.3-7.3-5.3-9c3.2-2.7 10.8 6.5 13.4 9.5-1.3-3.7.8-4.6 2.6-4.2 2 .5 1.7 4.8 3.1 8.9 1.3 4.3 2.9 8.3-.8 12.3z" class="colorfff svgShape"></path><path fill="#2f304c" d="m339.7 204.5 13.6-9.8-10.6 11.5z" class="color2f304c svgShape"></path><path fill="#ffffff" d="M347 188.2c.3 1.3.8 3.4 1.7 4.4M403.9 292c-7.5 17.8-8.7 40.4-6.6 65.5 25.7 3.7 50.7-.7 75.2-11.1-7.1-18.7-12.2-38.1-15.8-58.1l-52.8 3.7zM397.2 352.9c25.1 3.6 49.6-.6 73.6-10.9" class="colorfff svgShape"></path><path fill="#2f304c" d="M415.1 354.7c-6 0-12-.4-18-1.3-.3 0-.5-.3-.4-.6 0-.3.3-.5.6-.4 24.1 3.5 48.1-.1 73.4-10.8.3-.1.5 0 .7.3s0 .5-.3.7c-19.2 8.1-37.7 12.1-56 12.1zM458.3 295.9c-41.1 6.5-54.4-3.9-54.4-3.9l52.9-3.8 1.5 7.7z" class="color2f304c svgShape"></path><path fill="#748ce6" d="m508.4 204.2 11.9 13.7c-13.8 14.2-36.8 27.3-63.5 35.4 2.1 11.5 2.1 23.2 0 34.9-15.2 6.7-33.2 7.1-52.9 3.8-4.1-12-5.8-23.8-4.7-35.3-20.8-7.1-39.9-25.9-59-50.9l13.9-11.7c45.1 46.7 99.2 42.7 154.3 10.1z" class="color748ce6 svgShape"></path><path fill="#2f304c" d="M426.8 255.1c-4.3 0-8.3-1.8-12.1-5.3-.2-.2-.2-.5 0-.7.2-.2.5-.2.7 0 6.8 6.4 14.5 6.6 23.5.7.2-.2.5-.1.7.1.2.2.1.5-.1.7-4.5 3-8.7 4.5-12.7 4.5zM469.8 249.1h-14.9c.6 1.1 1.7 2.9 1.9 4.3l13-4.3z" class="color2f304c svgShape"></path><path fill="#2f304c" d="M456.8 253.9c-.1 0-.2 0-.3-.1-.1-.1-.2-.2-.2-.3-.2-1.2-1.1-2.8-1.7-3.9l-.2-.3c-.1-.2-.1-.3 0-.5s.3-.2.4-.2h14.9c.2 0 .5.2.5.4s-.1.5-.3.6l-13 4.3h-.1zm-1.1-4.3c.5.9 1.1 2.1 1.5 3.2l9.5-3.2h-11zM398.9 266.9c-1.1-4.7-2.7-8.8-5.1-12.3 1.3.6 3.6 1.4 5.4 2.1-.3 2.7-.4 6.2-.3 10.2z" class="color2f304c svgShape"></path><path fill="#2f304c" d="M398.9 267.2c-.1 0-.2-.1-.2-.2-1.1-4.7-2.8-8.8-5.1-12.2-.1-.1-.1-.2 0-.3.1-.1.2-.1.3-.1 1.4.6 3.8 1.5 5.4 2.1.1 0 .2.1.2.3-.3 2.5-.4 5.8-.3 10.1 0 .1-.1.2-.3.3zm-4.4-12c1.8 2.7 3.2 5.9 4.1 9.5 0-3.2.1-5.8.3-7.8-1.3-.5-3.1-1.1-4.4-1.7z" class="color2f304c svgShape"></path><path fill="#ffffff" d="M425.9 297.3c1.5 4.4 1 8.8-1 12.2" class="colorfff svgShape"></path><path fill="#2f304c" d="M424.9 309.9c-.1 0-.2 0-.3-.1-.2-.1-.3-.4-.2-.7 2-3.4 2.3-7.5.9-11.8-.1-.3.1-.5.3-.6.3-.1.5.1.6.3 1.5 4.5 1.1 9-1 12.6.1.2-.1.3-.3.3zM490.3 239.3h-.1c-4.2-1.3-6.8-5.6-7.2-9.2 0-.3.2-.5.4-.6.3 0 .5.2.5.4.3 3.2 2.7 7.1 6.5 8.3.3.1.4.4.3.6 0 .4-.2.5-.4.5z" class="color2f304c svgShape"></path><path fill="#ffffff" d="M406.7 286.9h-.1c-.3-.1-.4-.3-.4-.6 0-.2 1.1-4.7 4.2-6.2 1.4-.7 3-.6 4.7.2 1.3.6 2.5.7 3.6.1 3.6-1.8 4.9-9.3 4.9-9.3 0-.3.3-.5.6-.4.3 0 .5.3.4.6-.1.3-1.4 8-5.4 10.1-1.4.7-2.9.7-4.5-.1-1.4-.7-2.7-.7-3.8-.2-2.6 1.3-3.6 5.5-3.6 5.5-.1.2-.3.3-.6.3zM461.8 234.1c-.3 0-.5-.2-.5-.5s.2-.5.5-.5c3.4-.1 6.8-.4 8.8-2.7.4-.4.7-.9 1-1.4.2-.3.4-.7.6-1 1.6-2.3 4.2-3.9 7-4.2.9-.1 1.7-.1 2.6-.1.7 0 1.4 0 2.1-.1 1-.1 2-.3 2.9-.5 1-.2 2-.5 2.8-1 .8-.5 1.4-1.4 1.3-2.2 0-.3.2-.5.5-.5s.5.2.5.5c0 1.1-.6 2.3-1.8 3-1 .6-2.1.9-3.1 1.1-1 .2-2 .5-3 .6-.7.1-1.5.1-2.2.1-.8 0-1.6 0-2.4.1-2.5.3-4.8 1.7-6.3 3.8l-.6.9c-.3.5-.7 1.1-1.1 1.6-2.3 2.6-6.2 2.9-9.6 3zM397.6 233.7c-3.5-.6-7.3-1.5-9.1-4.4-.3-.6-.6-1.1-.8-1.7-.1-.3-.3-.7-.5-1-1.1-2.3-3.3-4-5.7-4.7-.8-.2-1.6-.3-2.4-.4-.7-.1-1.4-.2-2.2-.4-1-.2-2-.6-3-1s-2.1-.8-3-1.6c-1-.9-1.6-2.2-1.3-3.3.1-.3.3-.5.6-.4.3 0 .5.3.4.6-.1.8.3 1.7 1 2.3.7.6 1.7 1 2.7 1.4.9.4 1.9.7 2.8.9.7.2 1.4.3 2.1.3.8.1 1.7.2 2.5.5 2.7.7 5.1 2.7 6.4 5.2.2.3.3.7.5 1.1.2.6.5 1.1.8 1.6 1.6 2.6 5 3.4 8.4 4 .3 0 .5.3.4.6-.1.2-.3.4-.6.4zM444.8 276.4c-.2 0-.4-.1-.5-.3-.1-.2 0-.5.2-.7.8-.4 1.4-1.2 1.8-2.3.3-.9.3-1.9.3-3.2 0-1.4-.2-2.8-.8-4-.2-.3-.4-.7-.6-1-.2-.3-.3-.5-.5-.8-1.6-2.8-1.3-6.6.7-9.1l.3-.3c.3-.3.5-.6.7-1 .1-.3.4-.4.7-.2.3.1.4.4.2.7-.2.5-.5.8-.8 1.2l-.3.3c-1.8 2.2-2 5.5-.6 8 .1.3.3.5.5.7.2.4.5.7.6 1.1.7 1.4.9 3 .9 4.5 0 1.3 0 2.4-.3 3.5-.4 1.3-1.2 2.4-2.3 2.9h-.2zM410.8 260c-.1 0-.2 0-.3-.1-1.5-.9-3.3-2.1-4.2-4-.6-1.3-.6-2.8-.7-4.3v-.6c0-1.4-.2-3.1-1.2-4.1-.8-.9-2.2-1.2-3.3-.8-.3.1-.5 0-.6-.3-.1-.3 0-.5.3-.6 1.5-.5 3.3-.1 4.4 1.1 1.3 1.3 1.5 3.3 1.5 4.8v.7c0 1.3 0 2.7.6 3.9.7 1.6 2.5 2.7 3.8 3.6.2.1.3.5.2.7-.2-.1-.3 0-.5 0z" class="colorfff svgShape"></path><path fill="#797885" d="M338.8 304.3c-.5 0-1-.2-1.4-.6l-4.5-4.5c-.4-.4-.6-.9-.6-1.4s.2-1 .6-1.4l4.5-4.5c.8-.8 2.1-.8 2.9 0l4.5 4.5c.8.8.8 2.1 0 2.9l-4.5 4.5c-.4.3-1 .5-1.5.5zm0-12c-.3 0-.5.1-.7.3l-4.5 4.5c-.2.2-.3.5-.3.7 0 .3.1.5.3.7l4.5 4.5c.2.2.4.3.7.3.3 0 .5-.1.7-.3l4.5-4.5c.4-.4.4-1 0-1.4l-4.5-4.5c-.2-.2-.4-.3-.7-.3zm5.5 6.6z" class="color797885 svgShape"></path><path fill="#2f304c" d="M405.8 195.9s-9.3-5.2-1.8-12.9c8.6-8.8 19.1-9 29.9-7.1 0 0 19.3-10.4 19.2 8.6 0 0 17.4 6.6 9.8 27.1-.4 1.2-1.6 2-2.8 2-1.5 0-2.8-1.2-3-2.7l-.4-3.4c-8.7 12.7-22.1 7.9-22.1 7.9l-28.8-19.5z" class="color2f304c svgShape"></path><path fill="#ffffff" d="M433.2 175.7c2.1.6 4.1 1.8 5.8 3.2 1.7 1.4 3.1 3.2 4.1 5.3.3.5.4 1 .6 1.6.2.5.4 1.1.5 1.6l.3 1.7c0 .6.1 1.1.1 1.7v.8l-.1.8-.2 1.7c-.2 1.1-.5 2.2-.8 3.2.1-1.1.3-2.2.3-3.3V191.6l-.1-.8-.2-1.6-.4-1.6c-.1-.5-.3-1-.5-1.5s-.3-1-.6-1.5c-.9-1.9-2.2-3.6-3.7-5.1l-1.2-1.1c-.4-.3-.8-.7-1.3-1-.7-.6-1.6-1.2-2.6-1.7z" class="colorfff svgShape"></path><path fill="#2f304c" d="M452.1 186.4c-.1 0-.3-.1-.4-.2-.1-.1-.2-.3-.1-.5l3.3-9c.1-.3.4-.4.6-.3.3.1.4.4.3.6l-3 8.1 7.4-2c.3-.1.5.1.6.4.1.3-.1.5-.4.6l-8.4 2.2c.2 0 .2.1.1.1z" class="color2f304c svgShape"></path><path fill="#ffffff" d="M439.5 208.5s-3.5 15.9-1.2 20.7c0 0-2.2 12.6-11.9 12.4-9.8-.2-4.9-11.3-4.9-11.3s.6-6.2-.5-14.9" class="colorfff svgShape"></path><path fill="#ffffff" d="M431.7 222c-2.7 2.5-6.4 4.3-11.5 3.9-15-1-14.1-26.2-12.4-33.7 12-10.4 21.4-10.6 32.9 5.4.9 1.3 4.1.4 4.9 3.6.2.7 1.7 6.9-7 8.4M440.7 200.4s2.7.1 2.5 3.3" class="colorfff svgShape"></path><path fill="#2f304c" d="M443.2 204c-.2 0-.3-.1-.3-.3.2-2.9-2.2-3-2.3-3-.1 0-.2-.1-.2-.3 0-.1.1-.3.3-.2 0 0 2.9.2 2.8 3.6 0 .1-.1.2-.3.2zM441.2 198.1s-3.2 2.7-3 3.9c0 0-6.1-2.7-5.8-10.6 0 0-27.1 8.7-27.2 1.5-.1-7.2 6.4-8.8 7.7-9.1s9.9-1.8 10.3-1.9c.4-.1 8.7-.1 8.9 0 .3.1 7.1 4.4 7.1 4.4l2 11.8z" class="color2f304c svgShape"></path><path fill="#2f304c" d="M556 489.5H449.9c-3-19.9-4.6-31.1-4.7-31.2-2.5-10.9-9.2-40.7-10.8-51.7-1.4-10.1-3.4-38.2-4-48 3.4-.4 6.9-.9 10.3-1.6.3 1 .6 2 1 3 4.5 12.6 13 27.7 28 28.9h.9c7.7 0 18.4-6.8 29.7-14 10.2-6.6 20.8-13.4 28.9-14.5 1.4-.2 2.8.4 3.6 1.6 0 0 0 .1.1.1l.1.1c.4.5 1.9 2.6 7.1 9.8 3.6 5.1 10 7.3 15.9 5.6.2-.1.4-.3.4-.5-2.2-17.5-13-30.9-15-33.3l4.1-3.7c.1-.1.2-.3.1-.5l-3-11c0-.1-.1-.3-.3-.3-.1-.1-.3-.1-.4 0l-28.8 13.1h-.1l-5.2 2.8-32.9 13.8-1.3.4-5-9.8c1.4-.6 2.8-1.1 4.3-1.8.2-.1.4-.4.3-.6-6.8-17.8-12.1-37.3-15.8-58 2-11.7 2-23.3.1-34.6 26.1-8 49.2-20.9 63.3-35.4.2-.2.2-.4 0-.6 2.6-1.1 5.4-3 7.9-5.6 1.6-1.6 2.3-3.3 2-5.1-.5-3.4-4.1-6.1-5.6-7.1 2.2-1.8 7.7-6.4 5.8-8.5-2.8-3.1-9.8 2.7-13.8 6.3.4-2.3-1.1-3.6-3.3-3.4-1.6.2-2.2 2.1-3 4.6-1.3 3.9-1.6 4.1-2 5.1-.2-.2-.4-.2-.6-.1-24.8 14.7-48 22.7-69.7 24.3-1.2-4.5.6-14.7 1.3-18.2 5.3-1.2 7.3-4.9 6.3-8.7-.7-2.9-3.3-2.9-4.4-3.4-2.1-11.6-1.8-11.4-2.2-11.6-6.8-4.4-7.1-4.4-7.2-4.5-.3-.1-8.7-.1-9.2 0-.1 0-9 1.6-10.3 1.9-1.9.4-8.2 2.3-8.1 9.5 0 1.3.8 2.2 2 2.7-.8 7.1-.5 19 4.5 25.7 2.3 3 5.3 4.7 8.9 4.9h.9v1.6c-24.5-2.3-46.8-13.8-66.7-34.3-.2-.2-.5-.2-.7 0l-.2.1c-.7-2-.8-2.3-1.4-5.4-.5-2.5-.9-4.6-2.4-5-2.1-.5-3.7.6-3.6 2.9-3.5-4-9.7-10.7-12.8-8.1-.3.3-.5.7-.5 1.1-.1 2.2 3.8 6.5 5.2 8-1.6.7-5.4 2.8-6.3 6.1-.5 1.8 0 3.6 1.4 5.3 2.1 2.8 4.5 4.9 6.8 6.4l-.1.1c-.2.2-.2.5-.1.7 22.1 28.7 40.3 44.5 58.9 51-1 11.1.6 22.8 4.7 34.9-6.8 16.2-8.9 37.6-6.5 65.6 0 .2.2.4.4.5.9.1 1.9.3 2.8.4 1 6.6 5.3 37.8 8.1 52.3 1.7 8.6 4.5 17.4 7.3 26 4.2 13.1 8.2 25.5 6.6 33.5-.1.3-.3.6-.6.7-9.4 3.4-12 4.4-12.2 4.5.3-.1 7.6-2.8-.9.3-2.9 1-5.3 2.9-7.1 5.4-1.8 2.5-2.7 5.4-2.7 8.4H323v-29.6c0-.3-.2-.5-.5-.5h-19.8v-29.6c0-.3-.2-.5-.5-.5h-23.6v-29.6c0-.3-.2-.5-.5-.5h-28.4v-15.9c0-5.9-4.8-10.8-10.8-10.8h-10V355c0-1.7-1.4-3.1-3.1-3.1h-5.6v-23.6c3.1-.9 6.1-2.1 8.9-3.6 9.4-5.1 17.4-12.6 23.8-22.2.7 1.3 1.6 2.5 2.8 3.5 3.7 3.4 8.9 5 16 5 .9 0 1.8 0 2.7-.1 1.8-.1 3.5-.9 4.7-2.2 1.2-1.3 1.8-3.1 1.7-4.9-.1-1.8-.9-3.5-2.2-4.7-1.3-1.2-3.1-1.8-4.9-1.7-6.5.4-8.4-1.1-8.8-1.4-.1-.1-.4-.4-.5-1.6-.1-2.7 1.8-5.3 4.7-6.6 17.8-7.9 47.5-24.8 47.3-48.8-.2-25.6-27.5-34.2-42.8-35.4 0-.9 0-1.8-.1-2.8h1.7c1.5 0 2.7-1.2 2.7-2.7v-8.9c0-1.5-1.2-2.7-2.7-2.7H141.5c-1.5 0-2.7 1.2-2.7 2.7v8.9c0 1.5 1.2 2.7 2.7 2.7h1.3c0 .9 0 1.8-.1 2.7h-.1c-15.1.8-43.6 9.3-43.8 35.5-.2 24.1 29.6 40.9 47.3 48.8 2.9 1.3 4.8 3.9 4.7 6.6 0 1.2-.4 1.5-.5 1.6-.3.3-2.3 1.7-8.8 1.4-3.7-.2-6.9 2.6-7.1 6.4-.2 3.7 2.7 6.9 6.4 7.1.9.1 1.8.1 2.7.1 8 0 15.7-2.2 19.2-9.4 6.6 10.1 14.7 17.8 24.4 23.1 2.5 1.4 5.1 2.5 7.9 3.3v23.9h-4.5c-1.7 0-3.1 1.4-3.1 3.1v17.4h-10c-5.9 0-10.8 4.8-10.8 10.8v15.9H139c-.3 0-.5.2-.5.5v29.6H115c-.3 0-.5.2-.5.5v29.6H94.7c-.3 0-.5.2-.5.5v29.6H44c-.3 0-.5.2-.5.5s.2.5.5.5h512c.3 0 .5-.2.5-.5s-.2-.4-.5-.4zm-254.2-59.3v29.1h-54.6v-29.1h54.6zm-24.1-30.1v29.1h-41.6v-29.1h41.6zm-31.5 30.1v29.1h-75.1v-29.1h75.1zm-64-1v-29.1h52.9v29.1h-52.9zm133.4-190.3c.2 23.5-29.2 40.1-46.7 47.9-3.3 1.5-5.4 4.5-5.3 7.5 0 1.4.5 2 .8 2.3.7.6 2.9 2 9.5 1.7 1.5-.1 3 .4 4.2 1.5 1.2 1 1.8 2.5 1.9 4 .1 1.5-.4 3-1.5 4.2-1 1.1-2.5 1.8-4 1.9-.9 0-1.8.1-2.6.1-6.8 0-11.8-1.6-15.3-4.8-1.2-1.1-2.1-2.3-2.8-3.7 4.8-7.3 8.7-16 11.8-25.8 10.6-4.9 38.7-19.4 38.5-36.6-.2-18.3-23.6-22.2-30.2-22.9.1-3.8.1-7.6 0-11.6 14.8 1.1 41.4 9.5 41.7 34.3zm-41.9-21.7c6.6.7 29.1 4.4 29.3 21.9.1 16.2-26.1 30.2-37.1 35.3 4.8-15.9 7.4-35 7.8-57.2zm-132.2-17.4c-.9 0-1.7-.8-1.7-1.7v-8.9c0-.9.8-1.7 1.7-1.7h133.8c.9 0 1.7.8 1.7 1.7v8.9c0 .9-.8 1.7-1.7 1.7H141.5zm9.3 75.2c-10.2-4.6-38.5-19-38.4-35.9.2-18.6 25.8-21.6 30.3-22 .5 22.5 3.2 41.8 8.1 57.9zm-7.2 34.9c-.8 0-1.7 0-2.6-.1-3.2-.2-5.6-2.9-5.5-6.1.2-3.1 2.7-5.5 5.8-5.5h.3c6.5.4 8.8-1 9.5-1.6.4-.3.8-.9.8-2.3.1-3.1-2.1-6.1-5.3-7.5-17.5-7.8-46.9-24.4-46.7-47.9.2-25.4 28.1-33.6 42.9-34.5-.1 3.9-.1 7.8 0 11.6-4.5.4-31.2 3.4-31.3 23-.2 17.9 30.2 32.9 39.7 37.2 2.9 9.2 6.6 17.3 11 24.3-3.1 7.2-10.7 9.4-18.6 9.4zm44.1 13.8c-30.8-16.8-45.6-58.2-43.9-122.9h128.8c1.7 64.8-13.1 106.1-43.9 122.9-12.6 6.9-28.3 6.9-41 0zm31.6 4.8v23.3h-23.2v-23.6c4 1.1 8 1.7 12.1 1.7 3.8 0 7.5-.5 11.1-1.4zm-30.8 26.4c0-1.1.9-2.1 2.1-2.1h35.3c1.2 0 2.1.9 2.1 2.1v17.4h-39.5v-17.4zm-20.8 28.2c0-5.4 4.4-9.8 9.8-9.8H239c5.4 0 9.8 4.4 9.8 9.8v15.6h-81v-15.6zm-28 17h41.6v29.1h-41.6v-29.1zm-24.2 30.1h54.6v29.1h-54.6v-29.1zm38.3 59.3H95.2v-29.1h58.6v29.1zm108.8-.1H154.8v-29.1h107.8v29.1zm59.6.1h-58.6v-29.1H322.2v29.1zm219.7-160.6 2.8 10.1-4.3 3.8c-.2.2-.2.5 0 .7.1.1 12.5 14.1 15 32.7-5.3 1.4-11.1-.6-14.4-5.3l-.5-.7c2.3-5.9 2.2-11.1-.4-15.6-5.5-9.4-20-12.7-24.9-13.6l26.7-12.1zm-69 30.4c.1.2.4.3.6.2l1.8-.6 33.2-14.3c.1-.1 4.8-2.7 5.1-2.8.2 0 .7.1 1.4.2 4.8.9 19.1 4.2 24.3 13.2 2.4 4 2.6 8.8.6 14.1l-6.1-8.3c-.6-.9-1.5-1.5-2.5-1.8-.7-.2-1.4-.3-2.1-.2-8.3 1.2-19 8-29.3 14.6-11.1 7.1-22.5 14.4-30 13.9-14.4-1.1-22.7-15.9-27.1-28.2-.4-1-.7-1.9-1-2.8 8.5-1.7 17-4.3 25.7-7.7l5.4 10.5zm-15.2-63.6c-32.3 5-47.3-.5-52-2.9 7.4 1.2 14.3 1.8 20.7 1.8 11.4 0 21.3-1.9 30-5.6.5 2.2.9 4.5 1.3 6.7zm62.3-78.9-5.1-5.9 5.9 5.5c-.2.2-.5.3-.8.4zm-8.3-17.7c.7-2.1 1.2-3.8 2.2-3.9.7-.1 1.6.1 2 .7.5.7.3 1.7-.3 3.1-.1.3-1 3-2.1 4-.2.2-.2.5 0 .7.1.1.2.2.4.2.1 0 .3 0 .3-.1.8-.7 1.5-2.2 2.3-4.3 2.7-2.4 11.3-10.2 13.7-7.5.1.1.2.2.1.5-.2 1.9-4.7 5.7-6.4 7-.1.1-.2.3-.2.4 0 .2.1.3.3.4.1 0 5.2 3 5.8 6.7.2 1.5-.4 2.9-1.7 4.3-2.1 2.1-4.4 3.8-6.6 4.9l-9.6-9-2.2-2.5c.8-2.1 1.1-2.7 2-5.6zm-106-6.1c-.1-6.3 5.1-8.1 7.4-8.6 1.2-.3 10.1-1.8 10.2-1.8.5-.1 7.9-.1 8.7 0 .6.3 4.3 2.7 6.7 4.2v.2c.1.6.5 2.9 1.9 11-1 .8-2.4 2.2-2.9 3.4-1.5-.9-5.2-3.7-5-9.8 0-.2-.1-.3-.2-.4-.1-.1-.2-.1-.3-.1h-.2c-4.8 1.6-20.9 6-25.3 3.7 0-.2-1-1-1-1.8zm16.2 37.5v-.1s.1-1.5.2-3.9c3.8-.1 7.1-1.5 9.9-4.1.2-.2.2-.5 0-.7-.2-.2-.5-.2-.7 0-3 2.8-6.8 4.1-11.1 3.8-3.4-.2-6.1-1.7-8.2-4.5-4.6-6.1-5.1-17.5-4.4-24.8 6.3 1.5 20.8-2.8 24.1-3.9.1 7.6 6.1 10.3 6.1 10.3h.2c.1 0 .2 0 .3-.1.2-.1.2-.3.2-.5-.1-.6 1.3-2.1 2.7-3.3 1.4.5 3.2.5 3.8 2.7.3 1.3.9 5.8-5.1 7.4-.1 0-.8.2-1.5.3-.6.1-.5 1 .1 1h.1c-.8 4.2-2.7 15.1-.9 19.2-.3 1.4-2.7 12-11.4 11.9-2.3 0-4-.7-4.8-2.1-1.9-3.1.4-8.6.4-8.6zm-82.1-26.4c-2.1-1.4-4.1-3.3-6-5.7-1.2-1.5-1.6-3-1.2-4.5 1-3.5 6.4-5.7 6.4-5.7.2-.1.3-.2.3-.4s0-.3-.1-.5c-1.6-1.5-5.6-6-5.5-7.8 0-.3.1-.4.2-.4.3-.3.7-.4 1.1-.4 3.1 0 9 6.8 11.1 9.2l.4.5c.5 2.1 1.1 3.7 1.7 4.5.1.1.3.2.4.2.1 0 .2 0 .3-.1.2-.2.3-.5.1-.7-.6-.7-1.1-2.2-1.6-4.2-1-3 .2-3.9 2-3.5.9.2 1.3 2.1 1.7 4.2.6 3.3.8 3.5 1.5 5.9l-2.4 2-10.4 7.4zm.5.3 5.3-3.8-4.9 4.1c-.1-.1-.3-.2-.4-.3zm59.4 52.4c0-.2-.1-.4-.3-.5-9-3.1-17.9-8.3-27.2-16.2 4.1-1.2 6.9-4.8 8.4-10.8.1-.3-.1-.5-.4-.6-.3-.1-.5.1-.6.4-1.4 6-4.2 9.3-8.3 10.2-9.5-8.2-19.5-19.2-30.4-33.4 7-5.9 13.3-11.2 13.2-11.1 20 20.5 42.4 31.9 67 34.3 0 .6-.1 1-.1 1.1-.3.7-2.4 6.1-.3 9.4 1.1 1.6 3 2.5 5.7 2.5h.2c9.9 0 12.2-12.7 12.2-12.9v-.2c21.6-1.6 44.8-9.7 69.5-24.2.2.2 2.7 3.1 11.3 13-16.5 16.6-40.6 28.2-63 34.9-.2.1-.4.3-.3.6 2 11.2 2 22.8.1 34.4v.1c-.1 0-.2.1-.4.2-15.9 7-34.6 6.4-51.7 3.5-3.8-11.2-5.8-22.8-4.6-34.7zm-1.9 100.3c-2.3-27.5-.2-48.6 6.4-64.5h.1c2.2 1.3 10.7 5.7 29.3 5.7 6.7 0 14.7-.6 24.2-2 3.5 17.7 8.3 34.4 14.1 49.9-24 10.1-48.4 14.5-74.1 10.9zm23.9 114.7c.7-.2 1.1-.8 1.3-1.4v-.1c1.7-8.3-2.3-20.7-6.6-33.9-2.7-8.5-5.6-17.3-7.2-25.9-2.3-12-6.5-40.8-8-52 4.8.6 9.7.8 14.5.8 4.6 0 9.3-.3 13.9-.8.7 10.4 2.5 37.7 4 48.1 1.9 12.9 10.7 51.5 10.7 51.6-3.6 8-11.1 18.7-20 21-4.6 1.2-9.2 0-13.8-3.3l11.2-4.1zM399.6 489c.1-2.7.9-5.2 2.5-7.4 2.9-4.1 7-5.1 7.3-5.3 3.8 2.9 7.6 4.4 11.4 4.4 10.5 0 19.1-11.2 23.7-20.7l4.3 29.1-10.5-.1-2.5-5.1-.3-.3h-.4c-.1.1-10.5 5-23.9 5.9h-7.5c-1.3-.1-2.7-.3-4.1-.5zm35.6-4.3 2.3 4.8h-18.2c8.2-1.5 14.2-4.1 15.9-4.8z" class="color2f304c svgShape"></path><path fill="#fcad88" d="M425 210.6c-.8.4-1.6.3-1.9-.3-.3-.6 0-1.4.8-1.8.7-.4 1.6-.3 1.9.3.3.6 0 1.4-.8 1.8zM410.7 211.5c.7.5 1.6.5 2-.1.4-.5.1-1.4-.6-1.9s-1.6-.5-2 .1c-.3.5-.1 1.4.6 1.9z" opacity=".5" class="colorfcad88 svgShape"></path><path fill="#ffffff" d="M419.9 200.7c1.7-1.6 3.7-.5 5 .8" class="colorfff svgShape"></path><path fill="#2f304c" d="M424.9 201.9c-.1 0-.2 0-.3-.1-.6-.6-2.8-2.5-4.5-.8-.1.1-.4.1-.5 0-.1-.1-.1-.4 0-.5 1.8-1.7 4-.7 5.6.8.1.1.1.4 0 .5-.1.1-.2.1-.3.1z" class="color2f304c svgShape"></path><ellipse cx="421.9" cy="203.9" fill="#2f304c" rx="1.6" ry="1.4" transform="rotate(-86.839 421.9 203.906) scale(1.00002)" class="color2f304c svgShape"></ellipse><path fill="#ffffff" d="M410.5 200.2c1.7-1.6 3.7-.5 5 .8" class="colorfff svgShape"></path><path fill="#2f304c" d="M415.6 201.4c-.1 0-.2 0-.3-.1-.6-.6-2.8-2.5-4.5-.8-.1.1-.4.1-.5 0-.1-.1-.1-.4 0-.5 1.8-1.7 4-.7 5.6.8.1.1.1.4 0 .5-.1.1-.2.1-.3.1z" class="color2f304c svgShape"></path><ellipse cx="412.6" cy="203.4" fill="#2f304c" rx="1.6" ry="1.4" transform="rotate(-86.839 412.577 203.391) scale(1.00002)" class="color2f304c svgShape"></ellipse><path fill="#ffffff" d="M420.5 218.9c-1.9.5-3.9-.5-4.9-2.4 2.6 0 5.1-.6 7.6-1.9.3 2.2-.8 3.9-2.7 4.3z" class="colorfff svgShape"></path><path fill="#2f304c" d="M419.5 219.4c-1.7 0-3.4-1-4.3-2.7-.1-.1-.1-.3 0-.4s.2-.2.3-.2c2.6 0 5.1-.6 7.4-1.8.1-.1.2-.1.3 0 .1.1.2.1.2.3.4 2.3-.7 4.2-2.9 4.7-.3.1-.6.1-1 .1zm-3.3-2.5c1 1.4 2.6 2.1 4.2 1.7 1.6-.4 2.5-1.7 2.4-3.4-2.1 1-4.3 1.6-6.6 1.7zM421.5 221.8h-.7c-.2 0-.3-.2-.3-.4s.2-.3.4-.3c1.4.2 2.6-.3 3.1-1.4.1-.2.3-.3.5-.2.2.1.3.3.2.5-.6 1.1-1.8 1.8-3.2 1.8zM416.2 212.9c-.2 0-.5-.1-.7-.2-.5-.2-.8-.6-1-1.1-.2-.7-.1-1.5.3-2.4.2-.4.5-.8.7-1.1.2-.2.3-.5.5-.7.8-1.4 1.2-3 1-4.6 0-.2.1-.4.3-.4.2 0 .4.1.4.3.3 1.8-.1 3.6-1.1 5.1-.2.3-.3.5-.5.7-.2.4-.5.7-.7 1-.2.4-.5 1.1-.3 1.8.1.3.3.5.6.7.1.1.4.1.6 0 .2-.1.4 0 .5.2.1.2 0 .4-.2.5 0 .1-.2.2-.4.2z" class="color2f304c svgShape"></path></svg></g></svg>