<?xml version="1.0" encoding="utf-8"?>
<!-- Generator: Adobe Illustrator 25.4.1, SVG Export Plug-In . SVG Version: 6.00 Build 0)  -->
<svg version="1.1" id="SvgjsSvg1068" xmlns:svgjs="http://svgjs.com/svgjs"
	 xmlns="http://www.w3.org/2000/svg" xmlns:xlink="http://www.w3.org/1999/xlink" x="0px" y="0px" viewBox="0 0 550 550"
	 style="enable-background:new 0 0 550 550;" xml:space="preserve">
<style type="text/css">
	.st0{fill:#FFFFFF;}
	.st1{fill:#2F304C;}
	.st2{fill:#797885;}
	.st3{fill:#EEECF0;}
	.st4{fill:#FFD857;}
	.st5{fill:#EAF0F4;}
	.st6{fill:#F992C7;}
	.st7{fill:#FCFAFC;}
	.st8{fill:#2B2A46;}
	.st9{fill:#748CE6;}
	.st10{opacity:0.5;fill:#FCAD88;enable-background:new    ;}
	.st11{fill:#FFFEFD;}
	.st12{font-family:'MyriadPro-Regular';}
	.st13{font-size:38.0178px;}
</style>
<g id="SvgjsG1070">
	<path class="st0" d="M503.8,445.7v10.8H482v-9.8h0.5c2.5,0.2,6.3,0.3,11,0c4.4-0.2,7.6-0.6,9.7-1
		C503.4,445.8,503.6,445.8,503.8,445.7z"/>
	<path class="st1" d="M503.8,445.7c-0.2,0-0.3,0.1-0.5,0.1V456h-20.8v-9.4H482c-0.2,0-0.3,0-0.5-0.1v9.9c0,0.1,0,0.3,0.1,0.4
		s0.2,0.1,0.4,0.1h21.7c0.3,0,0.5-0.2,0.5-0.5v-10.9C504,445.7,503.8,445.7,503.8,445.7z"/>
	<path class="st1" d="M523,467.5c0,0.8-0.6,1.4-1.4,1.4h-40c-0.8,0-1.5-0.7-1.4-1.6l0.6-5l0.1-1l0.8-6.3c8.4,1.5,16.1,2.1,21.7-1.2
		c0,0,8.4,4.6,13.7,7.5c1.2,0.7,2.2,1.3,3,1.8C522.5,464.2,523,465.9,523,467.5L523,467.5z"/>
	<path class="st1" d="M489.6,469.1h-8c-0.5,0-0.9-0.2-1.2-0.6c-0.3-0.4-0.5-0.8-0.4-1.3l1.6-12.3c0-0.1,0-0.1,0.1-0.2
		c0.1,0,0.1-0.1,0.2,0c7.8,1.4,15.9,2.2,21.6-1.1h0.2c0.1,0,8.5,4.6,13.7,7.5l0.9,0.5c0.8,0.5,1.6,0.9,2.1,1.2
		c1.8,1.1,2.7,2.6,2.6,4.7c0,0.9-0.7,1.6-1.7,1.6H489.6z M481.7,468.6h40c0.6,0,1.1-0.5,1.2-1.1c0-1.9-0.8-3.2-2.4-4.2
		c-0.6-0.3-1.3-0.8-2.1-1.2l-0.9-0.5c-4.9-2.7-12.6-6.8-13.5-7.4c-5.8,3.3-13.8,2.5-21.5,1.2l-1.6,12.1c0,0.3,0.1,0.7,0.3,0.9
		C481,468.4,481.4,468.6,481.7,468.6L481.7,468.6z"/>
	<path class="st0" d="M512,464L512,464c-0.3-0.1-0.4-0.3-0.3-0.5c0.8-1.8,1.9-2.8,3.6-3.4c0.2-0.1,0.4,0,0.4,0.2
		c0.1,0.2,0,0.4-0.2,0.4c-1.5,0.5-2.5,1.5-3.1,3C512.2,463.9,512.1,464,512,464z M508.3,462L508.3,462c-0.3-0.1-0.4-0.3-0.3-0.5
		c0.8-1.8,1.9-2.8,3.6-3.4c0.2-0.1,0.4,0,0.4,0.2c0.1,0.2,0,0.4-0.2,0.4c-1.5,0.5-2.5,1.5-3.1,3C508.6,462,508.4,462,508.3,462z
		 M504.7,460.5L504.7,460.5c-0.3-0.1-0.4-0.3-0.3-0.4c0.6-1.9,2-3.3,3.6-3.9c0.2-0.1,0.4,0,0.4,0.2c0.1,0.2,0,0.4-0.2,0.4
		c-1.4,0.5-2.6,1.9-3.2,3.5C505,460.4,504.9,460.5,504.7,460.5L504.7,460.5z"/>
	<path class="st1" d="M503.8,446.3l-2.9,0.9c-5.6,1.5-11.7,2.3-18.7,2.7v-3.2h0.4c2.5,0.2,6.3,0.3,11,0c2.1-0.1,4.1-0.3,5.7-0.4
		c0.6-0.1,1.1-0.1,1.6-0.2L503.8,446.3L503.8,446.3z"/>
	<path class="st1" d="M503.8,446.1l-1.6-0.1c-0.5,0.1-0.9,0.1-1.5,0.2c-0.5,0.1-1,0.1-1.6,0.2l3.1,0.1c-1.1,0.3-2.2,0.6-3.3,0.9
		c-4.9,1.2-10.4,1.9-16.7,2.3v-2.9h-0.5v3.2c0,0.1,0,0.1,0.1,0.2c0,0.1,0.1,0.1,0.2,0.1c8-0.5,14.7-1.6,20.7-3.3
		c0.4-0.1,0.8-0.2,1.1-0.3c0.1,0,0.2-0.2,0.2-0.3C503.9,446.2,503.8,446.1,503.8,446.1L503.8,446.1z"/>
	<path class="st0" d="M491.6,468.7c-0.2,0-0.4-0.1-0.3-0.3c0.2-3.9-3.1-7.3-7.5-7.5c-0.6,0-1.1,0-1.7,0.1c-0.2,0-0.4-0.1-0.4-0.3
		c0-0.2,0.1-0.4,0.3-0.4c0.6-0.1,1.2-0.1,1.9-0.1c4.8,0.3,8.4,4,8.2,8.2C491.9,468.5,491.8,468.7,491.6,468.7z M449.8,445.5
		c-0.2,0-0.5,0.1-0.7,0.1c-2.2,0.2-5.4,0.4-9.5,0.4h-1.3c-4.3,0-7.4-0.3-9.5-0.5c-0.2,0-0.3,0-0.5-0.1v11.2h21.8v-11.2
		C450.1,445.4,450,445.5,449.8,445.5L449.8,445.5z"/>
	<path class="st1" d="M450.3,445.4c-0.2,0-0.4,0.1-0.6,0.1v10.6H429v-10.7c-0.2,0-0.3,0-0.5-0.1c-0.2,0-0.4-0.1-0.5-0.1v11.3
		c0,0.1,0,0.3,0.1,0.4s0.2,0.1,0.4,0.1h21.7c0.3,0,0.5-0.2,0.5-0.5v-11.2C450.6,445.4,450.5,445.4,450.3,445.4z"/>
	<path class="st1" d="M409.3,467.5c0,0.8,0.6,1.4,1.4,1.4h40c0.8,0,1.5-0.7,1.4-1.6l-0.6-5l-0.1-1l-0.8-6.3
		c-8.4,1.5-16.1,2.1-21.7-1.2c0,0-8.4,4.6-13.7,7.5c-1.2,0.7-2.2,1.3-3,1.8C409.7,464.2,409.2,465.9,409.3,467.5L409.3,467.5z"/>
	<path class="st1" d="M442.5,469.1h-32c-0.9,0-1.6-0.7-1.7-1.6c-0.1-2,0.9-3.6,2.6-4.7c0.6-0.3,1.3-0.7,2-1.2l1-0.5
		c5.3-2.9,13.6-7.5,13.7-7.5h0.2c5.8,3.3,13.8,2.4,21.6,1.1h0.2c0.1,0,0.1,0.1,0.1,0.2l1.6,12.3c0.1,0.5-0.1,0.9-0.4,1.3
		c-0.3,0.4-0.8,0.6-1.2,0.6H442.5L442.5,469.1z M428.5,454.2c-1.1,0.6-8.7,4.7-13.5,7.4l-1,0.5c-0.8,0.5-1.6,0.9-2,1.2
		c-1.7,1-2.4,2.3-2.4,4.2c0,0.6,0.5,1.1,1.2,1.1h40c0.3,0,0.6-0.1,0.9-0.4c0.2-0.2,0.3-0.6,0.3-0.9l-1.6-12.1
		C442.3,456.6,434.4,457.4,428.5,454.2L428.5,454.2z"/>
	<path class="st0" d="M420.2,464c-0.1,0-0.3-0.1-0.3-0.2c-0.7-1.6-1.8-2.5-3.1-3c-0.2-0.1-0.3-0.3-0.2-0.4c0.1-0.2,0.3-0.3,0.4-0.2
		c1.7,0.6,2.8,1.7,3.6,3.4c0.1,0.2,0,0.4-0.2,0.5C420.3,464,420.2,464,420.2,464L420.2,464z M423.8,462c-0.1,0-0.3-0.1-0.3-0.2
		c-0.7-1.6-1.8-2.5-3.1-3c-0.2-0.1-0.3-0.3-0.2-0.4c0.1-0.2,0.3-0.3,0.4-0.2c1.7,0.6,2.8,1.7,3.6,3.4c0.1,0.2,0,0.4-0.2,0.5
		C423.9,462,423.9,462,423.8,462L423.8,462z M427.4,460.5c-0.1,0-0.3-0.1-0.3-0.2c-0.6-1.7-1.8-3-3.2-3.5c-0.2-0.1-0.3-0.3-0.2-0.4
		c0.1-0.2,0.3-0.3,0.4-0.2c1.6,0.6,2.9,2,3.6,3.9C427.8,460.3,427.7,460.5,427.4,460.5L427.4,460.5L427.4,460.5z"/>
	<path class="st1" d="M450.2,449.9h-0.4c-7.9-0.5-14.7-1.6-20.8-3.4c-0.1,0-0.3-0.1-0.4-0.1h-0.1h0.5l9.5-0.4h1.2
		c4.1,0,7.3-0.2,9.5-0.4h1v0.9L450.2,449.9L450.2,449.9z"/>
	<path class="st1" d="M450.4,446.4v-1h-0.1c-0.2,0-0.3,0.1-0.5,0.1s-0.5,0.1-0.7,0.1c-2.2,0.2-5.4,0.4-9.5,0.4h-1.2
		c-1.5,0-2.8-0.1-4-0.1l-5.5,0.2h-0.5c-0.1,0-0.2,0.1-0.2,0.2s0,0.2,0.2,0.3c0.2,0.1,0.4,0.1,0.6,0.2c5.9,1.8,12.8,2.9,20.8,3.4h0.4
		c0.1,0,0.1,0,0.2-0.1c0-0.1,0.1-0.1,0.1-0.2L450.4,446.4L450.4,446.4z M449.9,445.8l0.1,0.7l0.1,3.2h-0.2c-7.6-0.5-14-1.5-19.7-3.1
		h-0.1L449.9,445.8L449.9,445.8z"/>
	<path class="st0" d="M440.3,468.4c-0.3-4.3,3.4-8,8.1-8.3c0.6,0,1.2,0,1.9,0.1c0.2,0,0.3,0.2,0.3,0.4s-0.2,0.3-0.4,0.3
		c-0.6-0.1-1.2-0.1-1.7-0.1c-4.4,0.3-7.7,3.6-7.5,7.5l-0.3,0.1H440.3L440.3,468.4z"/>
	<path class="st2" d="M211.8,107.7L211.8,107.7c-0.2-0.1-0.3-0.2-0.3-0.4l0.7-4.4c0-0.1,0-0.1-0.1-0.2l-3.6-2.6
		c-0.1-0.1-0.2-0.3-0.1-0.4c0.1-0.1,0.2-0.2,0.4-0.2l4.4,0.7h0.1l2.6-3.6c0.1-0.1,0.3-0.2,0.4-0.1c0.1,0.1,0.2,0.2,0.2,0.4l-0.7,4.4
		c0,0,0,0.1,0.1,0.2l3.6,2.6c0.1,0.1,0.2,0.3,0.1,0.4c-0.1,0.1-0.2,0.2-0.4,0.2l-4.4-0.7c-0.1,0-0.1,0-0.2,0.1l-2.6,3.6
		C212,107.6,211.9,107.7,211.8,107.7z M210.1,100.4l2.4,1.8c0.3,0.2,0.4,0.6,0.3,0.9l-0.5,3l1.8-2.4c0.2-0.3,0.5-0.4,0.8-0.4l3,0.5
		l-2.4-1.8c-0.3-0.2-0.4-0.5-0.3-0.9l0.5-2.9l-1.8,2.4c-0.2,0.2-0.5,0.4-0.8,0.3L210.1,100.4z M78.5,444.9L78.5,444.9
		c-0.2-0.1-0.3-0.2-0.3-0.4l0.7-4.6c0-0.1,0-0.2-0.1-0.2L75,437c-0.1-0.1-0.2-0.3-0.1-0.4s0.2-0.2,0.4-0.2l4.6,0.7
		c0,0,0.1,0,0.2-0.1l2.7-3.8c0.1-0.1,0.3-0.2,0.4-0.1s0.2,0.2,0.2,0.4l-0.8,4.6c0,0.1,0,0.1,0.1,0.2l3.8,2.7
		c0.1,0.1,0.2,0.3,0.1,0.4s-0.2,0.2-0.4,0.2l-4.6-0.8c-0.1,0-0.1,0-0.2,0.1l-2.7,3.8C78.7,444.9,78.6,444.9,78.5,444.9L78.5,444.9z
		 M76.6,437.3l2.6,1.9c0.3,0.2,0.4,0.6,0.3,0.9l-0.5,3.2l1.9-2.6c0.2-0.3,0.5-0.4,0.9-0.4l3.2,0.5l-2.6-1.9
		c-0.3-0.2-0.4-0.5-0.4-0.9l0.5-3.2l-1.9,2.6c-0.2,0.3-0.5,0.4-0.8,0.4L76.6,437.3z"/>
	<path class="st3" d="M71.4,351.5c10.7,15.9,19.2,33.9,7.9,56.6c-25,3.7-39.7-9.8-51.5-25c5.5-4,6.8-11.4,3-16.6l23.8-17.3
		C58.4,354.5,65.9,355.5,71.4,351.5z"/>
	<path class="st0" d="M74.5,347.2c10.7,15.9,19.2,33.9,7.9,56.6c-25,3.7-39.7-9.8-51.5-25c5.5-4,6.8-11.4,3-16.6l23.8-17.3
		C61.5,350.2,69.1,351.2,74.5,347.2z"/>
	<path class="st1" d="M74.2,404.9c-20.4,0-33-12.3-43.6-25.8c-0.1-0.1-0.1-0.2-0.1-0.4s0.1-0.3,0.2-0.3c5.3-3.8,6.5-10.9,2.9-15.9
		c-0.2-0.2-0.1-0.5,0.1-0.7l23.8-17.3c0.2-0.2,0.5-0.1,0.7,0.1c3.6,5,10.7,5.9,16,2.1c0.1-0.1,0.3-0.1,0.4-0.1
		c0.1,0,0.3,0.1,0.4,0.2c10.8,16.1,19.3,34.1,7.9,57.1c-0.1,0.1-0.2,0.2-0.4,0.3C79.6,404.7,76.9,404.9,74.2,404.9L74.2,404.9z
		 M31.6,378.9c11.6,14.8,25.8,28,50.4,24.5c10.9-22.3,2.8-39.9-7.7-55.5c-5.5,3.7-12.8,2.7-16.7-2.2l-23,16.8
		C38.3,367.7,36.9,374.9,31.6,378.9L31.6,378.9z"/>
	<path class="st4" d="M70.9,364.7c5.2,5.7,4.8,14.3-0.9,19.5c-5.7,5.2-14.3,4.8-19.5-0.9c-5.2-5.7-4.8-14.3,0.9-19.5
		C57,358.6,65.7,359,70.9,364.7z"/>
	<path class="st1" d="M60.7,388.3H60c-3.8-0.2-7.3-1.9-9.9-4.6c-2.5-2.8-3.9-6.4-3.7-10.2c0.2-3.8,1.9-7.3,4.6-9.9
		c2.8-2.5,6.4-3.9,10.2-3.7s7.3,1.9,9.9,4.6c5.4,5.8,4.9,14.8-0.9,20.2C67.7,386.9,64.3,388.3,60.7,388.3z M60.7,360.7
		c-3.3,0-6.5,1.3-9,3.5c-2.6,2.4-4.2,5.7-4.3,9.3c-0.2,3.5,1.1,6.9,3.5,9.6c2.4,2.6,5.7,4.2,9.3,4.3c3.5,0.2,6.9-1.1,9.6-3.5
		c5.4-5,5.8-13.4,0.9-18.8c-2.4-2.6-5.7-4.2-9.3-4.3C61.4,360.7,60.7,360.7,60.7,360.7z"/>
	<path class="st1" d="M61.7,379.3l-5.4-0.3c-0.3,0-0.5-0.2-0.5-0.5s0.2-0.5,0.5-0.5l4.9,0.2l0.6-11.8c0-0.3,0.2-0.5,0.5-0.5
		s0.5,0.2,0.5,0.5l-0.6,12.3c0,0.1-0.1,0.3-0.2,0.3C62,379.3,61.9,379.3,61.7,379.3z"/>
	<path class="st2" d="M405.4,136.9c-0.1,0-0.2,0-0.2-0.1c-0.1-0.1-0.1-0.4,0-0.5l5.6-5.6c0.1-0.1,0.4-0.1,0.5,0
		c0.1,0.1,0.1,0.4,0,0.5l-5.6,5.6C405.6,136.8,405.5,136.9,405.4,136.9z"/>
	<path class="st2" d="M411.1,136.9c-0.1,0-0.2,0-0.2-0.1l-5.6-5.6c-0.1-0.1-0.1-0.4,0-0.5c0.1-0.1,0.4-0.1,0.5,0l5.6,5.6
		c0.1,0.1,0.1,0.4,0,0.5C411.2,136.8,411.2,136.9,411.1,136.9z"/>
	<path class="st5" d="M332.4,103.9c0,1.9-1.5,3.3-3.3,3.3c-1.9,0-3.3-1.6-3.3-3.3c0-1.9,1.5-3.3,3.3-3.3
		C330.9,100.5,332.4,102.1,332.4,103.9z"/>
	<path class="st6" d="M521.4,104c-3.7-15.8-19.6-25.6-35.4-21.8l2.8,12c9.2-2.1,18.4,3.5,20.6,12.7c0.1,0.2,0.1,0.5,0.1,0.7l12-2.8
		C521.5,104.4,521.5,104.2,521.4,104z"/>
	<path class="st1" d="M509.6,108c-0.1,0-0.2,0-0.3-0.1s-0.2-0.2-0.2-0.3l-0.1-0.3c0-0.1,0-0.3-0.1-0.4c-1-4.3-3.7-8-7.4-10.3
		c-3.8-2.3-8.3-3-12.6-2c-0.1,0-0.3,0-0.4-0.1c-0.1-0.1-0.2-0.2-0.2-0.3l-2.8-12c0-0.1,0-0.3,0.1-0.4s0.2-0.2,0.3-0.2
		c16.1-3.8,32.2,6.2,36,22.2c0,0.1,0.1,0.3,0.1,0.4s0,0.2,0.1,0.3c0.1,0.3-0.1,0.5-0.4,0.6L509.6,108C509.7,108,509.6,108,509.6,108
		L509.6,108z M492.8,93.1c3.2,0,6.4,0.9,9.3,2.6c4,2.4,6.8,6.3,7.9,10.9v0.2l11-2.6v-0.2c-3.6-15.4-18.9-25-34.3-21.6l2.6,11
		C490.5,93.2,491.7,93.1,492.8,93.1L492.8,93.1z"/>
	<path class="st4" d="M509.6,107.5c1.8,9-3.9,17.7-12.9,19.9c-2.7,0.7-5.5,0.6-8-0.1l-5.7,11.1c5.2,1.9,10.8,2.2,16.5,0.9
		c15.6-3.7,25.2-19.1,22-34.7L509.6,107.5L509.6,107.5z"/>
	<path class="st1" d="M492.8,140.6c-3.3,0-6.7-0.6-9.9-1.7c-0.1,0-0.2-0.2-0.3-0.3s0-0.3,0-0.4l5.7-11.1c0.1-0.2,0.3-0.3,0.6-0.3
		c2.6,0.7,5.2,0.7,7.8,0.1c8.7-2,14.2-10.5,12.5-19.3c-0.1-0.3,0.1-0.5,0.4-0.6l12-2.8c0.1,0,0.3,0,0.4,0.1c0.1,0.1,0.2,0.2,0.2,0.3
		c3.3,15.8-6.7,31.6-22.3,35.3C497.4,140.3,495.1,140.6,492.8,140.6L492.8,140.6z M483.8,138.2c5.1,1.7,10.4,1.9,15.7,0.7
		c15-3.5,24.7-18.5,21.7-33.6l-11,2.6c1.6,9.2-4.3,17.8-13.4,20c-2.6,0.6-5.3,0.6-7.9,0L483.8,138.2z"/>
	<path class="st0" d="M476.2,114.6c-2.1-9.2,3.5-18.4,12.8-20.6l-2.8-12c-15.8,3.7-25.6,19.6-21.8,35.4c2.3,10.1,9.7,17.7,18.9,21
		l5.7-11.1C482.7,125.8,477.7,121.1,476.2,114.6L476.2,114.6z"/>
	<path class="st1" d="M483.1,139h-0.2c-9.6-3.4-16.9-11.4-19.2-21.3c-1.9-7.8-0.5-15.8,3.7-22.6c4.2-6.8,10.8-11.5,18.5-13.4
		c0.3-0.1,0.5,0.1,0.6,0.4l2.8,12c0.1,0.3-0.1,0.5-0.4,0.6c-4.3,1-8,3.7-10.3,7.4c-2.3,3.7-3,8.2-2,12.6c1.5,6.1,6.1,10.8,12.2,12.3
		c0.1,0,0.3,0.1,0.3,0.3c0,0.2,0.1,0.3,0,0.4l-5.7,11.1C483.5,138.8,483.3,139,483.1,139L483.1,139z M485.7,82.7
		c-7.3,1.9-13.5,6.4-17.4,12.8c-4.1,6.5-5.4,14.3-3.5,21.8c2.2,9.5,9,17.2,18.1,20.5l5.2-10.2c-6.1-1.8-10.8-6.6-12.4-12.9
		c-1.1-4.6-0.3-9.3,2.1-13.3c2.3-3.9,6-6.6,10.4-7.7L485.7,82.7z"/>
	<path class="st2" d="M56,231.6c-0.1,0-0.3,0-0.4-0.1c-0.2-0.2-0.2-0.5,0-0.7l7.9-7.9c0.2-0.2,0.5-0.2,0.7,0c0.2,0.2,0.2,0.5,0,0.7
		l-7.9,7.9C56.3,231.5,56.1,231.6,56,231.6z"/>
	<path class="st2" d="M63.9,231.6c-0.1,0-0.3,0-0.4-0.1l-7.9-7.9c-0.2-0.2-0.2-0.5,0-0.7c0.2-0.2,0.5-0.2,0.7,0l7.9,7.9
		c0.2,0.2,0.2,0.5,0,0.7C64.2,231.5,64.1,231.6,63.9,231.6z"/>
	<path class="st3" d="M378.1,134.9v19.3H105.4v-19.3c0-4.5,3.6-8,8-8H370C374.5,126.8,378.1,130.4,378.1,134.9z"/>
	<path class="st1" d="M378.1,154.6H105.4c-0.3,0-0.5-0.2-0.5-0.5v-19.3c0-4.7,3.8-8.5,8.5-8.5H370c4.7,0,8.5,3.8,8.5,8.5v19.3
		C378.6,154.4,378.4,154.6,378.1,154.6L378.1,154.6z M105.9,153.7h271.7v-18.8c0-4.2-3.4-7.5-7.5-7.5H113.4c-4.2,0-7.5,3.4-7.5,7.5
		V153.7z"/>
	<path class="st7" d="M113.4,388.1h-8c-4.4,0-8-3.6-8-8V134.9c0-4.5,3.6-8,8-8h8c-4.4,0-8,3.6-8,8v245.2
		C105.4,384.5,109,388.1,113.4,388.1z"/>
	<path class="st1" d="M113.4,388.6h-8c-4.7,0-8.5-3.8-8.5-8.5V134.9c0-4.7,3.8-8.5,8.5-8.5h8c0.3,0,0.5,0.2,0.5,0.5
		c0,0.3-0.2,0.5-0.5,0.5c-4.2,0-7.5,3.4-7.5,7.5v245.2c0,4.2,3.4,7.5,7.5,7.5c0.3,0,0.5,0.2,0.5,0.5S113.7,388.6,113.4,388.6z
		 M105.4,127.3c-4.2,0-7.5,3.4-7.5,7.5V380c0,4.2,3.4,7.5,7.5,7.5h4.1c-2.7-1.5-4.6-4.3-4.6-7.5V134.9c0-3.3,1.9-6.1,4.6-7.5
		L105.4,127.3L105.4,127.3z"/>
	<path class="st8" d="M125.3,140.1c0,2.9-2.3,5.3-5.3,5.3c-2.9,0-5.3-2.3-5.3-5.3s2.3-5.3,5.3-5.3
		C123,134.9,125.3,137.2,125.3,140.1z"/>
	<path class="st0" d="M378.1,154.2V380c0,4.4-3.6,8-8,8H113.5c-4.4,0-8-3.6-8-8V154.2H378.1L378.1,154.2z"/>
	<path class="st1" d="M378.1,153.7H105.5c-0.3,0-0.5,0.2-0.5,0.5V380c0,4.7,3.8,8.6,8.6,8.6h256.5c4.7,0,8.5-3.8,8.5-8.6V239
		c-0.3-0.2-0.7-0.4-1-0.6V380c0,4.2-3.4,7.6-7.5,7.6H113.5c-4.2,0-7.6-3.4-7.6-7.6V154.6h271.6v60.6c0.3,0.2,0.7,0.4,1,0.7v-61.8
		C378.6,153.9,378.4,153.7,378.1,153.7L378.1,153.7z"/>
	<path class="st8" d="M145.4,140.1c0,2.9-2.3,5.3-5.3,5.3s-5.3-2.3-5.3-5.3s2.3-5.3,5.3-5.3S145.4,137.2,145.4,140.1z"/>
	<path class="st0" d="M165.4,140.1c0,2.9-2.3,5.3-5.3,5.3c-2.9,0-5.3-2.3-5.3-5.3s2.3-5.3,5.3-5.3
		C163,134.9,165.4,137.2,165.4,140.1z"/>
	<path class="st1" d="M160.1,145.9c-3.2,0-5.8-2.6-5.8-5.8c0-3.2,2.6-5.8,5.8-5.8c3.2,0,5.8,2.6,5.8,5.8
		C165.8,143.2,163.3,145.9,160.1,145.9z M160.1,135.3c-2.6,0-4.8,2.1-4.8,4.8s2.1,4.8,4.8,4.8s4.8-2.1,4.8-4.8
		S162.7,135.3,160.1,135.3z"/>
	<path class="st0" d="M368.2,140.1c0,2.9-2.3,5.2-5.2,5.2H262.6c-2.9,0-5.2-2.3-5.2-5.2c0-1.5,0.6-2.7,1.6-3.7c1-1,2.2-1.6,3.7-1.6
		h100.4C365.8,134.9,368.2,137.2,368.2,140.1L368.2,140.1z"/>
	<path class="st1" d="M362.9,145.8H262.5c-3.1,0-5.7-2.5-5.7-5.7c0-1.6,0.6-2.9,1.7-4c1.1-1.1,2.5-1.7,4-1.7h100.4
		c3.1,0,5.7,2.5,5.7,5.8C368.7,143.2,366.1,145.8,362.9,145.8L362.9,145.8z M262.6,135.3c-1.3,0-2.4,0.5-3.3,1.4
		c-0.9,0.9-1.4,2-1.4,3.3c0,2.6,2.1,4.7,4.7,4.7H363c2.6,0,4.7-2.1,4.7-4.7c0-2.6-2.1-4.8-4.7-4.8L262.6,135.3L262.6,135.3z"/>
	<path class="st0" d="M241.8,318.9c-26.3,0-47.8-21.4-47.8-47.8s21.4-47.8,47.8-47.8s47.8,21.4,47.8,47.8S268.1,318.9,241.8,318.9z"
		/>
	<path class="st1" d="M241.8,319.4c-26.6,0-48.2-21.6-48.2-48.2s21.6-48.2,48.2-48.2c26.6,0,48.2,21.6,48.2,48.2
		S268.4,319.4,241.8,319.4z M241.8,223.8c-26,0-47.3,21.2-47.3,47.3c0,26,21.2,47.3,47.3,47.3s47.3-21.2,47.3-47.3
		C289,245,267.9,223.8,241.8,223.8z"/>
	<path class="st1" d="M197.7,303.8c-0.2,0-0.3-0.1-0.4-0.2c-15.9-21.7-13.5-52.4,5.5-71.4s49.7-21.3,71.4-5.5
		c0.2,0.2,0.3,0.5,0.1,0.7c-0.2,0.2-0.5,0.3-0.7,0.1c-21.3-15.6-51.5-13.4-70.2,5.4s-21.1,48.8-5.4,70.2c0.2,0.2,0.1,0.5-0.1,0.7
		C197.9,303.8,197.8,303.8,197.7,303.8z M241.7,326c-11.4,0-22.8-3.5-32.5-10.5c-0.2-0.2-0.3-0.5-0.1-0.7s0.5-0.3,0.7-0.1
		c21.3,15.6,51.5,13.4,70.2-5.4c18.7-18.7,21-48.8,5.4-70.2c-0.2-0.2-0.1-0.5,0.1-0.7s0.5-0.1,0.7,0.1c15.9,21.7,13.5,52.4-5.5,71.4
		C270,320.5,255.9,326,241.7,326L241.7,326z"/>
	<path class="st1" d="M285.4,244.4c-0.3,0-0.5-0.3-0.5-0.5l0.4-5.2c0-0.1,0.1-0.3,0.2-0.4s0.3-0.1,0.4-0.1l4.8,1.1
		c0.3,0.1,0.4,0.3,0.4,0.6c-0.1,0.3-0.3,0.4-0.6,0.4l-4.2-0.9l-0.3,4.7C285.9,244.2,285.7,244.4,285.4,244.4z M198,303.9L198,303.9
		l-4.9-1.1c-0.3-0.1-0.4-0.3-0.4-0.6c0.1-0.3,0.3-0.4,0.6-0.4l4.2,0.9l0.3-4.7c0-0.3,0.3-0.5,0.5-0.5c0.3,0,0.5,0.3,0.5,0.5
		l-0.4,5.2c0,0.1-0.1,0.3-0.2,0.4C198.2,303.9,198.1,303.9,198,303.9L198,303.9z"/>
	<path class="st9" d="M242.8,302.8c-17.4,0-31.7-14.2-31.7-31.7s14.2-31.7,31.7-31.7s31.7,14.2,31.7,31.7S260.2,302.8,242.8,302.8z"
		/>
	<path class="st1" d="M242.3,303.3c-17.7,0-32.2-14.4-32.2-32.2s14.4-32.2,32.2-32.2s32.2,14.4,32.2,32.2S260,303.3,242.3,303.3z
		 M242.3,239.9c-17.2,0-31.2,13.9-31.2,31.2c0,17.2,14,31.2,31.2,31.2s31.2-14,31.2-31.2C273.5,253.8,259.5,239.9,242.3,239.9z"/>
	<path class="st1" d="M300,227.6c-3.8,0-7.5-1.5-10.4-4.3c-2.7-2.7-4.3-6.4-4.3-10.4s1.6-7.6,4.3-10.4c2.7-2.7,6.4-4.3,10.4-4.3
		c3.9,0,7.6,1.6,10.4,4.3c5.8,5.8,5.8,15,0,20.8C307.5,226.2,303.8,227.6,300,227.6L300,227.6z M290.2,222.7c5.4,5.4,14,5.4,19.4,0
		c5.4-5.4,5.4-14,0-19.4c-2.6-2.6-6-4-9.7-4c-3.7,0-7.1,1.5-9.6,4c-2.6,2.6-4,6-4,9.7S287.7,220,290.2,222.7z"/>
	<path class="st3" d="M329.9,253.5c-2.9-2.9-2.9-7.6,0-10.5c2.9-2.9,7.6-2.9,10.5,0c2.9,2.9,2.9,7.6,0,10.5S332.8,256.4,329.9,253.5
		z"/>
	<path class="st1" d="M335.1,256.1c-2,0-4.1-0.8-5.7-2.3c-1.5-1.5-2.3-3.5-2.3-5.7c0-2.1,0.8-4.1,2.3-5.7c1.5-1.5,3.5-2.3,5.7-2.3
		c2.1,0,4.1,0.8,5.7,2.3c3.1,3.1,3.1,8.2,0,11.2C339.2,255.3,337.2,256.1,335.1,256.1L335.1,256.1z M335.1,241.2c-1.9,0-3.6,0.7-5,2
		s-2,3-2,5c0,1.9,0.7,3.6,2,5c2.7,2.7,7.1,2.7,9.8,0s2.7-7.1,0-9.8C338.7,241.9,337,241.2,335.1,241.2z"/>
	<path class="st3" d="M317.5,195.4c-2.1-2.1-2.1-5.7,0-7.8c2.1-2.1,5.7-2.1,7.8,0c2.1,2.1,2.1,5.7,0,7.8c-2,2.2-5.4,2.3-7.6,0.2
		C317.6,195.5,317.6,195.5,317.5,195.4z"/>
	<path class="st1" d="M321.4,197.5c-1.6,0-3.1-0.6-4.3-1.8s-1.8-2.6-1.8-4.3c0-1.7,0.6-3.1,1.8-4.3c1.2-1.2,2.6-1.8,4.3-1.8
		c1.6,0,3.1,0.6,4.3,1.8c2.3,2.3,2.3,6.1,0,8.5C324.4,196.9,322.9,197.5,321.4,197.5z M321.4,186.5c-1.4,0-2.6,0.5-3.5,1.5
		c-1,1-1.5,2.2-1.5,3.5c0,1.4,0.5,2.6,1.5,3.5c1.9,1.9,5.2,1.9,7.1,0c1.9-1.9,1.9-5.2,0-7.1C323.9,187,322.7,186.5,321.4,186.5
		L321.4,186.5z"/>
	<path class="st3" d="M310,223l19.9,19.9"/>
	<path class="st1" d="M329.9,243.3c-0.1,0-0.3,0-0.4-0.1l-19.9-19.9c-0.2-0.2-0.2-0.5,0-0.7s0.5-0.2,0.7,0l19.9,19.9
		c0.2,0.2,0.2,0.5,0,0.7C330.2,243.3,330,243.3,329.9,243.3L329.9,243.3z"/>
	<path class="st6" d="M259.5,183c2.9,2.9,7.6,2.9,10.5,0s2.9-7.6,0-10.5s-7.6-2.9-10.5,0S256.6,180.1,259.5,183z"/>
	<path class="st1" d="M264.8,185.7c-2.1,0-4.1-0.8-5.7-2.3c-3.1-3.1-3.1-8.2,0-11.2c3.1-3.1,8.2-3.1,11.2,0c1.5,1.5,2.3,3.5,2.3,5.7
		s-0.8,4.1-2.3,5.7C268.9,184.9,266.9,185.7,264.8,185.7L264.8,185.7z M264.8,170.7c-1.8,0-3.6,0.7-5,2c-2.7,2.7-2.7,7.1,0,9.8
		c1.4,1.4,3,2,5,2c1.9,0,3.6-0.7,5-2c1.3-1.3,2-3,2-5c0-1.9-0.7-3.6-2-5C268.3,171.4,266.5,170.7,264.8,170.7z"/>
	<path class="st3" d="M289.9,202.9L270,183"/>
	<path class="st1" d="M289.9,203.4c-0.1,0-0.3,0-0.4-0.1l-19.9-19.9c-0.2-0.2-0.2-0.5,0-0.7c0.2-0.2,0.5-0.2,0.7,0l19.9,19.9
		c0.2,0.2,0.2,0.5,0,0.7C290.1,203.4,290,203.4,289.9,203.4L289.9,203.4z"/>
	<path class="st3" d="M310,202.9l7.5-7.5"/>
	<path class="st1" d="M310,203.4c-0.1,0-0.3,0-0.4-0.1c-0.2-0.2-0.2-0.5,0-0.7l7.5-7.5c0.2-0.2,0.5-0.2,0.7,0s0.2,0.5,0,0.7
		l-7.5,7.5C310.3,203.4,310.1,203.4,310,203.4L310,203.4z"/>
	<path class="st0" d="M193.7,319.2c5.6,5.6,5.6,14.5,0,20.1c-5.6,5.6-14.5,5.6-20.1,0c-5.6-5.6-5.6-14.5,0-20.1
		C179.2,313.6,188.2,313.6,193.7,319.2z"/>
	<path class="st1" d="M183.7,343.9c-3.8,0-7.5-1.5-10.4-4.3c-5.8-5.8-5.8-15,0-20.8c5.8-5.8,15-5.8,20.8,0c5.8,5.8,5.8,15,0,20.8
		C191.2,342.5,187.4,343.9,183.7,343.9z M183.7,315.6c-3.5,0-7,1.4-9.7,4c-5.4,5.4-5.4,14,0,19.4s14,5.4,19.4,0s5.4-14,0-19.4
		C190.7,316.8,187.2,315.6,183.7,315.6z"/>
	<path class="st3" d="M153.8,288.8c2.9,2.9,2.9,7.6,0,10.5c-2.9,2.9-7.6,2.9-10.5,0c-2.9-2.9-2.9-7.6,0-10.5
		C146.1,285.8,150.8,285.8,153.8,288.8z"/>
	<path class="st1" d="M148.5,302c-2,0-4.1-0.8-5.7-2.3c-1.5-1.5-2.3-3.5-2.3-5.7s0.8-4.1,2.3-5.7c3.1-3.1,8.2-3.1,11.2,0
		c3.1,3.1,3.1,8.2,0,11.2C152.5,301.2,150.4,302,148.5,302L148.5,302z M148.5,287.1c-1.8,0-3.6,0.7-5,2c-1.3,1.4-2,3-2,5
		c0,1.9,0.7,3.6,2,5c2.7,2.7,7.1,2.7,9.8,0s2.7-7.1,0-9.8C152,287.8,150.2,287.1,148.5,287.1z"/>
	<path class="st3" d="M166.1,346.7c2.1,2.1,2.1,5.7,0,7.8s-5.7,2.1-7.8,0s-2.1-5.7,0-7.8S164,344.6,166.1,346.7z"/>
	<path class="st1" d="M162.2,356.7c-1.6,0-3.1-0.6-4.3-1.8c-1.2-1.2-1.8-2.6-1.8-4.3c0-1.7,0.6-3.1,1.8-4.3c1.2-1.2,2.6-1.8,4.3-1.8
		c1.6,0,3.1,0.6,4.3,1.8c2.3,2.3,2.3,6.1,0,8.5C165.4,356.1,163.8,356.7,162.2,356.7L162.2,356.7z M162.2,345.7
		c-1.4,0-2.6,0.5-3.5,1.5c-1,1-1.5,2.2-1.5,3.5c0,1.4,0.5,2.6,1.5,3.5c1.9,1.9,5.2,1.9,7.1,0c1.9-1.9,1.9-5.2,0-7.1
		C164.9,346.2,163.6,345.7,162.2,345.7L162.2,345.7z"/>
	<path class="st3" d="M173.6,319.2l-19.9-19.9"/>
	<path class="st1" d="M173.6,319.7c-0.1,0-0.3,0-0.4-0.1l-19.9-19.9c-0.2-0.2-0.2-0.5,0-0.7s0.5-0.2,0.7,0l19.9,19.9
		c0.2,0.2,0.2,0.5,0,0.7C173.8,319.7,173.7,319.7,173.6,319.7z"/>
	<path class="st6" d="M224.1,359.1c-2.9-2.9-7.6-2.9-10.5,0s-2.9,7.6,0,10.5s7.6,2.9,10.5,0C227,366.8,227,362,224.1,359.1z"/>
	<path class="st1" d="M218.9,372.4c-2,0-4.1-0.8-5.7-2.3c-1.5-1.5-2.3-3.5-2.3-5.7s0.8-4.1,2.3-5.7c1.5-1.5,3.5-2.3,5.7-2.3
		s4.1,0.8,5.7,2.3c3.1,3.1,3.1,8.2,0,11.2C223,371.6,220.9,372.4,218.9,372.4L218.9,372.4z M218.9,357.5c-1.9,0-3.6,0.7-5,2
		c-1.3,1.3-2,3-2,5c0,1.9,0.7,3.6,2,5c2.7,2.7,7.1,2.7,9.8,0s2.7-7.1,0-9.8C222.5,358.2,220.7,357.5,218.9,357.5z"/>
	<path class="st3" d="M193.7,339.3l19.9,19.8"/>
	<path class="st1" d="M213.6,359.6c-0.1,0-0.3,0-0.4-0.1l-19.9-19.9c-0.2-0.2-0.2-0.5,0-0.7s0.5-0.2,0.7,0l19.9,19.9
		c0.2,0.2,0.2,0.5,0,0.7C213.8,359.6,213.7,359.6,213.6,359.6z"/>
	<path class="st3" d="M173.6,339.2l-7.5,7.5"/>
	<path class="st1" d="M166.1,347.2c-0.1,0-0.3,0-0.4-0.1c-0.2-0.2-0.2-0.5,0-0.7l7.5-7.5c0.2-0.2,0.5-0.2,0.7,0s0.2,0.5,0,0.7
		l-7.5,7.5C166.4,347.2,166.2,347.2,166.1,347.2z M275.6,237.9c-0.1,0-0.3,0-0.4-0.1c-0.2-0.2-0.2-0.5,0-0.7l14.3-14.3
		c0.2-0.2,0.5-0.2,0.7,0c0.2,0.2,0.2,0.5,0,0.7l-14.3,14.3C275.8,237.8,275.7,237.9,275.6,237.9L275.6,237.9z"/>
	<path class="st3" d="M310,223l19.9,19.9"/>
	<path class="st1" d="M329.9,243.3c-0.1,0-0.3,0-0.4-0.1l-19.9-19.9c-0.2-0.2-0.2-0.5,0-0.7s0.5-0.2,0.7,0l19.9,19.9
		c0.2,0.2,0.2,0.5,0,0.7C330.2,243.3,330,243.3,329.9,243.3L329.9,243.3z"/>
	<path class="st3" d="M289.9,202.9L270,183"/>
	<path class="st1" d="M289.9,203.4c-0.1,0-0.3,0-0.4-0.1l-19.9-19.9c-0.2-0.2-0.2-0.5,0-0.7c0.2-0.2,0.5-0.2,0.7,0l19.9,19.9
		c0.2,0.2,0.2,0.5,0,0.7C290.1,203.4,290,203.4,289.9,203.4L289.9,203.4z"/>
	<path class="st3" d="M310,202.9l7.5-7.5"/>
	<path class="st1" d="M310,203.4c-0.1,0-0.3,0-0.4-0.1c-0.2-0.2-0.2-0.5,0-0.7l7.5-7.5c0.2-0.2,0.5-0.2,0.7,0s0.2,0.5,0,0.7
		l-7.5,7.5C310.3,203.4,310.1,203.4,310,203.4L310,203.4z M193.7,319.7c-0.1,0-0.3,0-0.4-0.1c-0.2-0.2-0.2-0.5,0-0.7l14.3-14.3
		c0.2-0.2,0.5-0.2,0.7,0s0.2,0.5,0,0.7L194,319.6C193.9,319.7,193.8,319.7,193.7,319.7z"/>
	<path class="st3" d="M173.6,319.2l-19.9-19.9"/>
	<path class="st1" d="M173.6,319.7c-0.1,0-0.3,0-0.4-0.1l-19.9-19.9c-0.2-0.2-0.2-0.5,0-0.7s0.5-0.2,0.7,0l19.9,19.9
		c0.2,0.2,0.2,0.5,0,0.7C173.8,319.7,173.7,319.7,173.6,319.7z"/>
	<path class="st3" d="M193.7,339.3l19.9,19.8"/>
	<path class="st1" d="M213.6,359.6c-0.1,0-0.3,0-0.4-0.1l-19.9-19.9c-0.2-0.2-0.2-0.5,0-0.7s0.5-0.2,0.7,0l19.9,19.9
		c0.2,0.2,0.2,0.5,0,0.7C213.8,359.6,213.7,359.6,213.6,359.6z"/>
	<path class="st3" d="M173.6,339.2l-7.5,7.5"/>
	<path class="st1" d="M166.1,347.2c-0.1,0-0.3,0-0.4-0.1c-0.2-0.2-0.2-0.5,0-0.7l7.5-7.5c0.2-0.2,0.5-0.2,0.7,0s0.2,0.5,0,0.7
		l-7.5,7.5C166.4,347.2,166.2,347.2,166.1,347.2z"/>
	<path class="st0" d="M193.7,223c-5.6,5.6-14.5,5.6-20.1,0c-5.6-5.6-5.6-14.5,0-20.1s14.5-5.6,20.1,0
		C199.3,208.4,199.3,217.5,193.7,223z"/>
	<path class="st1" d="M183.7,227.6c-3.9,0-7.6-1.6-10.4-4.3c-2.7-2.7-4.3-6.4-4.3-10.4s1.6-7.6,4.3-10.4c2.7-2.7,6.4-4.3,10.4-4.3
		c3.9,0,7.6,1.6,10.4,4.3c5.8,5.8,5.8,15,0,20.8C191.3,226.1,187.6,227.6,183.7,227.6L183.7,227.6z M183.7,199.3
		c-3.7,0-7.1,1.5-9.7,4s-4,6-4,9.7s1.5,7.1,4,9.7c2.6,2.6,6,4,9.7,4s7.1-1.5,9.7-4c5.4-5.4,5.4-14,0-19.4
		C190.8,200.6,187.3,199.3,183.7,199.3L183.7,199.3z"/>
	<path class="st3" d="M224.1,183c-2.9,2.9-7.6,2.9-10.5,0s-2.9-7.6,0-10.5s7.6-2.9,10.5,0S227,180.1,224.1,183z"/>
	<path class="st1" d="M218.9,185.7c-2,0-4.1-0.8-5.7-2.3c-3.1-3.1-3.1-8.2,0-11.2c1.5-1.5,3.5-2.3,5.7-2.3s4.1,0.8,5.7,2.3
		c3.1,3.1,3.1,8.2,0,11.2C223,185,220.9,185.7,218.9,185.7z M218.9,170.7c-1.9,0-3.6,0.7-5,2c-2.7,2.7-2.7,7.1,0,9.8s7.1,2.7,9.8,0
		s2.7-7.1,0-9.8C222.5,171.5,220.7,170.7,218.9,170.7z"/>
	<path class="st3" d="M166.1,195.4c-2.1,2.1-5.7,2.1-7.8,0c-2.1-2.1-2.1-5.7,0-7.8c2.1-2.1,5.7-2.1,7.8,0
		C168.3,189.8,168.3,193.2,166.1,195.4z"/>
	<path class="st1" d="M162.2,197.5c-1.6,0-3.1-0.6-4.3-1.8c-2.3-2.3-2.3-6.1,0-8.5s6.1-2.3,8.5,0c2.3,2.3,2.3,6.1,0,8.5
		C165.4,196.9,163.8,197.5,162.2,197.5z M162.2,186.5c-1.3,0-2.5,0.5-3.5,1.5c-1.9,1.9-1.9,5.2,0,7.1c1.9,1.9,5.2,1.9,7.1,0
		c1.9-1.9,1.9-5.2,0-7.1C164.8,187,163.5,186.5,162.2,186.5z"/>
	<path class="st3" d="M193.7,202.9l19.9-19.9"/>
	<path class="st1" d="M193.7,203.4c-0.1,0-0.3,0-0.4-0.1c-0.2-0.2-0.2-0.5,0-0.7l19.9-19.9c0.2-0.2,0.5-0.2,0.7,0s0.2,0.5,0,0.7
		L194,203.3C193.9,203.4,193.8,203.4,193.7,203.4z"/>
	<path class="st4" d="M153.8,253.5c2.9-2.9,2.9-7.6,0-10.5c-2.9-2.9-7.6-2.9-10.5,0c-2.9,2.9-2.9,7.6,0,10.5
		C146.1,256.4,150.8,256.4,153.8,253.5z"/>
	<path class="st1" d="M148.5,256.1c-2,0-4.1-0.8-5.7-2.3c-3.1-3.1-3.1-8.2,0-11.2c1.5-1.5,3.5-2.3,5.7-2.3c2.1,0,4.1,0.8,5.7,2.3
		c1.5,1.5,2.3,3.5,2.3,5.7c0,2.1-0.8,4.1-2.3,5.7C152.5,255.3,150.4,256.1,148.5,256.1L148.5,256.1z M148.5,241.2
		c-1.9,0-3.6,0.7-5,2c-2.7,2.7-2.7,7.1,0,9.8c2.7,2.7,7.1,2.7,9.8,0c1.4-1.4,2-3,2-5c0-1.9-0.7-3.6-2-5
		C152.1,241.9,150.3,241.2,148.5,241.2z"/>
	<path class="st3" d="M173.6,223l-19.9,19.9"/>
	<path class="st1" d="M153.8,243.3c-0.1,0-0.3,0-0.4-0.1c-0.2-0.2-0.2-0.5,0-0.7l19.9-19.9c0.2-0.2,0.5-0.2,0.7,0
		c0.2,0.2,0.2,0.5,0,0.7L154,243.2C153.9,243.3,153.8,243.3,153.8,243.3z"/>
	<path class="st3" d="M173.6,202.9l-7.5-7.5"/>
	<path class="st1" d="M173.6,203.4c-0.1,0-0.3,0-0.4-0.1l-7.5-7.5c-0.2-0.2-0.2-0.5,0-0.7s0.5-0.2,0.7,0l7.5,7.5
		c0.2,0.2,0.2,0.5,0,0.7C173.8,203.4,173.7,203.4,173.6,203.4z"/>
	<path class="st0" d="M289.9,319.2c5.6-5.6,14.5-5.6,20.1,0c5.6,5.6,5.6,14.5,0,20.1c-5.6,5.6-14.5,5.6-20.1,0
		C284.4,333.8,284.4,324.7,289.9,319.2z"/>
	<path class="st1" d="M300,343.9c-3.9,0-7.6-1.6-10.4-4.3c-2.7-2.7-4.3-6.4-4.3-10.4c0-4,1.6-7.6,4.3-10.4c2.7-2.7,6.4-4.3,10.4-4.3
		c4,0,7.6,1.6,10.4,4.3c2.7,2.7,4.3,6.4,4.3,10.4c0,4-1.6,7.6-4.3,10.4C307.6,342.4,303.8,343.9,300,343.9z M300,315.6
		c-3.7,0-7.1,1.5-9.7,4c-2.6,2.6-4,6-4,9.7c0,3.7,1.5,7.1,4,9.7c2.6,2.6,6,4,9.6,4c3.7,0,7.1-1.5,9.7-4s4-6,4-9.7
		c0-3.7-1.5-7.1-4-9.7S303.7,315.6,300,315.6z"/>
	<path class="st3" d="M259.5,359.1c2.9-2.9,7.6-2.9,10.5,0s2.9,7.6,0,10.5s-7.6,2.9-10.5,0C256.6,366.8,256.6,362,259.5,359.1z"/>
	<path class="st1" d="M264.8,372.4c-2,0-4.1-0.8-5.7-2.3c-3.1-3.1-3.1-8.2,0-11.2c3.1-3.1,8.2-3.1,11.2,0c3.1,3.1,3.1,8.2,0,11.2
		C268.8,371.6,266.8,372.4,264.8,372.4z M259.8,359.5c-2.7,2.7-2.7,7.1,0,9.8s7.1,2.7,9.8,0s2.7-7.1,0-9.8S262.5,356.8,259.8,359.5z
		"/>
	<path class="st3" d="M317.5,346.7c2.1-2.1,5.7-2.1,7.8,0s2.1,5.7,0,7.8s-5.7,2.1-7.8,0S315.4,348.9,317.5,346.7z"/>
	<path class="st1" d="M321.4,356.7c-1.6,0-3.1-0.6-4.3-1.8c-2.3-2.3-2.3-6.1,0-8.5c2.3-2.3,6.1-2.3,8.5,0c2.3,2.3,2.3,6.1,0,8.5
		C324.5,356,323,356.7,321.4,356.7L321.4,356.7z M317.8,347.1c-1.9,1.9-1.9,5.2,0,7.1c1,1,2.2,1.5,3.5,1.5c1.4,0,2.6-0.5,3.5-1.5
		c1.9-1.9,1.9-5.2,0-7.1C323,345.2,319.7,345.2,317.8,347.1z"/>
	<path class="st3" d="M289.9,339.3L270,359.1"/>
	<path class="st1" d="M270,359.6c-0.1,0-0.3,0-0.4-0.1c-0.2-0.2-0.2-0.5,0-0.7l19.9-19.9c0.2-0.2,0.5-0.2,0.7,0
		c0.2,0.2,0.2,0.5,0,0.7l-19.9,19.9C270.2,359.6,270.1,359.6,270,359.6L270,359.6z"/>
	<path class="st4" d="M329.9,288.8c-2.9,2.9-2.9,7.6,0,10.5s7.6,2.9,10.5,0s2.9-7.6,0-10.5S332.8,285.8,329.9,288.8z"/>
	<path class="st1" d="M335.1,302c-2,0-4.1-0.8-5.7-2.3c-3.1-3.1-3.1-8.2,0-11.2c1.5-1.5,3.5-2.3,5.7-2.3c2.1,0,4.1,0.8,5.7,2.3
		c3.1,3.1,3.1,8.2,0,11.2C339.2,301.2,337.2,302,335.1,302z M335.1,287.1c-1.9,0-3.6,0.7-5,2c-2.7,2.7-2.7,7.1,0,9.8s7.1,2.7,9.8,0
		s2.7-7.1,0-9.8C338.7,287.8,337,287.1,335.1,287.1z"/>
	<path class="st3" d="M310,319.2l19.9-19.9"/>
	<path class="st1" d="M310,319.7c-0.1,0-0.3,0-0.4-0.1c-0.2-0.2-0.2-0.5,0-0.7l19.9-19.9c0.2-0.2,0.5-0.2,0.7,0s0.2,0.5,0,0.7
		l-19.9,19.9C310.3,319.7,310.1,319.7,310,319.7L310,319.7z"/>
	<path class="st3" d="M310,339.2l7.5,7.5"/>
	<path class="st1" d="M317.5,347.2c-0.1,0-0.3,0-0.4-0.1l-7.5-7.5c-0.2-0.2-0.2-0.5,0-0.7s0.5-0.2,0.7,0l7.5,7.5
		c0.2,0.2,0.2,0.5,0,0.7C317.7,347.2,317.6,347.2,317.5,347.2L317.5,347.2z M208,237.9c-0.1,0-0.3,0-0.4-0.1l-14.3-14.4
		c-0.2-0.2-0.2-0.5,0-0.7s0.5-0.2,0.7,0l14.3,14.3c0.2,0.2,0.2,0.5,0,0.7C208.3,237.8,208.1,237.9,208,237.9L208,237.9z"/>
	<path class="st3" d="M193.7,202.9l19.9-19.9"/>
	<path class="st1" d="M193.7,203.4c-0.1,0-0.3,0-0.4-0.1c-0.2-0.2-0.2-0.5,0-0.7l19.9-19.9c0.2-0.2,0.5-0.2,0.7,0s0.2,0.5,0,0.7
		L194,203.3C193.9,203.4,193.8,203.4,193.7,203.4z"/>
	<path class="st3" d="M173.6,223l-19.9,19.9"/>
	<path class="st1" d="M153.8,243.3c-0.1,0-0.3,0-0.4-0.1c-0.2-0.2-0.2-0.5,0-0.7l19.9-19.9c0.2-0.2,0.5-0.2,0.7,0
		c0.2,0.2,0.2,0.5,0,0.7L154,243.2C153.9,243.3,153.8,243.3,153.8,243.3z"/>
	<path class="st3" d="M173.6,202.9l-7.5-7.5"/>
	<path class="st1" d="M173.6,203.4c-0.1,0-0.3,0-0.4-0.1l-7.5-7.5c-0.2-0.2-0.2-0.5,0-0.7s0.5-0.2,0.7,0l7.5,7.5
		c0.2,0.2,0.2,0.5,0,0.7C173.8,203.4,173.7,203.4,173.6,203.4z M289.9,319.7c-0.1,0-0.3,0-0.4-0.1l-14.3-14.3
		c-0.2-0.2-0.2-0.5,0-0.7s0.5-0.2,0.7,0l14.3,14.3c0.2,0.2,0.2,0.5,0,0.7C290.1,319.7,290,319.7,289.9,319.7L289.9,319.7z"/>
	<path class="st3" d="M289.9,339.3L270,359.1"/>
	<path class="st1" d="M270,359.6c-0.1,0-0.3,0-0.4-0.1c-0.2-0.2-0.2-0.5,0-0.7l19.9-19.9c0.2-0.2,0.5-0.2,0.7,0
		c0.2,0.2,0.2,0.5,0,0.7l-19.9,19.9C270.2,359.6,270.1,359.6,270,359.6L270,359.6z"/>
	<path class="st3" d="M310,319.2l19.9-19.9"/>
	<path class="st1" d="M310,319.7c-0.1,0-0.3,0-0.4-0.1c-0.2-0.2-0.2-0.5,0-0.7l19.9-19.9c0.2-0.2,0.5-0.2,0.7,0s0.2,0.5,0,0.7
		l-19.9,19.9C310.3,319.7,310.1,319.7,310,319.7L310,319.7z"/>
	<path class="st3" d="M310,339.2l7.5,7.5"/>
	<path class="st1" d="M317.5,347.2c-0.1,0-0.3,0-0.4-0.1l-7.5-7.5c-0.2-0.2-0.2-0.5,0-0.7s0.5-0.2,0.7,0l7.5,7.5
		c0.2,0.2,0.2,0.5,0,0.7C317.7,347.2,317.6,347.2,317.5,347.2L317.5,347.2z M524.5,469.3h-499c-0.3,0-0.5-0.2-0.5-0.5
		c0-0.3,0.2-0.5,0.5-0.5h499c0.3,0,0.5,0.2,0.5,0.5C525,469.1,524.8,469.3,524.5,469.3z M50.7,155.8c-0.2,0-0.4-0.2-0.5-0.4
		c-0.1-0.4-1.9-9,2.1-19.6c3.8-9.8,13.5-23.3,38.9-31.6c0.3-0.1,0.5,0.1,0.6,0.3c0.1,0.3-0.1,0.5-0.3,0.6c-25,8.2-34.6,21.3-38.3,31
		c-4,10.4-2.1,19-2,19.1C51.3,155.5,51.1,155.7,50.7,155.8L50.7,155.8L50.7,155.8z"/>
	<path class="st1" d="M85.4,114.7c-0.1,0-0.2,0-0.3-0.1c-0.2-0.1-0.3-0.5-0.2-0.7l5.7-9l-9.4-2.2c-0.3-0.1-0.4-0.3-0.4-0.6
		c0-0.3,0.3-0.4,0.6-0.4l10,2.4c0.2,0,0.3,0.1,0.3,0.3c0.1,0.1,0,0.3,0,0.5l-5.9,9.6C85.7,114.6,85.6,114.7,85.4,114.7z"/>
	<path class="st0" d="M366.9,219.4c-2,2.5-5.8,3-10,1.5c-0.1,0-0.1,0-0.2-0.1L355,220c-0.3-0.1-0.6-0.3-0.8-0.4
		c-2.8-1.5-5.9-3.7-9-6.7c-5.7-5.7,5.8-11.9,5.8-11.9s-8.7-7.5-6.5-9.6c3.3-3.2,12.5,6.4,15.6,9.6c-1.7-4,0.6-5.2,2.6-4.8
		c2.2,0.4,2.2,5.3,4.1,9.6c0.3,0.8,0.6,1.5,0.9,2.2C369.2,211.8,370,215.5,366.9,219.4L366.9,219.4z"/>
	<path class="st1" d="M368.2,207.9c-0.1-0.2-0.1-0.4-0.2-0.6c-0.2-0.6-0.5-1.2-0.7-1.8c-0.7-1.6-1.1-3.2-1.5-4.7
		c-0.7-2.7-1.3-5-3-5.3c-1.4-0.2-2.5,0.1-3.2,1c-0.4,0.5-0.7,1.3-0.5,2.6c-4.2-4.2-11.6-11.3-14.9-8.1c-0.3,0.3-0.5,0.8-0.5,1.3
		c0,2.5,4.9,7,6.5,8.6c-1.8,1.1-6.5,4.2-7,7.9c-0.2,1.6,0.3,3,1.7,4.4c3,3,6,5.3,9.1,6.8c0.3,0.2,0.6,0.3,0.9,0.4l0.2,0.1l1,0.4
		l0.8-0.8l-1-0.4l-0.6-0.3c-0.3-0.1-0.5-0.2-0.8-0.4c-2.9-1.5-5.9-3.8-8.9-6.7c-1.1-1.1-1.6-2.2-1.4-3.5c0.6-4,7-7.5,7.1-7.6
		c0.2-0.1,0.2-0.2,0.3-0.4c0-0.2,0-0.3-0.2-0.4c-1.9-1.7-6.6-6.2-6.7-8.3c0-0.3,0.1-0.4,0.2-0.5c0.4-0.4,0.9-0.5,1.4-0.5
		c3.6,0,10.2,6.7,13,9.5l0.6,0.6c0.2,0.2,0.4,0.2,0.6,0.1c0.2-0.1,0.3-0.4,0.2-0.6c-0.7-1.6-0.8-2.8-0.2-3.5
		c0.4-0.6,1.3-0.8,2.2-0.6c1.1,0.2,1.7,2.2,2.2,4.6c0.4,1.5,0.8,3.1,1.5,4.8l0.9,2c0,0.1,0,0.1,0.1,0.2l0.3,0.9l0.7-0.7l0.2,0.2
		C368.4,208.3,368.3,208.1,368.2,207.9L368.2,207.9z"/>
	<path class="st1" d="M367.7,208.1l-10.9,12.8l-0.2-0.1l-1.7-0.7c-0.3-0.1-0.6-0.3-0.8-0.4L367.7,208.1L367.7,208.1z"/>
	<path class="st1" d="M356.8,221.1l-0.3-0.1l-1.7-0.7c-0.3-0.1-0.5-0.2-0.9-0.4c-0.1,0-0.1-0.1-0.1-0.2s0-0.2,0.1-0.2l13.6-11.6
		c0.1-0.1,0.2-0.1,0.3,0c0.1,0.1,0.1,0.2,0,0.3L357,221L356.8,221.1L356.8,221.1L356.8,221.1z M354.5,219.6c0.2,0.1,0.3,0.2,0.5,0.2
		l1.8,0.8l8.8-10.3L354.5,219.6z M362.1,205.3c-0.2,0-0.3-0.1-0.4-0.2c-1-1.4-1.7-2.6-2-4c-0.1-0.3,0-0.5,0.3-0.6
		c0.3-0.1,0.5,0,0.6,0.3c0.4,1.3,1.1,2.4,1.9,3.8c0.2,0.2,0.1,0.5-0.1,0.7L362.1,205.3L362.1,205.3z"/>
	<path class="st3" d="M486.2,283.9L507,444.8c0,2.3-28.2,3.7-28.2,1.3l-15.9-98.8l-9.6,97.6c0,2-27.4,2-27.4,0l4-164.5"/>
	<path class="st1" d="M491.1,317.5l-0.1-1c-0.3,0.1-0.6,0.1-1,0.1l0.1,1l16.5,127.2c-0.2,0.2-1,0.5-2.3,0.8c-0.2,0-0.3,0.1-0.5,0.1
		s-0.3,0.1-0.5,0.1c-0.3,0.1-0.7,0.1-1.1,0.2c-0.5,0.1-0.9,0.1-1.5,0.2c-0.5,0.1-1.1,0.1-1.6,0.2c-1.7,0.2-3.5,0.3-5.7,0.4
		c-4.7,0.2-8.6,0.2-11,0h-1c-1.3-0.2-1.9-0.4-2.1-0.6l-15.9-98.8c0-0.2-0.3-0.4-0.5-0.4c-0.3,0-0.5,0.2-0.5,0.4l-9.6,97.5
		c-0.2,0.2-0.9,0.4-2,0.6c-0.1,0-0.3,0-0.4,0.1h-0.1c-0.2,0-0.3,0.1-0.5,0.1s-0.5,0.1-0.7,0.1c-2.2,0.2-5.4,0.4-9.5,0.4h-1.2
		c-1.5,0-2.8-0.1-4-0.1c-2.3-0.1-4.1-0.3-5.5-0.5c-0.2,0-0.3,0-0.5-0.1c-0.2,0-0.4-0.1-0.5-0.1c-0.9-0.2-1.4-0.3-1.6-0.5l3.2-131.6
		v-1c-0.3-0.1-0.7-0.2-1-0.3v1l-3.2,132c0,0.6,0.5,1,2.5,1.4h0.7c0.1,0,0.3,0,0.4,0.1c0.3,0,0.7,0.1,1.1,0.1h0.1
		c2.5,0.3,5.8,0.4,9.5,0.4c3.5,0,7.3-0.1,10.1-0.5h0.6c0.1,0,0.3,0,0.4-0.1c1.9-0.3,3-0.8,3-1.4l9.3-93.8l15.3,95
		c0,0.8,0.9,1.2,3,1.5h1.1c1.5,0.1,3.2,0.2,5.3,0.2c0.1,0,5.9-0.1,11.2-0.6c0.6-0.1,1.3-0.1,1.9-0.2c0.7-0.1,1.4-0.2,1.9-0.3
		c0.2,0,0.4-0.1,0.5-0.1c0.2,0,0.3-0.1,0.5-0.1s0.3-0.1,0.5-0.1c1.9-0.5,3.3-1,3.3-1.8L491.1,317.5L491.1,317.5z"/>
	<path class="st1" d="M504.8,444.3c0,0.3-0.2,0.5-0.4,0.6h-0.1c-0.3,0-0.5-0.2-0.5-0.4l-17.7-126.6l-0.1-1h1l0.1,1L504.8,444.3z
		 M465.8,299.7v0.3c-0.2,3.4-0.4,6.3-0.6,8.6v1c-0.1,1.4-0.1,2.4-0.2,3v0.3H465c-0.3,0-0.6,0-0.9-0.1c-4.4-0.4-8.6-0.9-12.6-1.7
		c-0.3-0.1-0.7-0.1-1-0.2v-3.1c0-1.6,0-3.5-0.1-5.8v-0.3l1-0.1l13.5-1.8L465.8,299.7L465.8,299.7z"/>
	<path class="st1" d="M464,312.4c-4.4-0.4-8.6-0.9-12.6-1.7c-0.3-0.1-0.7-0.1-1-0.2v0.6c0.3,0.1,0.7,0.1,1,0.2
		c4,0.8,8.1,1.3,12.5,1.7c0.3,0,0.7,0.1,1,0.1v-0.5C464.6,312.5,464.3,312.4,464,312.4z M464.8,300.1l1-0.1v-0.6l-1,0.1
		 M451.3,301.3l-1,0.1v0.6l1-0.1"/>
	<path class="st0" d="M474.2,204.3c-0.1,0.5-0.1,0.9-0.2,1.4c-3.5,24.3-7.6,85.1-8.8,102.7v0.5h-1c-16.4,0.3-36-4-35.2-11.3l23-88.4
		l1.7-6.5v-0.1l0.6-2.2h1.1c0,0.2-0.1,0.3-0.1,0.5c-0.3,1.4-0.6,2.1-0.7,2.2c0,0.1-3.3,7.9-0.7,11.8c1,1.5,2.8,2.2,5.5,2.1
		c4.4-0.1,7.8-1.5,10.1-4.1c3.1-3.4,3.5-8.1,3.5-9.7v-0.5c0.1,0,0.2,0.1,0.3,0.1c0.2,0,0.3,0.1,0.5,0.1l0.2,0.9L474.2,204.3z"/>
	<path class="st1" d="M454.5,200h-0.3c-0.2,0-0.3,0.2-0.4,0.3l-0.2,0.6h0.6c-0.3,1.6-0.7,3.3-1,5.4l1.4-5.4h0.6
		c0-0.2,0.1-0.3,0.1-0.5c0-0.2,0.1-0.3,0.1-0.5C455.2,200,454.8,200,454.5,200L454.5,200z M464.2,308.5c-3.8,0.1-7.9-0.1-11.8-0.6
		c-0.3,0-0.7-0.1-1-0.1s-0.7-0.1-1-0.1v1c0.3,0.1,0.7,0.1,1,0.1s0.6,0.1,0.9,0.1c3.5,0.4,7.1,0.6,10.6,0.6h2.2v-1H464.2L464.2,308.5
		z M474.3,203c0-0.2-0.1-0.3-0.3-0.4l-1.2-0.3c0.1,0.2,0.1,0.4,0.2,0.6v0.5c0.1,0,0.2,0,0.2,0.1h0.1l0.5,2.1v0.2
		c0.1-0.5,0.1-1,0.2-1.4c0-0.2,0.1-0.5,0.1-0.7c0.1,0,0.2,0.1,0.3,0.1L474.3,203L474.3,203z"/>
	<path class="st9" d="M492.2,271.8c-0.2,0-0.3-0.1-0.5-0.1v0.5l1.9,43.6c0,3.3-30,0.7-29.1-2.4c0,0,1.6-25,3.6-52
		c0-0.3,0.1-0.7,0.1-1.1c0.1-1.8,0.3-3.6,0.4-5.4c0.1-1.1,0.2-2,0.3-3.1l0.6-1.5l0.7-1.6l1-2.4l1-2.4l0.9-2c-0.5-0.5-1-1.1-1.5-1.6
		c-0.4-0.4-0.8-0.8-1.1-1.3c-0.2-0.2-0.3-0.4-0.5-0.6c0-0.5,0.1-1,0.1-1.5c1.3-13.9,2.5-26.4,3.8-34c0,0,18.7,6.1,30,18.4
		C516.3,234.8,529,282.2,492.2,271.8L492.2,271.8z"/>
	<path class="st1" d="M468.5,250.7v0.6c0,0.2,0,0.4-0.1,0.6c0,0.4-0.1,0.8-0.1,1.2c-0.1,1.1-0.2,2-0.3,3.1l1.2-2.8
		c0.1-1.1,0.2-2,0.3-3.1v-0.4c0-0.2,0-0.4,0.1-0.6c0-0.2,0-0.4,0.1-0.6L468.5,250.7L468.5,250.7z M504.3,221.1
		c-11-12-29.3-18.2-30.2-18.5c-0.1,0-0.3,0-0.4,0.1c-0.1,0.1-0.2,0.2-0.2,0.3v0.1c0,0.1,0,0.3-0.1,0.4c-0.3,2.1-0.7,4.7-1.1,7.5
		c-0.9,7-1.8,16-2.6,25.6c0,0.5-0.1,1-0.1,1.5c0.3,0.4,0.6,0.8,0.9,1.1c0-0.5,0.1-1,0.1-1.4c1.2-12.6,2.3-24.1,3.4-31.9
		c0.1-0.5,0.1-1,0.2-1.4c0-0.2,0.1-0.5,0.1-0.7c0.1,0,0.2,0.1,0.3,0.1c3.7,1.4,19.3,7.4,29,18c8.5,9.3,16.6,34.1,9.7,45.2
		c-3.7,5.9-10.9,7.3-21.5,4.2h-0.2c-0.1,0-0.2,0-0.2,0.1c-0.1,0.1-0.2,0.3-0.2,0.4v0.3l0.1,2.7v0.3l1.9,40.7c0,0-0.1,0.2-0.4,0.3
		c-0.4,0.2-1.1,0.4-1.9,0.5c-0.3,0.1-0.6,0.1-1,0.1c-0.9,0.1-1.9,0.1-3,0.1h-1c-7.7,0-18.8-1.5-20.9-3.1c-0.2-0.1-0.2-0.2-0.2-0.3
		v-0.8c0-0.7,0.1-1.7,0.2-3v-1c0.1-2.2,0.3-5.2,0.6-8.6v-0.5c0.3-4.6,0.7-10.1,1.1-16.3c0-0.3,0-0.7,0.1-1c0.5-6.4,1-13.5,1.6-20.8
		c0-0.3,0.1-0.7,0.1-1l-0.2-0.1l-0.8-0.4c0,0.4,0,0.7-0.1,1.1c-0.6,7.3-1.1,14.5-1.6,21.2c0,0.3,0,0.7-0.1,1
		c-0.4,6.1-0.8,11.8-1.2,16.5v0.5c-0.2,3.4-0.4,6.2-0.6,8.5v1c-0.1,1.4-0.1,2.3-0.2,2.9v0.7c-0.1,0.3-0.1,0.8,0.5,1.3
		c2.2,1.9,13.5,3.4,21.4,3.4h1.2c1.1,0,2-0.1,3-0.2c0.3,0,0.7-0.1,1-0.1c0.9-0.1,1.7-0.3,2.1-0.5c0.8-0.4,1-0.9,1-1.2l-1.9-43.4
		c10.7,3,18.1,1.4,22-4.9C521.4,255.9,513.3,230.8,504.3,221.1L504.3,221.1z"/>
	<path class="st9" d="M454.9,200.5c0,0-21.2-1-33,9.2c-11.2,9.6-20.8,15.5-28.7,13.5c-7.8-2-25-15.5-25-15.5L355,221.1
		c0,0,29.5,29.6,49,25.7c19.5-3.9,25.6-14.2,25.6-14.2c-2.3,19.3-3.7,46.7-7.5,76.3c-0.5,3.8,28.4,7.8,28.8,3.9
		C451.1,312.9,449.6,223.2,454.9,200.5L454.9,200.5z"/>
	<path class="st1" d="M450.9,240.1c-0.1,2.4-0.1,4.9-0.2,7.3c0.3-0.9,0.7-1.7,1.1-2.4c0-1.5,0.1-3,0.1-4.5
		C451.6,240.4,451.3,240.3,450.9,240.1z M455.3,200.2c-0.1-0.1-0.2-0.2-0.4-0.2h-0.6c-3.7-0.1-22.1,0.1-32.7,9.4
		c-12.8,11-21.4,15.1-28.2,13.5c-3.7-1-9.6-4.6-14.7-8.1c-0.3-0.2-0.7-0.5-1-0.7c-5-3.5-9.1-6.6-9.2-6.7c-0.2-0.1-0.4-0.1-0.5,0
		c0,0-0.1,0-0.1,0.1l-0.6,0.7l-11.5,11.8l-0.8,0.8l-0.3,0.3c-0.2,0.2-0.2,0.5,0,0.7c0.7,0.7,10.8,10.7,22.9,18.1
		c0.3,0.2,0.7,0.4,1,0.6c7.1,4.2,14.8,7.5,21.7,7.5c1.3,0,2.5-0.1,3.8-0.4c15.2-3,22.3-9.8,24.9-13c-0.9,7.9-1.7,17.2-2.5,27
		c-1.2,14.3-2.6,30.6-4.7,47.5c-0.2,1.2,1.4,2.3,4.8,3.3c0.7,0.2,1.4,0.4,2.2,0.6c0.3,0.1,0.7,0.2,1,0.3c2.1,0.5,4.6,0.9,7,1.3
		c3,0.4,5.8,0.6,8.3,0.6h1.6c3.2-0.2,4.9-0.8,5.1-2v-11.7c0-5.2-0.1-11.8-0.1-19.1v-1c0-8.5,0.1-17.8,0.3-27.2v-1.6
		c-0.2-0.3-0.3-0.6-0.3-0.9c-0.3-1.2,0-2.6,0.5-3.9c0-0.9,0-1.7,0.1-2.5c0-1.5,0.1-3,0.1-4.5v-1.1c-0.3-0.1-0.7-0.3-1-0.4v1.1
		c-0.1,2.4-0.1,4.9-0.2,7.3c0,1.7-0.1,3.4-0.1,5.2c-0.2,9.8-0.3,19.8-0.3,28.6v1c0,7.4,0,14.1,0.1,19.3v0.6c0,2.2,0,4.2,0.1,5.8v5.2
		c0,0.1-0.2,0.9-4.2,1.1c-2.5,0.1-5.9-0.1-9.6-0.6c-2.5-0.3-5-0.8-7.1-1.3c-0.3-0.1-0.7-0.2-1-0.3c-0.7-0.2-1.4-0.4-1.9-0.6
		c-4.1-1.3-4.1-2.2-4.1-2.3c2.1-17,3.5-33.1,4.8-47.6c0.9-10.5,1.8-20.6,2.7-28.8c0-0.2-0.1-0.5-0.3-0.5h-0.2
		c-0.2,0-0.3,0.1-0.4,0.2c-0.1,0.1-6.2,10.2-25.3,14c-7.6,1.5-17-2.2-25.3-7.4c-0.3-0.2-0.7-0.4-1-0.6c-10.8-6.7-20-15.5-21.9-17.3
		l0.2-0.2l0.8-0.8l10.9-11.2l0.7-0.7l0.2,0.2c1.4,1.1,5,3.8,9.2,6.6c0.3,0.2,0.7,0.4,1,0.7c5.1,3.4,10.8,6.8,14.5,7.8
		c7.1,1.9,16.1-2.3,29-13.6c10-8.6,27-9.2,31.6-9.1h0.6l-0.3,1.2c-0.3,1.3-0.5,2.6-0.7,4.2c-0.3,2.2-0.6,4.8-0.9,7.5
		c-0.5,5.6-0.9,12-1.3,18.9c0,0.3,0,0.7-0.1,1c0.3,0.1,0.7,0.1,1,0.2v-1c0.3-6.3,0.6-12.2,1.1-17.3c0-0.6,0.1-1.3,0.2-1.9
		c-1.5-4.1,1.2-10.5,1.3-10.6c0,0,0.1-0.3,0.3-0.8c0.1-0.5,0.2-1,0.3-1.4c0-0.1,0.1-0.2,0.1-0.4
		C455.4,200.5,455.4,200.4,455.3,200.2L455.3,200.2z M491.6,274.8l-0.2-0.1l-15.1-9.6l-6-3.9l1.6,0.8l19.4,9l0.2,0.1l0.1,0.3v0.8
		L491.6,274.8z"/>
	<path class="st1" d="M491.7,272.2v-1.1l-0.3-0.1l-0.3-0.1v1.1l0.1,2.4l-13.5-8.6l-6-3.9l-1.7-0.8l-1.6-0.7l-0.2-0.1l0.2,0.1
		l5.9,3.8l16.8,10.7h0.3c0.1-0.1,0.1-0.1,0.1-0.2L491.7,272.2L491.7,272.2z"/>
	<path class="st9" d="M429.7,232.7l1.2-6.9"/>
	<path class="st1" d="M429.7,233.2c-0.4-0.1-0.5-0.3-0.5-0.6l1.2-6.9c0-0.3,0.3-0.5,0.6-0.4c0.3,0,0.5,0.3,0.4,0.6l-1.2,6.9
		C430.2,233,430,233.2,429.7,233.2z M511.8,269.7L511.8,269.7c-5.3-1.3-8.4-4.4-9.3-9.2c0-0.3,0.1-0.5,0.4-0.6
		c0.3,0,0.5,0.1,0.6,0.4c0.8,4.5,3.6,7.2,8.4,8.4c0.3,0.1,0.4,0.3,0.4,0.6C512.2,269.5,512,269.7,511.8,269.7z M398.4,247.6
		c-0.2,0-0.3-0.1-0.4-0.2c-3.5-5.1-3.5-9.7,0-14.3c0.2-0.2,0.5-0.3,0.7-0.1c0.2,0.2,0.3,0.5,0.1,0.7c-3.3,4.3-3.3,8.5,0,13.3
		c0.2,0.2,0.1,0.5-0.1,0.7C398.6,247.5,398.5,247.6,398.4,247.6L398.4,247.6z M441.6,385.8c-0.4,0-0.8-0.1-1.2-0.2
		c-1.1-0.3-1.9-1.1-2.4-2c-1.1-2.1-0.3-5,1.9-6.2c0.2-0.1,0.5-0.1,0.7,0.2c0.1,0.2,0.1,0.5-0.2,0.7c-1.8,1.1-2.4,3.3-1.6,5
		c0.4,0.8,1.1,1.4,1.9,1.6c0.9,0.3,1.9,0.1,2.7-0.4c0.2-0.1,0.5-0.1,0.7,0.2c0.1,0.2,0.1,0.5-0.2,0.7
		C443.1,385.5,442.3,385.8,441.6,385.8L441.6,385.8z M483.7,385.1c-0.4,0-0.8-0.1-1.2-0.2c-1.1-0.3-1.9-1.1-2.4-2
		c-1.1-2.1-0.3-5,1.9-6.2c0.2-0.1,0.5-0.1,0.7,0.2c0.1,0.2,0.1,0.5-0.2,0.7c-1.8,1.1-2.4,3.3-1.6,5c0.4,0.8,1.1,1.4,1.9,1.6
		c0.9,0.3,1.9,0.1,2.7-0.4c0.2-0.1,0.5-0.1,0.7,0.2c0.1,0.2,0.1,0.5-0.2,0.7C485.3,384.9,484.5,385.1,483.7,385.1L483.7,385.1z"/>
	<path class="st0" d="M384.1,229.2c-1,0-1.9-0.1-2.7-0.7c-0.6-0.4-1-1-1.5-1.5c-0.2-0.2-0.3-0.4-0.5-0.6c-1.1-1.3-2.8-2.1-4.5-2.2
		c-1.8-0.1-3.5,0.5-4.8,1.6c-0.2,0.2-0.5,0.2-0.7,0s-0.2-0.5,0-0.7c1.5-1.4,3.5-1.9,5.5-1.9c1.9,0.2,3.9,1.1,5.2,2.6
		c0.2,0.2,0.4,0.5,0.5,0.7c0.4,0.5,0.7,1,1.2,1.3c1,0.7,2.2,0.6,3.5,0.5c0.9-0.1,1.9-0.1,2.7,0c0.3,0,0.5,0.3,0.4,0.6
		c0,0.3-0.3,0.5-0.6,0.4c-0.8-0.1-1.7-0.1-2.4,0C384.9,229.2,384.6,229.2,384.1,229.2z M500.9,232.1c-0.1,0-0.3-0.1-0.4-0.2
		c-1.1-1.2-2.6-1.9-4.2-1.9h-0.9c-0.7,0-1.3,0-1.9-0.2c-1.6-0.4-2.5-1.7-3.5-2.8c-0.2-0.3-0.5-0.6-0.7-0.8c-2-2.3-5.1-3.9-8.2-4.2
		c-0.7-0.1-1.5,0-1.9,0.5c-0.2,0.2-0.5,0.3-0.7,0.1c-0.2-0.2-0.3-0.5-0.1-0.7c0.5-0.8,1.5-1.1,2.7-0.9c3.3,0.4,6.5,2,8.8,4.5
		c0.2,0.3,0.5,0.6,0.7,0.9c0.9,1.1,1.8,2.1,3,2.5c0.5,0.1,1.1,0.1,1.8,0.1h1c1.9,0.1,3.6,1,4.9,2.2c0.2,0.2,0.2,0.5,0,0.7
		C501.2,232,501.1,232.1,500.9,232.1L500.9,232.1z M483.5,307.3c-2.4,0-4.8-1.7-5.6-4c-1.1-3,0.6-6.2,1.9-8.4c0.6-1,1.3-1.9,1.9-2.9
		c1.1-1.5,1.9-2.8,1.5-4.1c-0.3-0.9-1.2-1.5-1.9-1.9c-1.7-1-3-1.4-4.3-1.3c-0.3,0-0.5-0.2-0.6-0.4c0-0.3,0.2-0.5,0.4-0.6
		c1.5-0.2,3.1,0.3,4.9,1.4c0.9,0.5,1.9,1.3,2.3,2.4c0.6,1.9-0.7,3.6-1.7,5c-0.7,1-1.4,1.9-1.9,2.9c-1.9,3.1-2.4,5.6-1.8,7.6
		c0.7,1.9,2.6,3.3,4.7,3.3c0.3,0,0.5,0.2,0.5,0.5C484.1,307,483.9,307.2,483.5,307.3C483.6,307.3,483.5,307.3,483.5,307.3
		L483.5,307.3z M436.9,279.7c-0.3,0-0.7,0-1-0.1c-0.3,0-0.5-0.3-0.4-0.6c0-0.3,0.3-0.5,0.6-0.4c2.3,0.4,4.9-1,5.8-3.2
		c1.1-2.6,0-5.6-1-8.3l-0.6-1.8c-1.7-4.9-1.8-10.3-0.4-15.3c0.1-0.3,0.3-0.4,0.6-0.3c0.3,0.1,0.4,0.3,0.3,0.6
		c-1.4,4.8-1.2,10,0.4,14.7l0.6,1.8c1.1,3,2.2,6.1,1,9.1C441.8,278.1,439.3,279.7,436.9,279.7z M438.7,304.3c-0.8,0-1.7-0.1-2.4-0.4
		c-1.8-0.7-2.7-2.4-3.6-4c-0.3-0.6-0.7-1.3-1.3-1.6c-0.6-0.3-1.3,0-1.7,0.1c-0.4,0.2-1,0.5-1.2,1c-0.1,0.3-0.4,0.4-0.7,0.3
		c-0.3-0.1-0.4-0.4-0.3-0.7c0.3-0.7,0.9-1.2,1.7-1.5c0.6-0.3,1.6-0.5,2.4-0.1c0.9,0.4,1.4,1.4,1.8,2c0.8,1.5,1.7,2.9,3.1,3.5
		c1,0.4,2,0.4,3,0.3c0.3,0,0.5,0.2,0.5,0.5s-0.2,0.5-0.5,0.5L438.7,304.3L438.7,304.3z M477,253c-1.1,3.2-4.4,5.1-9.2,5.2h-0.2
		l-1.9-0.1c-0.3,0-0.6,0-1-0.1c-3.3-0.4-7.1-1.4-11.1-3.1c-7.5-3.3,1.2-13.6,1.2-13.6s-11.2-4-9.8-6.7c2-4.3,14.4,1.5,18.5,3.3
		c-3.1-3.2-1.4-5.2,0.7-5.6c2.2-0.5,4.1,4.2,7.6,7.7c0.6,0.6,1.2,1.2,1.8,1.9C476.4,244.8,478.6,248,477,253L477,253z"/>
	<path class="st1" d="M473.9,241.4c-0.2-0.2-0.3-0.4-0.5-0.6c-0.4-0.4-0.8-0.9-1.2-1.3c-0.6-0.6-1.2-1.3-1.7-1.9
		c-0.2-0.2-0.3-0.4-0.5-0.6s-0.3-0.4-0.4-0.6l-0.6-0.9c-1.8-2.3-3.1-4.3-4.9-3.9c-1.4,0.3-2.3,1.1-2.7,2.1c-0.2,0.6-0.2,1.6,0.5,2.7
		c-2.7-1.2-6.4-2.7-9.8-3.6c-0.3-0.1-0.7-0.2-1-0.2c-3.1-0.6-5.8-0.4-6.6,1.6c-0.2,0.4-0.2,0.9,0,1.4c0.7,1.7,3.7,3.3,6.3,4.5
		c0.3,0.2,0.7,0.3,1,0.4c0.9,0.4,1.7,0.7,2.1,0.9c-0.6,0.7-1.5,2-2.3,3.6c-0.4,0.8-0.8,1.6-1.1,2.4c-0.5,1.5-0.7,2.9-0.4,4.3
		l0.3,0.9c0.2,0.5,0.6,1,1,1.4c0.5,0.6,1.2,1,1.9,1.3c4,1.8,7.8,2.8,11.3,3.2c0.4,0,0.7,0.1,1,0.1h1.3l0.1-0.3l0.1-0.2l0.1-0.3
		l0.1-0.3h-2.7c-3.3-0.4-7.1-1.5-10.9-3.1c-1.1-0.5-1.9-1.2-2.3-1.9c-0.2-0.3-0.3-0.6-0.3-0.9c-0.3-1.2,0-2.6,0.5-3.9
		c1.1-3.1,3.5-6,3.6-6c0.1-0.1,0.1-0.3,0.1-0.4c-0.1-0.2-0.2-0.3-0.3-0.3c-0.8-0.3-1.9-0.7-3.1-1.3c-0.3-0.1-0.7-0.3-1-0.4
		c-2.4-1.2-5-2.5-5.5-3.8c-0.1-0.3-0.1-0.5,0-0.6c0.5-1,1.5-1.3,2.9-1.3c0.8,0,1.8,0.1,2.7,0.4c0.3,0.1,0.7,0.1,1,0.2
		c3.8,1,8.2,2.9,10.5,3.9l0.8,0.3c0.2,0.1,0.5,0,0.6-0.2c0.1-0.2,0.1-0.5,0-0.6c-1.3-1.3-1.8-2.4-1.5-3.3c0.2-0.7,1-1.3,1.9-1.5
		c1.2-0.2,2.4,1.6,3.9,3.5c0.4,0.6,0.8,1.2,1.3,1.8c0.1,0.2,0.3,0.4,0.5,0.6c0.1,0.2,0.3,0.4,0.5,0.6c0.4,0.4,0.7,0.9,1.1,1.3
		c0.5,0.5,1,1.1,1.5,1.6l0.2,0.2c0,0,0,0.1,0.1,0.1l0.1,0.1c0,0,0,0.1,0.1,0.1l0.2,0.2c0,0.1,0.1,0.1,0.2,0.2l0.4-1
		C474.1,241.6,474,241.5,473.9,241.4L473.9,241.4z"/>
	<path class="st1" d="M473.6,241.8l-0.2,0.5l-2.3,6.6l-1.4,3.4l-0.5,1.1l-1.2,2.8l-0.6,1.4l-0.1,0.3l-0.1,0.3h-1.5
		c-0.3,0-0.6,0-1-0.1l0.3-0.5l3.3-6.1l1.2-2.1l1.6-2.9l2.2-4.1L473.6,241.8L473.6,241.8z"/>
	<path class="st1" d="M473.7,241.5c-0.1-0.1-0.3,0-0.3,0.1l-0.2,0.4l-1,1.9l-2.5,4.8l-1.2,2.1l-3.6,6.7l-0.2,0.4v0.2
		c0,0.1,0.1,0.1,0.2,0.1c0.4,0.1,0.7,0.1,1,0.1h1.4l0.1-0.2l0.1-0.3h-2.1l0.1-0.2l3-5.6l1.2-2.1l0.6-1.2l2.2-4.2l-2.6,7.7l1.4-3.4
		l1.5-3.4l1-2.9l0.2-0.7C473.8,241.7,473.8,241.6,473.7,241.5L473.7,241.5z M466.7,241.3c-0.1,0-0.2,0-0.3-0.1
		c-1.6-1.2-2.2-1.8-3.4-3.4c-0.2-0.2-0.1-0.5,0.1-0.7c0.2-0.2,0.5-0.1,0.7,0.1c1.2,1.6,1.8,2.1,3.2,3.2c0.2,0.2,0.3,0.5,0.1,0.7
		C467,241.3,466.9,241.3,466.7,241.3L466.7,241.3z"/>
	<path class="st9" d="M491.7,271.7l-25.6-12l8-19l22.7,10.6c0.8,0.4,1.7-0.4,1.5-1.2c-1.8-5.8-4.2-11.2-7.4-16"/>
	<path class="st1" d="M498.2,251.5c-0.5,0.4-1.1,0.5-1.7,0.2l-22.3-10.4l-0.1,0.3l-0.4,1l-1.2,2.8l-1.5,3.4l-1.4,3.4l-0.5,1.1
		l-0.6,1.5l-0.6,1.5l-0.6,1.4l-0.1,0.3l-0.1,0.3l-0.1,0.2l-0.1,0.3l-0.4,0.9l1.1,0.5l0.5,0.2l0.3,0.1l0.2,0.1l1.6,0.7l1.7,0.8
		l19.3,9l0.3,0.1l0.3,0.1l0.2,0.1h0.1c0.2,0.1,0.3,0.4,0.3,0.6v0.1c-0.1,0.2-0.3,0.3-0.4,0.3h-0.2l-0.3-0.1l-13.4-6.1l-1.7-0.8
		l-1.7-0.8l-6-2.8l-0.5-0.2l-0.5-0.2l-1.9-0.9c-0.3-0.1-0.4-0.4-0.3-0.6l0.4-1l0.1-0.3l0.1-0.3l0.1-0.3l0.1-0.2l1.9-4.5l0.6-1.5
		l0.6-1.5l0.7-1.6l1-2.4l1-2.4l0.9-2l0.4-1l0.2-0.4c0-0.1,0.2-0.2,0.3-0.3h0.4l22.7,10.6c0.3,0.1,0.5,0,0.6-0.1s0.3-0.3,0.2-0.6
		c-1.8-5.8-4.2-11.2-7.4-15.9c-0.2-0.2-0.1-0.5,0.1-0.7c0.2-0.2,0.5-0.1,0.7,0.1c3.2,4.8,5.8,10.1,7.5,16.2
		C498.9,250.5,498.7,251.1,498.2,251.5L498.2,251.5z M459.9,348.4c-0.9,0-1.8-0.2-2.3-0.8c-1-0.9-1.2-2.3-0.6-4.5
		c1.9-6.8,2.5-17.9,2.5-18c0-0.3,0.3-0.5,0.5-0.5c0.3,0,0.5,0.3,0.5,0.5c0,0.1-0.8,11.3-2.6,18.2c-0.5,1.8-0.4,2.9,0.3,3.5
		c1.1,1,3.6,0.3,4.6-0.1c0.3-0.1,0.5,0,0.6,0.3c0.1,0.3,0,0.5-0.3,0.6C462.9,347.8,461.5,348.4,459.9,348.4z"/>
	<path class="st0" d="M423.3,221.7c-0.4-0.1-0.5-0.3-0.5-0.6c0.4-2.4,2.7-3.8,4.8-4.3c1.2-0.3,2.3-0.4,3.4-0.5
		c0.9-0.1,1.9-0.2,2.8-0.4c3.3-0.7,6.3-2.8,8-5.8c0.1-0.2,0.4-0.3,0.7-0.2c0.2,0.1,0.3,0.4,0.2,0.7c-1.9,3.2-5.1,5.6-8.7,6.2
		c-1,0.2-1.9,0.3-2.9,0.4c-1.2,0.1-2.2,0.2-3.3,0.5c-1.7,0.4-3.7,1.6-4.1,3.5C423.8,221.5,423.6,221.7,423.3,221.7L423.3,221.7z"/>
	<path class="st1" d="M443.2,174.1c-0.2,2-0.3,4-0.2,5.8c-0.4-0.2-0.7-0.5-1-0.8c-1.3-1.2-1.9-2.9-1.9-4.9c0-1.9,0.8-3.7,2-5
		c0.3-0.3,0.7-0.6,1-0.8C443,170.7,443.1,173,443.2,174.1C443.2,174,443.2,174,443.2,174.1L443.2,174.1z M483.2,174.7
		c-1.1,8.6-7.6,17.3-12.3,16.8c-4.6-0.6-7.5-7.9-6.4-16.5c1.1-8.6,5.6-15,10.2-14.4C479.4,161.2,484.3,166.1,483.2,174.7z"/>
	<path class="st0" d="M474.5,179.2c0,0-3.6,17.8-0.9,23.5c0,0,0.9,14.4-14.1,14.9c-11.6,0.3-5.3-14.5-5.3-14.5s2.6-6.9,1.3-17.2"/>
	<path class="st1" d="M475,179.3c0,0.2-3.5,17.7-0.9,23.2v1.5c0,0.5-0.1,1-0.2,1.7c-0.2,1.5-0.7,3.4-1.7,5.3c-0.5,1-1.2,1.9-1.9,2.8
		c-2.5,2.7-6.2,4.3-10.8,4.4h-0.4c-2.7,0-4.7-0.9-5.8-2.5c0,0,0-0.1-0.1-0.1c-0.3-0.5-0.6-1.1-0.8-1.7c-0.3-0.8-0.4-1.6-0.4-2.3
		c0-0.7,0-1.5,0.1-2.1c0.4-3.3,1.6-6.2,1.7-6.5v-0.1c0-0.1,0.1-0.3,0.2-0.6c0.1-0.4,0.3-1,0.5-1.8c0-0.2,0.1-0.3,0.1-0.5
		c0.1-0.6,0.3-1.3,0.4-1.9c0.1-0.3,0.1-0.6,0.1-1c0.3,0.1,0.7,0.1,1,0.1c0,0.3-0.1,0.6-0.1,1c-0.1,0.7-0.2,1.3-0.4,1.9
		c0,0.2-0.1,0.3-0.1,0.5s-0.1,0.3-0.1,0.5c-0.1,0.6-0.3,1.1-0.4,1.4c-0.2,0.5-0.3,0.8-0.3,0.8c0,0.1-2.7,6.5-1.3,10.6l0.6,1.2
		c1,1.5,2.8,2.2,5.5,2.1c4.4-0.1,7.8-1.5,10.1-4.1c3.1-3.4,3.5-8.1,3.5-9.7v-0.5c-0.1-0.2-0.2-0.4-0.2-0.6c-2.2-6.3,1-22.5,1.1-23.2
		c0.1-0.3,0.3-0.4,0.6-0.4C474.9,178.7,475.1,179,475,179.3L475,179.3z"/>
	<path class="st0" d="M473.9,181.9c-7,24.3-34.3,19.8-31.3-7.9c0,0-0.8-8.3,1.2-10.4c0,0,2.4,3.8,9.3,1.2c6.8-2.6,6.4-7.4,9.6-4.2
		c3.1,3.2,3.6,12.1,6.8,11.6c3.2-0.5,2-4.7,6.9-1.4C482.4,176,473.9,181.9,473.9,181.9L473.9,181.9z"/>
	<path class="st1" d="M476.5,170.8c-5-3.3-3.7,0.9-6.9,1.4c-3.2,0.5-3.7-8.4-6.8-11.6s-2.7,1.6-9.6,4.2c-6.8,2.6-9.3-1.2-9.3-1.2
		c-1.3,2.2-1,8.9-0.9,10.4c0,0.1-0.2,0.2-0.3,0.2c-7.1-4.5-3.2-15.2-3.2-15.2s-4-9.8-1-13.5s8.9-2.7,12.7-0.6
		c3.8,2,6.7,3.1,15.8,2.2c9-0.9,6.8,7.7,6.7,7.9c0.1-0.1,4.1-2.1,6.4,3.1C482.4,163.6,476.5,170.8,476.5,170.8L476.5,170.8z"/>
	<path class="st1" d="M473.7,155.3c-0.1,0-0.2,0-0.3-0.1c-0.1-0.1-0.2-0.3-0.1-0.5l2.4-6.6c0.1-0.3,0.4-0.4,0.6-0.3
		c0.3,0.1,0.4,0.4,0.3,0.6l-2,5.6l6.1-2.6c0.3-0.1,0.5,0,0.7,0.3c0.1,0.3,0,0.5-0.3,0.7l-7.2,3.1
		C473.8,155.3,473.8,155.3,473.7,155.3L473.7,155.3z M476.1,176.9L476.1,176.9c-0.2-0.1-0.2-0.2-0.2-0.3c0.3-0.5,0.5-1.1,0.5-1.7
		c-0.1-1.5-1.2-2.5-2.3-2.5c-0.4,0-0.8,0.2-1.1,0.4c-0.1,0.1-0.3,0.1-0.3-0.1c-0.1-0.1-0.1-0.3,0.1-0.3c0.4-0.3,0.9-0.5,1.4-0.5
		c1.5-0.1,2.8,1.3,2.8,2.9c0,0.7-0.2,1.5-0.5,1.9C476.3,176.8,476.2,176.9,476.1,176.9L476.1,176.9z M462.3,172.1
		c-0.1,0-0.2-0.1-0.3-0.2c-1.1-1.7-2.4-2.1-4-1.5c-0.2,0.1-0.4,0-0.5-0.2s0-0.4,0.2-0.5c1.9-0.9,3.6-0.3,5,1.8
		c0.1,0.2,0.1,0.4-0.1,0.5C462.4,172.1,462.4,172.1,462.3,172.1L462.3,172.1z M450.6,171.4c-0.1,0-0.2,0-0.3-0.1
		c-1.3-1.6-2.6-1.9-4.2-1c-0.2,0.1-0.4,0-0.5-0.1s0-0.4,0.1-0.5c1.9-1.1,3.6-0.7,5.1,1.2c0.1,0.2,0.1,0.4,0,0.5L450.6,171.4
		L450.6,171.4z M449.7,173.4c0,0.8-0.7,1.4-1.5,1.4c-0.8,0-1.4-0.7-1.4-1.5c0-0.8,0.7-1.4,1.5-1.4
		C449.1,172,449.7,172.7,449.7,173.4z M460.3,174.6c0,0.8-0.7,1.4-1.5,1.4c-0.8,0-1.4-0.7-1.4-1.5c0-0.8,0.7-1.4,1.5-1.4
		C459.7,173.3,460.3,173.8,460.3,174.6z"/>
	<path class="st1" d="M462.9,196.9c-1.9,0.8-3.8,1.3-5.8,1.3c-0.5,0-0.9,0-1.3-0.1c-0.3,0-0.7-0.1-1-0.1c-2-0.3-3.9-1.2-5.7-2.4
		c-4.5-3.3-7.1-9.2-7.3-16.5c0-1.7,0-3.3,0.2-5.1c0-0.5-0.2-2.5-0.1-4.8c0.1-2.3,0.4-4.9,1.5-5.9c0.2-0.2,0.5-0.2,0.7,0
		s0.2,0.5,0,0.7c-0.7,0.8-1,2.6-1.2,4.5c-0.1,2.1,0,4.4,0.1,5.6v0.1c-0.2,2-0.3,4-0.2,5.8c0.4,6.6,2.7,11.9,6.8,14.9
		c1.7,1.2,3.4,1.9,5.3,2.2c0.3,0.1,0.7,0.1,1,0.1c2.1,0.2,4.4-0.2,6.5-1.1c0.3-0.1,0.5,0,0.7,0.3
		C463.3,196.6,463.2,196.8,462.9,196.9L462.9,196.9z"/>
	<path class="st10" d="M446.3,178.7c0.9-0.6,2-0.5,2.5,0.2c0.5,0.7,0.1,1.8-0.8,2.3c-0.9,0.6-2,0.5-2.5-0.2
		C445,180.4,445.4,179.3,446.3,178.7z M465.1,178.1c-1-0.7-2.1-0.6-2.6,0.1c-0.5,0.7-0.2,1.9,0.8,2.5c0.9,0.7,2.1,0.6,2.6-0.1
		C466.3,179.9,465.9,178.7,465.1,178.1z"/>
	<path class="st1" d="M454.3,184.9c-1.1,0-2.1-0.8-2.4-1.8c-0.4-1.1,0.1-2.2,0.5-3.2l0.1-0.2c1-2.4,1.5-5.1,1.6-7.8
		c0-0.2,0.2-0.4,0.4-0.4s0.4,0.2,0.4,0.4c0,2.7-0.6,5.5-1.6,8l-0.1,0.2c-0.4,0.9-0.8,1.9-0.5,2.7c0.3,0.8,1.1,1.4,1.9,1.3
		c0.2,0,0.4,0.1,0.4,0.3s-0.1,0.4-0.3,0.4C454.5,184.9,454.4,184.9,454.3,184.9z"/>
	<path class="st0" d="M458,191.5c-2.3,0.6-4.8-0.5-5.8-3.3l9.2-2.3C461.7,188.9,460.4,190.9,458,191.5L458,191.5z"/>
	<path class="st1" d="M456.8,192c-2.1,0-4.1-1.4-5-3.7V188c0-0.1,0.1-0.2,0.2-0.2l9.2-2.3c0.1,0,0.2,0,0.3,0.1
		c0.1,0.1,0.1,0.2,0.2,0.3c0.4,3-1,5.4-3.6,6C457.7,191.9,457.3,192,456.8,192L456.8,192z M452.7,188.4c1.1,2.2,3.1,3.2,5.3,2.7
		c2.1-0.5,3.2-2.3,3-4.8L452.7,188.4L452.7,188.4z"/>
	<path class="st2" d="M389.7,407.9c-0.1,0-0.2,0-0.2-0.1c-0.1-0.1-0.1-0.4,0-0.5l5.6-5.6c0.1-0.1,0.4-0.1,0.5,0s0.1,0.4,0,0.5
		l-5.6,5.6C389.9,407.9,389.8,407.9,389.7,407.9z"/>
	<path class="st2" d="M395.4,407.9c-0.1,0-0.2,0-0.2-0.1l-5.6-5.6c-0.1-0.1-0.1-0.4,0-0.5s0.4-0.1,0.5,0l5.6,5.6
		c0.1,0.1,0.1,0.4,0,0.5C395.5,407.9,395.5,407.9,395.4,407.9z"/>
	<path class="st0" d="M474.9,260.7h-0.2c-0.2-0.1-0.4-0.4-0.2-0.7c0.9-1.8,2.6-3.1,4.7-3.5c1.9-0.4,4,0,5.8,1
		c0.2,0.1,0.4,0.3,0.6,0.4c0.4,0.3,0.8,0.5,1.2,0.7c0.7,0.3,1.5,0.4,2.1,0.4c2.2,0.2,5.4,0,7.3-1.9c0.2-0.2,0.5-0.2,0.7,0
		c0.2,0.2,0.2,0.5,0,0.7c-1.8,1.8-4.6,2.4-8.1,2.2c-0.8-0.1-1.7-0.2-2.4-0.5c-0.5-0.2-0.9-0.5-1.3-0.7c-0.2-0.1-0.4-0.2-0.6-0.4
		c-1.6-0.9-3.4-1.3-5.1-0.9c-1.8,0.4-3.2,1.6-4,3C475.2,260.6,475,260.7,474.9,260.7z"/>
	<path class="st2" d="M290.5,452.8c-2.5,0-4.6-2-4.6-4.6s2-4.6,4.6-4.6s4.6,2,4.6,4.6S293,452.8,290.5,452.8z M290.5,444.7
		c-1.9,0-3.6,1.6-3.6,3.6c0,1.9,1.7,3.6,3.6,3.6c1.9,0,3.6-1.7,3.6-3.6C294.1,446.3,292.4,444.7,290.5,444.7z M222.9,458
		C222.9,458,222.8,458,222.9,458c-23.5-4.6-46.2-12.9-67.7-24.6c-0.2-0.1-0.3-0.4-0.2-0.7c0.1-0.2,0.4-0.3,0.7-0.2
		c21.4,11.7,44.2,19.9,67.4,24.5c0.3,0.1,0.4,0.3,0.4,0.6C223.2,457.8,223.1,458,222.9,458L222.9,458z M181.1,434.5h-0.2
		c-7.4-3.1-14.8-6.7-21.9-10.6c-0.2-0.1-0.3-0.4-0.2-0.7c0.1-0.2,0.4-0.3,0.7-0.2c7.1,3.9,14.4,7.4,21.8,10.5
		c0.3,0.1,0.4,0.4,0.3,0.7C181.5,434.4,181.3,434.5,181.1,434.5L181.1,434.5z M224.3,447.8C224.2,447.8,224.2,447.8,224.3,447.8
		c-12.5-2.4-24.8-6-36.6-10.7c-0.3-0.1-0.4-0.4-0.3-0.6c0.1-0.3,0.4-0.4,0.6-0.3c11.9,4.6,24.2,8.2,36.5,10.6
		c0.3,0.1,0.4,0.3,0.4,0.6C224.7,447.6,224.5,447.8,224.3,447.8z M226,437.8C226,437.8,226,437.7,226,437.8
		c-21.7-4.4-42.9-12.2-62.8-23.3c-0.2-0.1-0.3-0.4-0.2-0.7c0.1-0.2,0.4-0.3,0.7-0.2c19.8,11,40.8,18.8,62.4,23.2
		c0.3,0.1,0.4,0.3,0.4,0.6C226.5,437.6,226.3,437.8,226,437.8L226,437.8z"/>
</g>
<text transform="matrix(1.1555 0 0 1 231.0962 282.8109)" class="st11 st12 st13"></text>
</svg>
