<svg id="SvgjsSvg1243" width="550" height="550" xmlns="http://www.w3.org/2000/svg" version="1.1" xmlns:xlink="http://www.w3.org/1999/xlink" xmlns:svgjs="http://svgjs.com/svgjs"><defs id="SvgjsDefs1244"></defs><g id="SvgjsG1245"><svg xmlns="http://www.w3.org/2000/svg" enable-background="new 0 0 600 600" viewBox="17.842 79.417 564.469 440.925" width="550" height="550"><path fill="#eeecf0" d="m305.7 417.4 2.9 50.7c.1 1.5-1.1 2.9-2.6 2.9l-68 3.9c-1.5.1-2.9-1.1-2.9-2.6l-2.9-50.7c-.1-1.5 1.1-2.9 2.6-2.9l68-3.9c1.5-.2 2.8 1 2.9 2.6z" class="coloreeecf0 svgShape"></path><path fill="#ffffff" d="M63.9 418C62.8 430.8 81 438.3 81 438.3l3.6-24-7.7.2s-13.6-24-26.4-29.6c.1 0 14.2 24 13.4 33.1z" class="colorfff svgShape"></path><path fill="#0acf83" d="M101 418c1.1 12.8-17.1 20.3-17.1 20.3l-3.6-24 7.7.2s13.6-24 26.4-29.6c0 0-14.2 24-13.4 33.1z" class="color0acf83 svgShape"></path><path fill="#eeecf0" d="m95.9 425.5-6.8 26.8s-12.6 5.3-14.9 0c-2.2-5.3-7.3-14.4-7.3-14.4l1.1-14.2s3.3-23.7 20.4-29.5c0 0-2.6 11.5.5 17 3.1 5.6 7 14.3 7 14.3z" class="coloreeecf0 svgShape"></path><path fill="#ffffff" d="m79.5 455 4.6.8c16.7 2 19.3-17.6 20-26.5.7-8.9 11.1-20.5 11.1-20.5-25.4 3.7-35.6 37.2-35.6 37.2l-.1 9z" class="colorfff svgShape"></path><path fill="#0acf83" d="m79.6 455-4.6.8c-16.7 2-19.3-17.6-20-26.5-.7-8.9-11.1-20.5-11.1-20.5 25.3 3.8 35.5 37.2 35.5 37.2l.2 9z" class="color0acf83 svgShape"></path><path fill="#eeecf0" d="m111.6 453.8-6.3 45.9H55.7l-8.1-45.8c-.3-1.9 1.1-3.7 3.1-3.7h57.9c1.8.1 3.3 1.7 3 3.6z" class="coloreeecf0 svgShape"></path><path fill="#ffffff" d="M96.5 463.9 93.1 488h-26l-4.3-24.1c-.2-1 .6-1.9 1.6-1.9h30.4c1 0 1.8.9 1.7 1.9z" class="colorfff svgShape"></path><path fill="#eeecf0" d="M81.8 359.5h-9c-3.6 0-6.5-2.9-6.5-6.5V126c0-3.6 2.9-6.5 6.5-6.5h9c-3.6 0-6.5 2.9-6.5 6.5v227c0 3.5 2.9 6.5 6.5 6.5z" class="coloreeecf0 svgShape"></path><path fill="#ffffff" d="M380.2 125.9v227c0 3.6-2.9 6.5-6.5 6.5H81.8c-3.6 0-6.5-2.9-6.5-6.5v-227c0-3.6 2.9-6.5 6.5-6.5h291.9c3.6 0 6.5 2.9 6.5 6.5z" class="colorfff svgShape"></path><path fill="#fcfafc" d="M75.3 327.8v25.1c0 3.6 2.9 6.5 6.5 6.5h291.9c3.6 0 6.5-2.9 6.5-6.5v-25.1H75.3z" class="colorfcfafc svgShape"></path><path fill="#f992c7" d="M300.5 184.7v122.5c0 2-1.6 3.7-3.7 3.7h-20.6c-2 0-3.7-1.6-3.7-3.7V184.7c0-2 1.6-3.7 3.7-3.7h20.6c2.1 0 3.7 1.6 3.7 3.7z" class="colorf992c7 svgShape"></path><path fill="#ffffff" d="M350.6 158.6v148.6c0 2-1.6 3.7-3.7 3.7h-20.6c-2 0-3.7-1.6-3.7-3.7V158.6c0-2 1.6-3.7 3.7-3.7h20.6c2 0 3.7 1.7 3.7 3.7zM251.6 216v91.2c0 2-1.6 3.7-3.7 3.7h-20.6c-2 0-3.7-1.6-3.7-3.7V216c0-2 1.6-3.7 3.7-3.7h20.6c2 0 3.7 1.6 3.7 3.7z" class="colorfff svgShape"></path><path fill="#748ce6" d="M202.6 247.3v59.9c0 2-1.6 3.7-3.7 3.7h-20.6c-2 0-3.7-1.6-3.7-3.7v-59.9c0-2 1.6-3.7 3.7-3.7h20.6c2.1 0 3.7 1.7 3.7 3.7z" class="color748ce6 svgShape"></path><path fill="#ffffff" d="M153.7 278.6v28.6c0 2-1.6 3.7-3.7 3.7h-20.6c-2 0-3.7-1.6-3.7-3.7v-28.6c0-2 1.6-3.7 3.7-3.7H150c2 0 3.7 1.7 3.7 3.7zM278.4 140.2l-16.6 34.7c-.9 2-3.7 2.1-4.9.3l-5.3-8.5c-.8-1.3-2.5-1.7-3.8-.9L115 245.6c-1.3.8-3 .4-3.8-.9l-5.9-9.8c-.8-1.3-.4-3 .9-3.8l132.5-79.7c1.3-.8 1.7-2.5.9-3.8l-4.6-7.4c-1.2-1.9.2-4.3 2.4-4.2l38.5.4c2-.2 3.4 2 2.5 3.8z" class="colorfff svgShape"></path><path fill="#797885" d="M406.8 114.2c-.1 0-.3 0-.4-.1-.2-.2-.2-.5 0-.7l6.9-6.9c.2-.2.5-.2.7 0s.2.5 0 .7l-6.9 6.9c0 .1-.1.1-.3.1z" class="color797885 svgShape"></path><path fill="#797885" d="M413.7 114.2c-.1 0-.3 0-.4-.1l-6.9-6.9c-.2-.2-.2-.5 0-.7s.5-.2.7 0l6.9 6.9c.2.2.2.5 0 .7 0 .1-.1.1-.3.1z" class="color797885 svgShape"></path><path fill="#ffffff" d="m313.7 409.5 2.9 50.7c.1 1.5-1.1 2.9-2.6 2.9l-68 3.9c-1.5.1-2.9-1.1-2.9-2.6l-2.9-50.7c-.1-1.5 1.1-2.9 2.6-2.9l68-3.9c1.5-.1 2.8 1.1 2.9 2.6z" class="colorfff svgShape"></path><path fill="#eaf0f4" d="m361.2 394.5 2.3 2.3-2.9 2.9-2.3-2.3-2.3 2.3-3-2.9 2.3-2.3-2.3-2.4 3-2.9 2.3 2.3 2.3-2.3 2.9 2.9z" class="coloreaf0f4 svgShape"></path><path fill="#797885" d="M516.8 198.8h-.1c-.1-.1-.2-.2-.2-.4l.6-3.9v-.1l-3.2-2.3c-.1-.1-.2-.3-.1-.4.1-.1.2-.2.4-.2l3.9.6h.1l2.3-3.2c.1-.1.3-.2.4-.1.1.1.2.2.2.4l-.6 3.9v.1l3.2 2.3c.1.1.2.3.1.4-.1.1-.2.2-.4.2l-3.9-.6s-.1 0-.1.1l-2.3 3.2c0-.1-.2 0-.3 0zm-1.3-6.4 2 1.4c.3.2.4.5.3.8l-.4 2.4 1.4-2c.2-.2.5-.4.8-.3l2.4.4-2-1.4c-.3-.2-.4-.5-.3-.8l.4-2.4-1.5 2c-.1.2-.4.3-.7.3l-2.4-.4zM178.2 429.6h-.1c-.1-.1-.2-.2-.2-.4l.8-5c0-.1 0-.2-.1-.2l-4.1-3c-.1-.1-.2-.3-.1-.4.1-.1.2-.2.4-.2l5 .8c.1 0 .2 0 .2-.1l3-4.2c.1-.1.3-.2.4-.1.1.1.2.2.2.4l-.8 5s0 .1.1.2l4.1 3c.1.1.2.3.1.4-.1.1-.2.2-.4.2l-5-.8c-.1 0-.2 0-.2.1l-3 4.1c0 .1-.1.2-.3.2zm-2.1-8.4 3 2.1c.3.2.4.6.3.9l-.6 3.6 2.1-3c.2-.3.5-.4.9-.4l3.6.6-2.9-2.1c-.3-.2-.4-.6-.4-.9l.6-3.6-2.1 3c-.2.3-.5.4-.9.4l-3.6-.6zM48.8 113.4h-.1c-.1-.1-.2-.2-.2-.4l.8-5.5c0-.1 0-.2-.1-.3l-4.4-3.2c-.1-.1-.2-.3-.1-.4.1-.1.2-.2.4-.2l5.4.8c.1 0 .2 0 .2-.1l3.3-4.5c.1-.1.3-.2.4-.1.1.1.2.2.2.4l-.9 5.4c0 .1 0 .2.1.3l4.5 3.2c.1.1.2.3.1.4-.1.1-.2.2-.4.2l-5.4-.9c-.1 0-.2 0-.3.1l-3.2 4.5c-.1.3-.2.3-.3.3zm-2.5-9 3.3 2.4c.3.3.4.6.4 1l-.6 4 2.4-3.3c.2-.3.6-.5.9-.4l4 .6-3.3-2.4c-.3-.2-.5-.6-.4-1l.6-4-2.4 3.3c-.2.3-.5.4-.9.4l-4-.6z" class="color797885 svgShape"></path><path fill="#ffffff" d="M386.6 474.1h25.3v11.7h-25.3zM457.8 474.1h25.3v11.7h-25.3z" class="colorfff svgShape"></path><path d="M411.7 476.6c-7.2 1.7-14.9 3-25.1 2.2l.1-5 25 2.8zM482.8 476.7c-7.4 2.1-15.9 3.6-25.1 3.8l.1-5.6 25 1.8z"></path><path fill="#748ce6" d="m415.9 474.8 26.5-116.4 11.9 117c0 3.5 31.7 2.7 31.7-.7-2.5-70.4-3.3-142.3-10.9-172.5h-64.3c-10.9 19.3-8.9 91.4-26.9 172.4 0 3.5 32 3.7 32 .2z" class="color748ce6 svgShape"></path><path d="M477.9 317c-36.8.5-65.4-4.2-69.6-7.9h67.9l1.7 7.9z"></path><path fill="#ffd857" d="m479 256.5 2.1 51.1c0 7-73.9 7-73.9 0l1.7-44.3-19.1-13.5s7.3-38.2 32.1-38h36.4s5 .1 11.3 2.6c7.3 2.8 17 8.4 21.5 20.9 1.1 2.9 1.9 6.2 2.4 10L479 256.5z" class="colorffd857 svgShape"></path><path fill="#ffffff" d="m371.6 236.1-7.7.6s-8.9-8.2-5.1-9.5c3.8-1.3 12.8 8.9 12.8 8.9z" class="colorfff svgShape"></path><path fill="#ffffff" d="M402.9 287.4c-5.9 9.5-15.8 6.4-18.4-.3-1.9-4.8-12.9-28.1-14.9-32.2-1.9-4-7.3-9.6-15.4-12-14.5-4.4-17.3-16.5-8.6-12.4 8.7 4.2 18.4 4.9 26 5.7 7.6.8 18.1 13.6 18.1 13.6l19.1 13.5-1.3 14.3c.1 0 .2 2.2-4.6 9.8z" class="colorfff svgShape"></path><path fill="#eeecf0" d="M531.3 289.8v4.5h-70.8v-4.5c0-1.5 1.2-2.8 2.8-2.8h65.2c1.6 0 2.8 1.2 2.8 2.8z" class="coloreeecf0 svgShape"></path><path fill="#eeecf0" d="m555.8 246-19.7 48.2h-63l19.6-48.6c.9-2.2 3.1-3.7 5.5-3.7H553c2.1 0 3.6 2.2 2.8 4.1z" class="coloreeecf0 svgShape"></path><path fill="#ffffff" d="m479 256.5 1 20.1 12.6-30.9zM386.1 474.9h-.2c-.3-.1-.4-.4-.3-.6 1.4-3.9 3.8-12.4 5.8-22.7 3.5-17.5 10.1-61.8 11.6-79.9 1.2-14 5.6-44.2 9-59.6.1-.3.3-.4.6-.4.3.1.4.3.4.6-3.4 15.3-7.8 45.5-9 59.4-1.6 18.1-8.2 62.5-11.6 80-2.1 10.4-4.4 18.9-5.9 22.9 0 .1-.2.3-.4.3zM484 237.5c-9.3 0-16.9-7.6-16.9-16.9 0-1.7.2-3.3.7-4.9.1-.3.4-.4.6-.3.3.1.4.4.3.6-.5 1.5-.7 3.1-.7 4.7 0 8.8 7.1 15.9 15.9 15.9 1.4 0 2.8-.2 4.2-.6.3-.1.5.1.6.4.1.3-.1.5-.4.6-1.3.3-2.8.5-4.3.5zM402.7 239.1c-1.5 0-3.1-.2-4.6-.6-.3-.1-.4-.3-.4-.6.1-.3.3-.4.6-.4 1.4.4 2.9.6 4.3.6 9.1 0 16.4-7.4 16.4-16.4 0-1.6-.2-3.2-.7-4.8-.1-.3.1-.5.3-.6.3-.1.5.1.6.3.5 1.7.8 3.4.8 5.1.1 9.6-7.7 17.4-17.3 17.4zM417.3 297c-2.3 0-4.2-1.9-4.2-4.2 0-2.3 1.9-4.2 4.2-4.2 2.3 0 4.2 1.9 4.2 4.2 0 2.3-1.9 4.2-4.2 4.2zm0-7.4c-1.8 0-3.2 1.4-3.2 3.2 0 1.8 1.4 3.2 3.2 3.2 1.8 0 3.2-1.4 3.2-3.2 0-1.7-1.4-3.2-3.2-3.2zM435.1 307.4c-1.4 0-2.5-1.1-2.5-2.5s1.1-2.5 2.5-2.5 2.5 1.1 2.5 2.5-1.1 2.5-2.5 2.5zm0-4c-.8 0-1.5.7-1.5 1.5s.7 1.5 1.5 1.5 1.5-.7 1.5-1.5-.6-1.5-1.5-1.5zM426.6 260.7c-2.3 0-4.2-1.9-4.2-4.2 0-2.3 1.9-4.2 4.2-4.2 2.3 0 4.2 1.9 4.2 4.2 0 2.3-1.9 4.2-4.2 4.2zm0-7.4c-1.8 0-3.2 1.4-3.2 3.2 0 1.8 1.4 3.2 3.2 3.2 1.8 0 3.2-1.4 3.2-3.2 0-1.8-1.5-3.2-3.2-3.2zM465.2 270.2c-2.9 0-5.2-2.3-5.2-5.2 0-2.9 2.3-5.2 5.2-5.2 2.9 0 5.2 2.3 5.2 5.2 0 2.9-2.3 5.2-5.2 5.2zm0-9.3c-2.3 0-4.2 1.9-4.2 4.2 0 2.3 1.9 4.2 4.2 4.2 2.3 0 4.2-1.9 4.2-4.2 0-2.4-1.9-4.2-4.2-4.2zM463.6 306.4c-2 0-3.5-1.6-3.5-3.6s1.6-3.5 3.5-3.5c2 0 3.6 1.6 3.6 3.5-.1 2-1.7 3.6-3.6 3.6zm0-6.1c-1.4 0-2.5 1.1-2.5 2.5s1.1 2.6 2.5 2.6 2.6-1.1 2.6-2.6c-.1-1.3-1.2-2.5-2.6-2.5zM452.5 286.9c-1.9 0-3.4-1.6-3.4-3.5s1.5-3.4 3.4-3.4 3.5 1.5 3.5 3.4c0 2-1.6 3.5-3.5 3.5zm0-5.9c-1.3 0-2.4 1.1-2.4 2.4 0 1.4 1.1 2.5 2.4 2.5 1.4 0 2.5-1.1 2.5-2.5 0-1.3-1.1-2.4-2.5-2.4zM434 280c-1.5 0-2.7-1.2-2.7-2.8 0-1.5 1.2-2.7 2.7-2.7 1.5 0 2.8 1.2 2.8 2.7 0 1.6-1.3 2.8-2.8 2.8zm0-4.5c-1 0-1.7.8-1.7 1.7 0 1 .8 1.8 1.7 1.8 1 0 1.8-.8 1.8-1.8 0-.9-.8-1.7-1.8-1.7zM457.6 246.9c-1.7 0-3.1-1.4-3.1-3.1 0-1.7 1.4-3.1 3.1-3.1 1.7 0 3.1 1.4 3.1 3.1 0 1.7-1.4 3.1-3.1 3.1zm0-5.2c-1.1 0-2.1.9-2.1 2.1 0 1.2.9 2.1 2.1 2.1 1.2 0 2.1-.9 2.1-2.1 0-1.2-1-2.1-2.1-2.1zM516.4 293.3c-.1 2.6-4.8 4.6-10.6 4.5-5.8-.1-10.5-2.3-10.5-4.8 0-2.6 4.8-3.5 10.6-3.4 5.8 0 10.5 1.1 10.5 3.7zM430.6 186.1s3.7 19.6.9 25.4c0 0 2.6 15.5 14.5 15.3s5.4-14.9 5.4-14.9-.7-7.5.7-18.1" class="colorfff svgShape"></path><path fill="#ffffff" d="M438.9 201.8c3.3 3.1 7.8 5.2 13.9 4.8 18.2-1.2 17.1-31.8 15.1-40.9-14.6-12.7-26.1-12.9-40 6.6-1.1 1.5-5 .5-5.9 4.4-.2.8-2 7.8 8.5 9.6" class="colorfff svgShape"></path><path fill="#fcad88" d="M446.5 186.2c1 .6 2.1.4 2.5-.4.4-.8 0-1.8-1-2.4-1-.6-2.1-.4-2.5.4-.4.8 0 1.9 1 2.4zM465.2 187.3c-.9.7-2.1.6-2.6-.1s-.2-1.8.7-2.5c.9-.7 2.1-.6 2.6.1.6.8.3 1.9-.7 2.5z" opacity=".5" class="colorfcad88 svgShape"></path><path fill="#ffffff" d="M453.4 173.8c-1.8-1.7-3.9-1-5.5.2M464.9 173.7c-1.6-1.6-3.6-1.1-5.1-.1M428 175.6s-3.3.2-3.1 4" class="colorfff svgShape"></path><path fill="#2f304c" d="M556 499.4h-50.7c.2-.3.3-.7.3-1.1.1-2.3-1-4.1-3-5.3-3.3-1.9-13.8-7.7-19-10.5v-5.8c1.8-.5 3.1-1.2 3.1-2.1-.5-12.9-.9-25.9-1.3-38.5-1.6-50.6-3.1-98.5-7.9-125.6 2.5-.8 4.1-1.7 4.1-2.9l-.5-12.8h14.4c3 3.8 13.1 4.5 18.3 2.1 1.2-.6 2.2-1.3 2.7-2.1h19.7c.2 0 .4-.1.5-.3l19.7-48.2c.9-2.3-.7-4.8-3.2-4.8h-54.8c-1.7 0-3.3.7-4.5 1.9-.5-2.9-1.2-5.7-2.1-8.2-3.6-9.9-10.7-16.8-21.8-21.2-6.3-2.5-11.3-2.6-11.5-2.7H452c-.1-1.6-.1-4.1-.1-4.2 4.9-.1 8.8-1.8 12-6 6.3-8.4 6.4-23.4 5.4-31.9.2-.1.7-.2 1.5-.6 2.9-1.3 6.4-4 7.6-8 1-3.4.1-7.2-2.6-11.2-4.1-6-9.2-5.7-11.9-5-4.5 1.2-7.9 4.8-8.4 7.6-2.3-1.7-15.5-10.6-26.1-.5-.6.5-1.1 1.1-1.6 1.6l-.9-5.4c0-.3-.3-.5-.6-.4-.3 0-.5.3-.4.6l1 6.3c-.1.1-.2.2-.2.3l-4.2-2.3c-.2-.1-.5 0-.7.2s0 .5.2.7l4.1 2.3c-1.5 2.2-2.3 4.6-2.5 6.9-2 .3-3.8 1.1-5 2.4-1.4 1.5-1.9 3.4-2.2 5-1 5.7-.1 11.6 2.8 16.9 3.3 6.1 8.1 8.4 12.3 8 .4 3.9 1.5 13-.3 16.9h-9.3c-22.5 0-30.8 31.3-32.2 37.3-1.4-1.6-4.8-5.4-8.8-8.5V125.9c0-3.9-3.2-7-7-7H72.8c-3.9 0-7 3.1-7 7v227c0 3.9 3.1 7 7 7h300.9c3.9 0 7-3.2 7-7v-73.2c1.6 3.4 2.8 6.3 3.3 7.6 2.8 7.2 13.2 10.1 19.3.4 2.8-4.6 4-7.2 4.5-8.6l-1.1 28.5c0 .5.2 1 .9 1.5-3.4 11.4-5.3 30-7.8 54-3.2 31.2-7.1 70-16.3 111.4v.1c0 .8 1.1 1.4 2.7 1.9v9.1l-1.6 12.5c-.1.5.1.9.3 1.3h-279l6.3-45.5c.3-2.2-1.4-4.1-3.6-4.1h-9.7c3.1-4.5 5-11.3 5.7-20.5.7-8.6 10.8-20.1 11-20.2.1-.2.2-.4.1-.6s-.3-.3-.5-.3c-4.9.7-9.2 2.6-13 5 2.5-10.6 12.7-28 12.8-28.2.1-.2.1-.4-.1-.6-.1-.2-.4-.2-.6-.1-10.2 4.5-20.7 20-24.8 26.7 0-.1-.1-.1-.1-.2-2.9-5.3-.4-16.6-.4-16.7 0-.2 0-.4-.2-.5-.1-.1-.3-.2-.5-.1-7.2 2.4-11.9 8-15.1 13.7-5-7.6-13.8-19.2-22.4-23-.2-.1-.4 0-.6.1-.1.2-.2.4-.1.6.1.2 14.1 24 13.3 32.8v.4c-5.1-5-11.5-9-19.3-10.1-.2 0-.4.1-.5.3-.1.2-.1.4.1.6.1.1 10.3 11.6 11 20.2.7 9.2 2.6 16 5.7 20.5h-9.6c-2.2 0-4 2-3.6 4.3l8 45.4H44c-.3 0-.5.2-.5.5s.2.5.5.5h512c.3 0 .5-.2.5-.5s-.2-.4-.5-.4zm-452.4-70.2c-.7 9.5-2.7 16.2-6 20.6H80.1v-3.7c.5-1.7 10.6-32.1 33.8-36.6-2.6 3.1-9.8 12.2-10.3 19.7zm9.5-43.2c-2.6 4.6-10.5 19-12.3 28-2.5 1.8-4.8 3.9-6.9 6.1-1.2-2.5-2.6-5.5-4-8 3.8-5.9 13.6-20.8 23.2-26.1zm-25.4 9c-.6 2.8-2 11.7.7 16.5 1.6 2.8 3.5 6.6 4.8 9.5-8 8.9-12.4 19.8-13.7 23.5-1.2-3.3-4.7-12.2-11.1-20.4v-.3c.1-.2 3.4-22.7 19.3-28.8zm-35.9-9c8 4.3 16.1 15.3 20.8 22.4-3.3 6.3-4.6 12.6-5 14.6-1-1.2-2.1-2.5-3.2-3.6v-1.3c.7-8-9.5-26.7-12.6-32.1zm3.8 43.2c-.6-7.5-7.7-16.6-10.3-19.7 23.2 4.5 33.2 34.9 33.8 36.6v3.7H61.5c-3.2-4.4-5.2-11.1-5.9-20.6zm-4.9 21.6h57.9c1.6 0 2.8 1.4 2.6 3l-6.3 45.5H56.2l-8-45.4c-.4-1.6.9-3.1 2.5-3.1zm360.7 31.7c-6.5 3.5-15.5 2.7-24.3 1.2v-4.6c7.2.5 14 .1 21.8-1.6 1.1-.1 1.7-.2 2.4-.3v5.3zm-24.3-3.9v-1.8c4.6 1 12.6 1.2 17.7 1-5 .7-10.8 1.2-17.7.8zm47.3 19.8c.1-2.3-1-4.1-3-5.3-3.9-2.3-15-8.3-19-10.5V477c2.7-.5 4-1.2 4-2.1l25.9-113.4 11.6 114c0 1 1.4 1.6 3.4 2v8.2l-1.6 12.5c-.1.5.1.9.3 1.3h-21.9c.2-.4.3-.7.3-1.1zm48.1-15.9c-6.5 3.6-15.5 2.7-24.3 1.2v-3c8-.2 16.2-1.5 24.3-3.7v5.5zm-24.2-2.3v-2.6c2.9.5 6.7.6 9.5.6.4 0 5.4 0 10.1-.5-6.6 1.5-13.1 2.3-19.6 2.5zm24-3.2h.2-.2zm-6-166.2c1 4.9.7 2.7 1.2 5.9-28.9.3-52.5-2.5-63.3-5.5 15.3 3 49.8 2.7 62.1-.4zM461 293.7v-4c0-1.3 1-2.3 2.3-2.3h12l-2.5 6.2H461zm44.7 3.6c-4-.1-7.7-1.2-9.3-2.8-.5-.5-.7-1-.7-1.6.1-2.6 6.6-2.9 9.2-2.9h.9c4.9.1 8.3.8 9.5 2.1.3.4.5.7.5 1.1 0 2.1-4 4.2-10.1 4.1zm-7.5-54.9H553c1.7 0 2.9 1.8 2.3 3.4l-19.6 47.9h-18.9c0-.1.1-.5.1-.4 0-.7-.2-1.3-.8-1.8-1.8-1.9-6.6-2.4-10.2-2.4-3.7-.1-11.1.2-11.1 3.9 0 .3 0 .6.1.8h-21l19.3-47.9c.8-2.1 2.8-3.5 5-3.5zm-18 32.9-.8-18.6 12-9.2-11.2 27.8zm-49.1-89.2c0-.3-.3-.5-.4-.5-3.6-.6-6.1-1.9-7.4-3.9-.9-1.4-1.2-3.2-.7-5.1.5-2.1 2-2.6 3.5-3 .6-.2 1.2-.4 1.7-.7.6.5 1 1.8 1.5 2.9.6 1.7 1.2 3.1 2.1 3.2.6 0 1.4-1.2 3.2-3.7.9-1.3 2-2.8 3.1-4.3 2.6-3.4 5.8-6.5 8.7-6.1.8.6 10.8 7.7 21.8 4.5 1.1 8.8.6 23.3-5.2 31-2.6 3.4-5.9 5.3-10.1 5.5-5.3.4-9.8-1.2-13.6-4.6-.2-.2-.5-.2-.7 0-.2.2-.2.5 0 .7 3.4 3.2 7.5 4.8 12.1 4.9 0 .7.1 4.6.2 5 0 .1 3.3 7.7.7 11.7-1.1 1.6-3 2.5-5.7 2.5h-.2c-10.5 0-13.5-13.2-13.8-14.7 2.3-4.9.2-20-.8-25.3zm-51.4-60.2v113.5c-5-3.7-7.6-3.7-7.8-3.7-1.5-1.6-9.4-10.3-13.3-8.9-.9.3-1.1.9-1.2 1.3-.3 1.6 1.7 4.3 3.5 6.3-2.8-.5-5.5-.9-9.7-2.3v-73.5c0-2.3-1.9-4.2-4.2-4.2h-20.6c-2.2 0-4 1.7-4.2 3.9-1.4.5-2.4 1.9-2.4 3.4v148.6c0 2 1.6 3.7 3.7 3.7H344c1.7 0 3.1-1.2 3.6-2.7 2-.3 3.5-2.1 3.5-4.1v-65c.9.4 1.9.8 3 1.1 7.6 2.3 13.1 7.6 15.1 11.8 1.4 2.9 6.6 13.9 10.5 22.4v49.8H75.8V125.9c0-1.8.8-3.4 2.1-4.5 1.1-.9 2.5-1.5 4-1.5h291.9c3.2 0 5.9 2.7 5.9 6zm-17.3 108.7c-2.2-2.2-4.4-5-4.1-6.3 0-.2.1-.4.6-.6.2-.1.4-.1.6-.1 2.8 0 8.1 5 10.8 7.9-6.2-.6-7.3-.8-7.9-.9zm-22.1-2.5c.5 3 4.1 7 9.8 9.6v65.4c0 1.5-1 2.7-2.4 3.1-.3.1-.5.1-.8.1h-20.6c-1.8 0-3.2-1.4-3.2-3.2v-149c.2-1.5 1.5-2.7 3.1-2.7h20.6c1.8 0 3.2 1.4 3.2 3.2v73.1c-1.4-.5-2.9-1.1-4.3-1.7-4.2-2-5.9-.2-5.4 2.1zm38 124.7c-1.1 1.3-2.8 2.2-4.7 2.2H81.8c-2.1 0-3.9-1.1-5-2.7-.6-1-1-2.1-1-3.4v-24.6h303.9v24.6c0 1.4-.5 2.6-1.3 3.7 0 .1 0 .1-.1.2zM72.8 359c-3.3 0-6-2.7-6-6V126c0-3.3 2.7-6 6-6h5.4c-.1.1-.2.1-.3.2l-.1.1c-.1.1-.2.2-.3.2-.9.7-1.7 1.7-2.2 2.8 0 .1 0 .1-.1.2-.1.4-.3.8-.3 1.2v.2c-.1.4-.1.8-.1 1.2v227.1c0 .3 0 .6.1.9v.3c.1.4.2.8.3 1.1 0 .1 0 .2.1.2 0 0 0 .1.1.1.5 1 1.2 2 2.1 2.7.1.1.2.2.4.3h.1c.1.1.2.1.3.2h-5.5zm334.3-81.4s-.1 2.3-4.6 9.5c-3.3 5.2-7.8 6.6-11.6 5.3 1.9-1 6-3.9 5.2-11.7 0-.3-.3-.5-.5-.4-.3 0-.5.3-.4.5.9 9.1-5.2 10.9-5.4 11h-.1c-.2-.1-3.2-1.4-4.6-5-.6-1.6-2.2-5-4-9.1-4-8.6-9.4-20.1-10.9-23.1-2.1-4.4-7.8-9.9-15.7-12.3-1.2-.4-2.3-.8-3.3-1.2-6.4-2.8-9.4-6.9-9.8-9.2-.4-2.4 1.9-2.1 4.2-1 8.5 4.1 17.4 4.8 26.2 5.7 7 .7 16.8 12.3 17.8 13.4 3.3 6.5 5 12.6 4.9 18.3 0 .3.2.5.5.5s.5-.2.5-.5c0-5.3-1.4-11-4.2-17l17.3 12.3-1.5 14zm2.3-14.2 9.4-21.6c.1-.3 0-.5-.3-.7-.3-.1-.5 0-.7.3l-9.2 21.1-18.4-13c.8-3.6 8.5-37.2 31.4-37.2h9.4c.7 3 4.1 15 14.6 15 .2 0 4.6.3 6.7-3 2.4-3.8.4-10-.4-12h6.2s5 .2 11.1 2.6c10.8 4.2 17.8 11 21.2 20.6 1 2.7 1.7 5.7 2.2 8.9-.5.7-.6 1.2-.7 1.3l-12.9 10c-1.9-7.4-4.8-12.9-8.9-16.9-.2-.2-.5-.2-.7 0-.2.2-.2.5 0 .7 4.1 4 6.9 9.6 8.8 17.1l.9 21-3.6 8.9h-12.4c-1.8 0-3.3 1.5-3.3 3.3v4.5c0 .3.2.5.5.5H480l.5 12.9c0 2.3-13.6 4.7-36.3 4.7-22.9 0-36.6-2.4-36.6-4.8l1.8-44.2zm-24.9 211.2c9.2-41.4 13.2-80.2 16.3-111.4 2.4-23.8 4.3-42.3 7.7-53.6 12.6 6.4 49.5 7.7 64.2 7.7h4.9c4 27.8 5.4 72.3 6.8 118.9.4 12.6.8 25.6 1.3 38.5 0 1-7.1 2.5-17.9 2.5-9.6 0-12.8-1.2-12.8-1.8l-11.9-117 5.3-19.7c.1-.3-.1-.5-.4-.6-.3-.1-.5.1-.6.4l-5.3 19.8c-27.3 119.9-26.6 116.4-26.6 116.5 0 0-.1.8-4.3 1.4-9.1 1.3-26 .4-26.7-1.6z" class="color2f304c svgShape"></path><path fill="#2f304c" d="M66.6 488.1c0 .2.3.4.5.4h26.1c.3 0 .5-.2.5-.4L97 464c.2-1.3-.8-2.4-2.1-2.4H64.4c-1.3 0-2.3 1.2-2.1 2.5l4.3 24zm-2.2-25.6h30.4c.7 0 1.2.7 1.1 1.3l-3.3 23.7H67.5l-4.2-23.7c-.2-.7.4-1.3 1.1-1.3zM52.6 307.1c2.3 0 4.1-1.8 4.1-4.1s-1.8-4.1-4.1-4.1-4.1 1.8-4.1 4.1 1.9 4.1 4.1 4.1zm0-7.2c1.7 0 3.1 1.4 3.1 3.1s-1.4 3.1-3.1 3.1c-1.7 0-3.1-1.4-3.1-3.1s1.4-3.1 3.1-3.1zM94.7 338.7c-2.4 0-4.4 2-4.4 4.4 0 2.4 2 4.4 4.4 4.4 2.4 0 4.4-2 4.4-4.4 0-2.5-2-4.4-4.4-4.4zm0 7.7c-1.9 0-3.4-1.5-3.4-3.4s1.5-3.4 3.4-3.4 3.4 1.5 3.4 3.4-1.5 3.4-3.4 3.4zM161.5 342.5h-57.7c-.3 0-.5.2-.5.5s.2.5.5.5h57.7c.3 0 .5-.2.5-.5s-.3-.5-.5-.5zM189.3 338.7c-2.4 0-4.4 2-4.4 4.4 0 2.4 2 4.4 4.4 4.4 2.4 0 4.4-2 4.4-4.4 0-2.5-2-4.4-4.4-4.4zm0 7.7c-1.9 0-3.4-1.5-3.4-3.4s1.5-3.4 3.4-3.4 3.4 1.5 3.4 3.4-1.5 3.4-3.4 3.4zM256.1 342.5h-57.7c-.3 0-.5.2-.5.5s.2.5.5.5h57.7c.3 0 .5-.2.5-.5s-.3-.5-.5-.5zM283.9 338.7c-2.4 0-4.4 2-4.4 4.4 0 2.4 2 4.4 4.4 4.4 2.4 0 4.4-2 4.4-4.4 0-2.5-2-4.4-4.4-4.4zm0 7.7c-1.9 0-3.4-1.5-3.4-3.4s1.5-3.4 3.4-3.4 3.4 1.5 3.4 3.4-1.5 3.4-3.4 3.4zM350.7 342.5H293c-.3 0-.5.2-.5.5s.2.5.5.5h57.7c.3 0 .5-.2.5-.5s-.3-.5-.5-.5zM272.1 184.4c-1.4.5-2.4 1.9-2.4 3.4v122.5c0 2 1.6 3.7 3.7 3.7H294c1.7 0 3.1-1.2 3.6-2.7 2-.3 3.5-2.1 3.5-4.1V184.7c0-2.3-1.9-4.2-4.2-4.2h-20.6c-2.2 0-4.1 1.7-4.2 3.9zm27.9.3v122.5c0 1.5-1 2.7-2.4 3.1-.3.1-.5.1-.8.1h-20.6c-1.8 0-3.2-1.4-3.2-3.2v-123c.2-1.5 1.5-2.7 3.1-2.7h20.6c1.9 0 3.3 1.4 3.3 3.2zM247.9 211.8h-20.6c-2.2 0-4 1.7-4.2 3.9-1.4.5-2.4 1.9-2.4 3.4v91.2c0 2 1.7 3.7 3.7 3.7H245c1.7 0 3.1-1.2 3.5-2.7 2-.3 3.5-2.1 3.5-4.1V216c.1-2.3-1.8-4.2-4.1-4.2zm3.2 95.4c0 1.5-1 2.7-2.4 3.1-.3.1-.5.1-.8.1h-20.6c-1.8 0-3.2-1.4-3.2-3.2V216c0-1.7 1.4-3.2 3.2-3.2h20.6c1.8 0 3.2 1.4 3.2 3.2v91.2zM198.9 243.1h-20.6c-2.2 0-4 1.7-4.2 3.9-1.4.5-2.4 1.9-2.4 3.4v59.9c0 2 1.6 3.7 3.7 3.7H196c1.7 0 3.2-1.2 3.6-2.7 2-.3 3.5-2.1 3.5-4.1v-59.9c0-2.3-1.9-4.2-4.2-4.2zm3.2 64.1c0 1.8-1.5 3.2-3.2 3.2h-20.6c-1.8 0-3.2-1.4-3.2-3.2v-59.9c0-1.8 1.4-3.2 3.2-3.2h20.6c1.8 0 3.2 1.4 3.2 3.2v59.9zM150 274.4h-20.6c-2.2 0-4 1.7-4.2 3.9-1.4.5-2.4 1.9-2.4 3.4v28.6c0 2 1.6 3.7 3.7 3.7h20.6c1.7 0 3.1-1.2 3.5-2.7 2-.3 3.5-2.1 3.5-4.1v-28.6c.1-2.3-1.8-4.2-4.1-4.2zm3.2 32.8c0 1.8-1.5 3.2-3.2 3.2h-20.6c-1.8 0-3.2-1.4-3.2-3.2v-29.1c.2-1.5 1.5-2.7 3.1-2.7H150c1.8 0 3.2 1.4 3.2 3.2v28.6zM105.5 236.1c-.7.9-.9 2.2-.2 3.2l5.9 9.8c.8 1.3 2.5 1.7 3.8.9l132.8-79.8c1.3-.8 3-.4 3.8.9l5.3 8.5c1.2 1.9 3.9 1.7 4.9-.3l16.6-34.7c.5-1 .3-2.1-.3-2.9l.7-1.5c1-2.2-.5-4.7-2.9-4.7l-38.5-.4c-2.6 0-4.2 2.8-2.8 5l.6 1c-.7.9-.9 2.1-.2 3.2l3.8 6-.3.3L106 230.5c-1.5.9-2 2.9-1.1 4.5l.6 1.1zm1-4.7L239 151.7c.1-.1.2-.2.3-.2.6-.5 1-1.1 1.2-1.8.2-.9.1-1.8-.4-2.5-.1-.1-4.9-7.9-4.6-7.4-.9-1.5.1-3.5 1.9-3.5l38.5.4c1.7 0 2.7 1.8 2 3.3-21.8 45.5-14.8 31-16.6 34.7-.8 1.7-3.1 1.7-4 .2l-5.3-8.5c-.9-1.5-3-2-4.5-1.1l-132.8 79.8c-1.1.6-2.5.3-3.1-.8-.6-1 2.2 3.6-5.9-9.8-.6-1.1-.3-2.5.8-3.1zM99.4 148.3c2.7 0 4.9-2.2 4.9-4.9s-2.2-4.9-4.9-4.9-4.9 2.2-4.9 4.9 2.2 4.9 4.9 4.9zm0-8.8c2.1 0 3.9 1.7 3.9 3.9 0 2.1-1.7 3.9-3.9 3.9s-3.9-1.8-3.9-3.9c0-2.1 1.8-3.9 3.9-3.9zM110.1 143.9h56.1c.3 0 .5-.2.5-.5s-.2-.5-.5-.5h-56.1c-.3 0-.5.2-.5.5s.3.5.5.5zM99.4 167.5c2.7 0 4.9-2.2 4.9-4.9s-2.2-4.9-4.9-4.9-4.9 2.2-4.9 4.9 2.2 4.9 4.9 4.9zm0-8.8c2.1 0 3.9 1.7 3.9 3.9 0 2.1-1.7 3.9-3.9 3.9s-3.9-1.7-3.9-3.9c0-2.1 1.8-3.9 3.9-3.9zM110.1 163.1h56.1c.3 0 .5-.2.5-.5s-.2-.5-.5-.5h-56.1c-.3 0-.5.2-.5.5s.3.5.5.5zM245.8 467.6h.2l68-3.9c1.8-.1 3.2-1.7 3.1-3.5l-2.9-50.7c0-.9-.4-1.7-1.1-2.3-.7-.6-1.5-.9-2.4-.8l-68 3.9c-1.8.1-3.2 1.7-3.1 3.5l2.9 50.7c.1.9.4 1.7 1.1 2.3.6.5 1.4.8 2.2.8zm-5.2-53.9c-.1-1.3.9-2.3 2.2-2.4l68-3.9h.1c.6 0 1.1.2 1.5.6.5.4.7 1 .8 1.6l2.9 50.7c.1 1.3-.9 2.3-2.2 2.4l-68 3.9c-.6 0-1.2-.2-1.7-.6-.5-.4-.7-1-.8-1.6l-2.8-50.7z" class="color2f304c svgShape"></path><path fill="#2f304c" d="M254 456.1c.1.1.2.1.3.1l49.3-2.9c.3 0 .5-.3.5-.5 0-.3-.3-.5-.5-.5l-48.8 2.8-1.7-30.4c0-.3-.3-.5-.5-.5-.3 0-.5.3-.5.5l1.8 30.9c-.1.2 0 .4.1.5z" class="color2f304c svgShape"></path><path fill="#2f304c" d="m259.8 435.3 6.7-8c.9 5.5 2.1 12.9 2.1 13.3 0 .2.1.4.3.5.3.1.5.2 4.3-3.7l.3 5.6c0 .2.1.4.3.4.2.1.4 0 .5-.2l6.7-8.2 19.5 13.2c.1.1.2.1.3.1.2 0 .3-.1.4-.2.2-.2.1-.5-.1-.7L281.3 434c-.2-.1-.5-.1-.7.1l-6.2 7.5-.3-5.4c0-.2-.1-.4-.3-.4-.2-.1-.4 0-.5.1-1.4 1.5-3 3-3.8 3.8-.4-2.8-1.8-11.6-2.2-13.6 0-.2-.2-.4-.4-.4-.2-.1-.4 0-.5.2l-7.4 8.9c-.2.2-.1.5.1.7.2.1.5 0 .7-.2zM470 399.7c1.7-2.1 1.5-5.2-.6-6.9-.2-.2-.5-.2-.7 0-.2.2-.2.5 0 .7 1.6 1.4 1.8 3.9.4 5.5s-3.7 1.8-5.3.4c-.2-.2-.5-.2-.7 0-.2.2-.2.5 0 .7 2.2 1.9 5.2 1.6 6.9-.4zM415.5 396.1c2-1.8 2.2-4.9.4-6.9-.2-.2-.5-.2-.7-.1-.2.2-.2.5-.1.7 1.4 1.6 1.2 4.1-.4 5.5-1.6 1.4-3.9 1.3-5.3-.3-.2-.2-.5-.2-.7-.1-.2.2-.2.5-.1.7 1.9 2.1 4.9 2.2 6.9.5zM518.1 274.3c4.3 0 7.8-3.7 6.8-7.3-.7-2.4-3.1-3.8-5.6-3.8-4.4 0-7.8 3.7-6.8 7.3.6 2.3 2.9 3.8 5.6 3.8zM457.4 230.5c.2-.2.2-.5.1-.7-.2-.2-.5-.2-.7-.1-9.5 8.2-18.5 7.9-27.4-.9-.2-.2-.5-.2-.7 0s-.2.5 0 .7c9.2 9.2 18.9 9.5 28.7 1zM503.5 135.5s.6.1 1.6.1c5.2 0 21.5-2.1 28.1-27l1.5 4.5c.1.2.3.3.5.3h.2c.3-.1.4-.4.3-.6l-2-6.1s0-.1-.1-.1l-.1-.1-.1-.1h-.2c-.1 0-.1 0-.2.1l-5.7 4.3c-.2.2-.3.5-.1.7.2.2.5.3.7.1l4.5-3.4c-7.5 29-27.8 26.5-28.6 26.4-.3 0-.5.2-.6.4-.2.2 0 .4.3.5zM448.1 174.3c1.1-.8 3.3-2 5.1-.2.1.1.4.1.5 0 .1-.1.1-.4 0-.5-1.6-1.6-3.8-1.5-6 .1-.2.1-.2.4-.1.5.1.2.3.2.5.1zM452.5 177.3c-.1-1.2-.9-2.1-2-2-1 .1-1.8 1.1-1.7 2.3.1 1.2.9 2.1 2 2 1-.1 1.7-1.1 1.7-2.3zM459.9 174c1.3-.8 3.1-1.5 4.7 0 .2.1.4.1.5 0 .1-.1.1-.4 0-.5-1.5-1.5-3.5-1.5-5.6-.1-.2.1-.2.3-.1.5.1.1.3.2.5.1zM462.7 175.3c-1 .1-1.8 1.1-1.7 2.3.1 1.2.9 2.1 2 2 1-.1 1.8-1.1 1.7-2.3-.1-1.2-.9-2.1-2-2zM427.9 175.3s-.9.1-1.7.6c-.8.5-1.7 1.6-1.6 3.7 0 .1.1.2.3.2.1 0 .2-.1.2-.3-.2-3.5 2.7-3.8 2.8-3.8.1 0 .2-.1.2-.3.1 0 0-.1-.2-.1zM458.3 193.6l-10-2.1c-.1 0-.2 0-.3.1-.1.1-.1.2-.2.3-.5 2.9 1 5.7 3.8 6.2 2.9.5 5.7-1.3 6.9-3.9.1-.1.1-.2 0-.3 0-.2-.1-.3-.2-.3zm-6.5 3.7c-2.2-.4-3.5-2.5-3.3-5l9.1 1.9c-1.2 2.1-3.5 3.6-5.8 3.1zM449.7 200.9c.2 0 .5 0 .7-.1.2 0 .3-.2.3-.4s-.2-.3-.4-.3c-1.5.2-2.7-.3-3.2-1.5-.1-.2-.3-.3-.5-.2-.2.1-.3.3-.2.5.6 1.2 1.8 2 3.3 2zM459.1 184.8c.3.5.7 1.5.3 2.4-.2.7-1.1 1.3-1.7 1-.2-.1-.4 0-.5.2-.1.2 0 .4.2.5 1.7.6 3.9-1.4 2.3-4.5-.5-.9-1.1-1.6-1.6-2.4-1.1-1.8-1.6-4-1.3-6.1 0-.2-.1-.4-.3-.4-.2 0-.4.1-.4.3-.3 2.3.2 4.7 1.4 6.6.6.9 1.2 1.6 1.6 2.4z" class="color2f304c svgShape"></path><path fill="#ffffff" d="M422.1 493.3h-.2c-.3-.1-.4-.4-.3-.6.7-2.1 2-3.6 3.9-4.5.3-.1.5 0 .7.3.1.3 0 .5-.3.7-1.6.7-2.7 2-3.4 3.9 0 .1-.2.2-.4.2zM417.6 491.4h-.2c-.3-.1-.4-.4-.3-.6.7-2.1 2-3.6 3.9-4.5.3-.1.5 0 .7.3.1.3 0 .5-.3.7-1.6.7-2.7 2-3.4 3.9 0 .1-.2.2-.4.2zM413.1 489.3h-.2c-.3-.1-.4-.4-.3-.6.7-2.1 2-3.6 3.9-4.5.3-.1.5 0 .7.3.1.3 0 .5-.3.7-1.6.7-2.7 2-3.4 3.9.1.1-.1.2-.4.2zM393.5 499.1c-.3 0-.5-.2-.5-.5-.1-3.2-2.5-5.9-5.7-6.3-.3 0-.5-.3-.4-.6 0-.3.3-.5.6-.4 3.6.5 6.4 3.6 6.5 7.3 0 .2-.2.4-.5.5zM493.3 493.3h-.2c-.3-.1-.4-.4-.3-.6.7-2.1 2-3.6 3.9-4.5.3-.1.5 0 .7.3.1.3 0 .5-.3.7-1.6.7-2.7 2-3.4 3.9 0 .1-.2.2-.4.2zM488.8 491.4h-.2c-.3-.1-.4-.4-.3-.6.7-2.1 2-3.6 3.9-4.5.3-.1.5 0 .7.3.1.3 0 .5-.3.7-1.6.7-2.7 2-3.4 3.9 0 .1-.2.2-.4.2zM484.3 489.3h-.2c-.3-.1-.4-.4-.3-.6.7-2.1 2-3.6 3.9-4.5.3-.1.5 0 .7.3.1.3 0 .5-.3.7-1.6.7-2.7 2-3.4 3.9 0 .1-.2.2-.4.2zM464.4 498.8c-.3 0-.5-.2-.5-.5-.1-3.2-2.5-5.9-5.7-6.3-.3 0-.5-.3-.4-.6 0-.3.3-.5.6-.4 3.6.5 6.4 3.6 6.5 7.3 0 .3-.2.5-.5.5z" class="colorfff svgShape"></path></svg></g></svg>