<svg id="wave" style="transform:rotate(0deg); transition: 0.3s" viewBox="0 0 1440 100" version="1.1" xmlns="http://www.w3.org/2000/svg"><defs><linearGradient id="sw-gradient-0" x1="0" x2="0" y1="1" y2="0"><stop stop-color="rgba(0, 0, 0, 1)" offset="0%"></stop><stop stop-color="rgba(0, 0, 0, 1)" offset="100%"></stop></linearGradient></defs><path style="transform:translate(0, 0px); opacity:1" fill="url(#sw-gradient-0)" d="M0,90L16,75C32,60,64,30,96,25C128,20,160,40,192,55C224,70,256,80,288,73.3C320,67,352,43,384,30C416,17,448,13,480,23.3C512,33,544,57,576,70C608,83,640,87,672,80C704,73,736,57,768,48.3C800,40,832,40,864,33.3C896,27,928,13,960,18.3C992,23,1024,47,1056,58.3C1088,70,1120,70,1152,58.3C1184,47,1216,23,1248,16.7C1280,10,1312,20,1344,20C1376,20,1408,10,1440,10C1472,10,1504,20,1536,21.7C1568,23,1600,17,1632,25C1664,33,1696,57,1728,65C1760,73,1792,67,1824,56.7C1856,47,1888,33,1920,33.3C1952,33,1984,47,2016,50C2048,53,2080,47,2112,36.7C2144,27,2176,13,2208,15C2240,17,2272,33,2288,41.7L2304,50L2304,100L2288,100C2272,100,2240,100,2208,100C2176,100,2144,100,2112,100C2080,100,2048,100,2016,100C1984,100,1952,100,1920,100C1888,100,1856,100,1824,100C1792,100,1760,100,1728,100C1696,100,1664,100,1632,100C1600,100,1568,100,1536,100C1504,100,1472,100,1440,100C1408,100,1376,100,1344,100C1312,100,1280,100,1248,100C1216,100,1184,100,1152,100C1120,100,1088,100,1056,100C1024,100,992,100,960,100C928,100,896,100,864,100C832,100,800,100,768,100C736,100,704,100,672,100C640,100,608,100,576,100C544,100,512,100,480,100C448,100,416,100,384,100C352,100,320,100,288,100C256,100,224,100,192,100C160,100,128,100,96,100C64,100,32,100,16,100L0,100Z"></path></svg>